<?xml version="1.0" encoding="UTF-8" standalone="no"?>
<!-- Created with Inkscape (http://www.inkscape.org/) -->

<svg
   xmlns:dc="http://purl.org/dc/elements/1.1/"
   xmlns:cc="http://creativecommons.org/ns#"
   xmlns:rdf="http://www.w3.org/1999/02/22-rdf-syntax-ns#"
   xmlns:svg="http://www.w3.org/2000/svg"
   xmlns="http://www.w3.org/2000/svg"
   xmlns:sodipodi="http://sodipodi.sourceforge.net/DTD/sodipodi-0.dtd"
   xmlns:inkscape="http://www.inkscape.org/namespaces/inkscape"
   width="21.691473"
   height="92.264076"
   id="svg2"
   version="1.1"
   inkscape:version="0.48.1 r9760"
   sodipodi:docname="A.svg">
  <defs
     id="defs4" />
  <sodipodi:namedview
     id="base"
     pagecolor="#ffffff"
     bordercolor="#666666"
     borderopacity="1.0"
     inkscape:pageopacity="0.0"
     inkscape:pageshadow="2"
     inkscape:zoom="0.70508045"
     inkscape:cx="218.68199"
     inkscape:cy="33.762229"
     inkscape:document-units="px"
     inkscape:current-layer="layer1"
     showgrid="false"
     inkscape:window-width="1749"
     inkscape:window-height="960"
     inkscape:window-x="0"
     inkscape:window-y="0"
     inkscape:window-maximized="0"
     fit-margin-top="0"
     fit-margin-left="0"
     fit-margin-right="0"
     fit-margin-bottom="0" />
  <metadata
     id="metadata7">
    <rdf:RDF>
      <cc:Work
         rdf:about="">
        <dc:format>image/svg+xml</dc:format>
        <dc:type
           rdf:resource="http://purl.org/dc/dcmitype/StillImage" />
        <dc:title></dc:title>
      </cc:Work>
    </rdf:RDF>
  </metadata>
  <g
     inkscape:label="Layer 1"
     inkscape:groupmode="layer"
     id="layer1"
     transform="translate(-153.36525,-467.67925)">
    <g
       id="g3248"
       transform="matrix(-0.00905374,0.99995901,-0.99995901,-0.00905374,679.19772,354.40372)">
      <g
         id="g3230">
        <g
           id="g3213">
          <g
             id="g3197">
            <g
               id="g3182">
              <g
                 id="g3168">
                <g
                   id="g3969"
                   transform="translate(-310.44084,-75.018121)">
                  <path
                     style="fill:#cdd2b2"
                     d="m 520.59149,583.36445 c -3.89884,5.10495 2.07924,-1.52601 -12.1337,0.75664 -0.50137,0.30986 -1.87415,0.74875 -3.05064,0.97532 -2.5971,0.50016 -2.17728,-0.0145 -4.69748,5.75844 -2.97846,6.82263 -5.95094,7.8397 -24.78409,8.4802 -22.07897,0.75089 -36.04178,-4.42532 -44.91319,-16.64993 -4.24549,-5.85019 -4.26241,-5.84564 5.12274,-1.37713 l 7.90357,3.76309 28.71233,-0.1772 c 20.97822,-0.12946 29.20117,-0.1258 29.99058,-1.0728 0.57309,-0.6875 2.08315,-0.67318 2.97855,-1.25 4.49271,-2.8942 1.39133,-0.33604 2.52989,-1.69199 7.95749,-0.47422 6.64838,0.16824 12.34144,2.48536 z"
                     id="path3993"
                     inkscape:connector-curvature="0"
                     sodipodi:nodetypes="ccssssscssscc" />
                  <path
                     style="fill:#b7c7aa"
                     d="m 513.02948,582.18051 c 1.45244,3.73973 -10.96504,3.48476 -11.98514,7.36478 -1.62535,7.4002 -7.88712,9.36847 -30.00566,9.43175 -18.54192,0.053 -32.9285,-5.7845 -40.03693,-16.2455 -3.54814,-5.22156 -3.20581,-5.35956 4.28693,-1.72813 9.54992,4.62846 15.93295,5.939 25.08983,5.15133 4.21309,-0.36241 17.72864,-0.95862 27.11773,-1.19809 13.72501,-0.60015 18.18641,-2.25129 21.05948,-3.48136 5.38148,-2.30402 18.89175,6.05423 4.47376,0.70522 z"
                     id="path3991"
                     inkscape:connector-curvature="0"
                     sodipodi:nodetypes="ccsssscsc" />
                  <path
                     style="fill:#a2ab92"
                     d="m 502.69373,587.67101 c -0.98907,4.50321 -6.00928,10.92184 -13.50128,11.19259 -29.24747,1.05693 -49.42871,-2.91592 -58.9268,-17.55901 -2.22467,-3.42974 -2.44096,-3.45827 7.47461,0.98569 9.46055,4.24002 10.59829,4.31863 45.29844,3.12995 13.66351,-0.46805 21.63241,0.26895 25.124,-3.53019 13.5455,-0.56563 3.07156,2.94534 -5.46897,5.78097 z"
                     id="path3989"
                     inkscape:connector-curvature="0"
                     sodipodi:nodetypes="csssscc" />
                  <path
                     style="fill:#8b976e"
                     d="m 437.2887,582.37037 c 8.73633,4.1717 9.87047,4.25076 45.91163,3.20071 19.0636,-0.55541 19.01121,-0.56874 17.36564,4.41736 -2.37726,7.20319 -7.24426,8.61081 -30.52727,8.82903 -15.98697,0.14983 -24.85355,-3.02461 -34.84908,-12.47679 -7.72096,-7.30125 -7.14762,-8.38571 2.09908,-3.97031 z m 69.49599,1.08472 c 1.59782,-0.74675 2.94709,0.0708 1.87397,-1.30351 -1.44108,-1.84557 1.17957,-0.26234 3.51314,0.83942 1.44591,-1.35479 2.72491,-0.4813 -0.44707,1.37801 -2.60273,-1.93586 -4.7032,0.54327 -7.0011,1.49937 -3.18481,1.32513 -2.06859,-0.48326 2.06106,-2.41329 z"
                     id="path3987"
                     inkscape:connector-curvature="0"
                     sodipodi:nodetypes="ssssssssccss" />
                  <path
                     style="fill:#708855"
                     d="m 437.2887,582.37037 7.75,3.70071 14.5,0 c 7.975,0 20.42498,-0.225 27.66663,-0.5 14.85946,-0.56428 15.15958,-0.45774 13.20159,4.68671 -2.64775,6.95672 -5.5933,7.81329 -26.86822,7.81329 l -18.5,0 -7.65574,-3.65594 c -7.33219,-3.50144 -17.84426,-12.10875 -17.84426,-14.61093 0,-0.62532 3.4785,0.52647 7.75,2.56616 z"
                     id="path3985"
                     inkscape:connector-curvature="0"
                     sodipodi:nodetypes="scsssscsss" />
                  <path
                     style="fill:#65774c"
                     d="m 436.7887,582.3883 7.25,3.68278 15,0 c 8.25,0 20.93998,-0.21002 28.19995,-0.46671 15.04253,-0.53187 14.774,-0.62474 13.07174,4.52059 -2.20044,6.65112 -5.39802,7.73784 -24.28901,8.2548 -21.38401,0.58519 -30.9206,-2.45547 -42.01992,-13.39765 -6.27737,-6.18851 -5.57538,-6.84178 2.78724,-2.59381 z"
                     id="path3983"
                     inkscape:connector-curvature="0"
                     sodipodi:nodetypes="scssssss" />
                  <path
                     style="fill:#5e892d"
                     d="m 430.13709,579.57108 c 0.40896,0 3.70412,1.45556 7.32258,3.23457 7.76925,3.81975 18.46595,4.53798 44.57903,2.99327 19.30774,-1.14215 22.58409,0.30695 16.67533,7.37534 -6.52578,7.8065 -46.23774,7.33441 -54.21667,-0.64452 -1.07726,-1.07726 -2.34678,-1.95866 -2.82116,-1.95866 -1.27347,0 -7.93657,-5.47484 -10.26376,-8.43338 -1.1104,-1.41164 -1.6843,-2.56662 -1.27535,-2.56662 z m 52.59713,13.1329 c 4.39078,-1.26565 -3.73237,-1.5149 -12.19552,-0.37421 l -5.5,0.74131 7.19552,0.29271 c 3.95753,0.16099 8.68253,-0.13592 10.5,-0.65981 z"
                     id="path3981"
                     inkscape:connector-curvature="0"
                     sodipodi:nodetypes="sssssssssscss" />
                  <path
                     style="fill:#596c46"
                     d="m 430.13709,579.57108 c 0.40896,0 3.70412,1.45556 7.32258,3.23457 7.76925,3.81975 18.46595,4.53798 44.57903,2.99327 19.30774,-1.14215 22.58409,0.30695 16.67533,7.37534 -6.52578,7.8065 -46.23774,7.33441 -54.21667,-0.64452 -1.07726,-1.07726 -2.34678,-1.95866 -2.82116,-1.95866 -1.27347,0 -7.93657,-5.47484 -10.26376,-8.43338 -1.1104,-1.41164 -1.6843,-2.56662 -1.27535,-2.56662 z m 13.92924,9.97938 c 2.1848,0.7047 4.51646,1.71244 5.18145,2.23943 1.31338,1.04082 33.346,2.67407 32.72246,1.66843 -0.20897,-0.33702 1.97695,-0.85601 4.8576,-1.15332 5.73482,-0.59189 12.94552,-3.54521 12.079,-4.94727 -0.30074,-0.48662 -1.12943,-0.39973 -1.84404,0.19335 -6.53709,5.4253 -43.58613,5.41874 -54.82172,-0.01 -4.82385,-2.33063 -5.28806,-2.41311 -3.49618,-0.62123 0.74199,0.74198 3.13663,1.92563 5.32143,2.63032 z"
                     id="path3979"
                     inkscape:connector-curvature="0"
                     sodipodi:nodetypes="sssssssscssssscscc" />
                  <path
                     style="fill:#506c32"
                     d="m 435.5387,582.07108 c 5.51777,2.79607 6.41561,3.8934 2.35085,2.87321 -1.85059,-0.46447 -2.43782,-0.32294 -1.94807,0.46949 0.45358,0.7339 0.14418,0.92068 -0.87637,0.52906 -1.30139,-0.49939 -1.35423,-0.88016 -0.30193,-2.17577 1.07298,-1.32108 1.01698,-1.47373 -0.35262,-0.96137 -1.59792,0.59778 -3.87186,-0.84196 -3.87186,-2.45147 0,-0.44926 2.25,0.32332 5,1.71685 z m 7.25,3.51101 c 4.31841,0.038 8.79534,1.35366 7.57707,2.22667 -0.91779,0.6577 -0.71026,0.72096 0.67293,0.20513 2.00262,-0.74682 14.28984,-1.46498 37.25,-2.17715 13.68716,-0.42454 14.50744,0.10422 10.55125,6.80151 -5.09711,8.62872 -45.94237,8.00393 -54.26808,-0.83011 -1.86876,-1.98287 -2.03076,-2.45011 -0.66821,-1.92725 0.98924,0.3796 2.32431,0.69708 2.96683,0.7055 0.72039,0.009 0.63028,0.35589 -0.23508,0.90376 -1.04277,0.66019 -0.78585,0.88633 1,0.88022 7.22625,-0.0247 27.54729,1.58317 28.40329,2.24741 1.2222,0.94841 6.66084,0.0226 6.01415,-1.02381 -0.2544,-0.41163 1.89434,-0.99166 4.77499,-1.28897 5.51486,-0.56919 12.95644,-3.52755 12.1511,-4.83062 -0.26076,-0.42192 -1.66003,-0.15186 -3.10949,0.60013 -9.71169,5.03849 -56.26853,4.15473 -51.5974,-0.97944 0.42166,-0.46346 -0.0208,-0.56007 -0.98335,-0.2147 -0.9625,0.34537 -1.75,0.19206 -1.75,-0.34067 0,-0.53274 0.5625,-0.96367 1.25,-0.95761 z"
                     id="path3977"
                     inkscape:connector-curvature="0"
                     sodipodi:nodetypes="sssssssscsssssscssscsssscsc" />
                  <path
                     style="fill:#475832"
                     d="m 448.59772,593.57108 c 0.58246,0 0.80684,-0.40803 0.49862,-0.90674 -0.30822,-0.49871 0.34022,-0.67122 1.44098,-0.38337 1.10076,0.28786 2.00138,0.81291 2.00138,1.16679 0,0.35387 3.03536,0.63889 6.74524,0.63336 5.33147,-0.008 6.74624,0.30435 6.75,1.48996 0.003,1.05329 1.49379,1.67657 5.00476,2.0929 4.53889,0.53821 4.29499,0.60738 -2.64466,0.75 -5.24999,0.10789 -9.71378,-0.48198 -14.25,-1.88308 -6.11686,-1.88931 -8.12287,-2.95982 -5.54632,-2.95982 z m 6.44098,-4.05497 c 2.56432,-0.0732 2.70955,-0.2068 1,-0.92019 -1.27191,-0.53076 0.18426,-0.70005 4,-0.46502 4.49652,0.27695 5.24826,0.15747 3,-0.47682 -2.61026,-0.73642 -2.28548,-0.85975 2.5,-0.94937 3.178,-0.0595 4.95797,0.24092 4.21613,0.71163 -0.70776,0.44909 -0.9963,1.56404 -0.64301,2.48469 0.56316,1.46759 -0.25105,1.66819 -6.71613,1.65474 -7.23317,-0.0151 -13.86597,-1.85394 -7.35699,-2.03966 z m 30.45851,6.68825 c 2.22282,-0.8894 4.04149,-2.01225 4.04149,-2.49522 0,-0.48298 2.03729,-1.44855 4.52732,-2.14571 2.49003,-0.69716 4.95134,-1.99315 5.46959,-2.87996 0.85699,-1.46646 0.94502,-1.46094 0.97268,0.0609 0.0495,2.72365 -5.01146,8.04904 -7.12427,7.49653 -1.01644,-0.2658 -1.63079,-0.1317 -1.36522,0.29801 0.43044,0.69646 -9.55388,2.20099 -10.27159,1.54783 -0.16032,-0.14591 1.52718,-0.99297 3.75,-1.88236 z"
                     id="path3975"
                     inkscape:connector-curvature="0"
                     sodipodi:nodetypes="ssssscsssscsssssssccssssscccc" />
                  <path
                     style="fill:#29560e"
                     d="m 456.21163,589.22544 c 2.10489,-0.34779 5.09113,-0.6373 6.63609,-0.64335 1.59412,-0.006 2.54478,-0.43855 2.19806,-0.99956 -0.82857,-1.34066 2.77817,0.0291 3.72761,1.41561 1.51126,2.20706 0.58456,2.57256 -6.48469,2.55763 -8.44334,-0.0178 -11.94535,-1.36072 -6.07707,-2.33033 z m -2.53663,5.64749 c 2.85461,-2.36912 11.60493,-1.43584 12.12665,1.29338 0.40801,2.13433 0.1098,2.39613 -2.65162,2.32792 -5.60105,-0.13835 -11.12697,-2.25032 -9.47503,-3.6213 z m 34.8637,1.69815 c 0.55,0 0.94671,-0.3375 0.88158,-0.75 -0.43536,-2.7573 2.69069,-4.59971 8.01934,-4.7264 0.77051,-0.0183 1.75138,-0.93112 2.17972,-2.02845 0.43355,-1.11069 0.80995,-1.37204 0.84907,-0.58954 0.12853,2.57028 -4.87192,8.07291 -7.21954,7.94458 -1.21559,-0.0665 -2.99767,0.21322 -3.96017,0.62149 -0.9625,0.40826 -1.75,0.46915 -1.75,0.13531 0,-0.33385 0.45,-0.60699 1,-0.60699 z"
                     id="path3973"
                     inkscape:connector-curvature="0"
                     sodipodi:nodetypes="scscsssssssscsccsss" />
                </g>
              </g>
            </g>
          </g>
        </g>
      </g>
    </g>
  </g>
</svg>
