<?xml version="1.0" encoding="UTF-8" standalone="no"?>
<!-- Created with Inkscape (http://www.inkscape.org/) -->

<svg
   xmlns:dc="http://purl.org/dc/elements/1.1/"
   xmlns:cc="http://creativecommons.org/ns#"
   xmlns:rdf="http://www.w3.org/1999/02/22-rdf-syntax-ns#"
   xmlns:svg="http://www.w3.org/2000/svg"
   xmlns="http://www.w3.org/2000/svg"
   xmlns:sodipodi="http://sodipodi.sourceforge.net/DTD/sodipodi-0.dtd"
   xmlns:inkscape="http://www.inkscape.org/namespaces/inkscape"
   width="101.53857"
   height="97.076614"
   id="svg2"
   version="1.1"
   inkscape:version="0.48.1 r9760"
   sodipodi:docname="O.svg">
  <defs
     id="defs4">
    <inkscape:path-effect
       effect="bend_path"
       id="path-effect4937"
       is_visible="true"
       bendpath="m 548.63472,555.24788 c -2.3874,-0.73528 -5.26132,-3.57033 -7.11995,-4.41328 -13.25748,-6.01267 -24.45832,2.70558 -8.9039,19.12808 15.55441,16.42249 60.11857,-1.11936 65.22508,-43.87331"
       prop_scale="1"
       scale_y_rel="false"
       vertical="false"
       bendpath-nodetypes="cszc" />
  </defs>
  <sodipodi:namedview
     id="base"
     pagecolor="#ffffff"
     bordercolor="#666666"
     borderopacity="1.0"
     inkscape:pageopacity="0.0"
     inkscape:pageshadow="2"
     inkscape:zoom="3.1075445"
     inkscape:cx="10.016127"
     inkscape:cy="30.623542"
     inkscape:document-units="px"
     inkscape:current-layer="layer1"
     showgrid="false"
     inkscape:window-width="1749"
     inkscape:window-height="960"
     inkscape:window-x="0"
     inkscape:window-y="0"
     inkscape:window-maximized="0"
     fit-margin-top="0"
     fit-margin-left="0"
     fit-margin-right="0"
     fit-margin-bottom="0" />
  <metadata
     id="metadata7">
    <rdf:RDF>
      <cc:Work
         rdf:about="">
        <dc:format>image/svg+xml</dc:format>
        <dc:type
           rdf:resource="http://purl.org/dc/dcmitype/StillImage" />
        <dc:title />
      </cc:Work>
    </rdf:RDF>
  </metadata>
  <g
     inkscape:label="Layer 1"
     inkscape:groupmode="layer"
     id="layer1"
     transform="translate(-228.90349,-435.46564)">
    <g
       id="g3969"
       transform="matrix(0.99999459,0.00329107,0.00329107,-0.99999459,-258.44893,1038.5068)"
       inkscape:path-effect="#path-effect4937">
      <path
         style="fill:#cdd2b2"
         d="m 560.87529,515.50364 c 2.13703,1.17773 3.51839,1.97602 4.52179,2.57963 1.00339,0.6036 1.62335,1.00921 2.06693,1.31585 0.44357,0.30664 0.70707,0.51236 0.89523,0.66915 0.18815,0.1568 0.29866,0.26358 0.37865,0.34764 0.15998,0.16814 0.21688,0.25248 0.19746,0.33111 -0.01,0.0393 -0.0433,0.0753 -0.13987,0.10207 -0.0965,0.0268 -0.25399,0.045 -0.56398,0.031 0,0 0,0 0,0 0.094,0.0837 0.12562,0.13878 -0.006,0.11319 -0.28919,-0.0561 -1.35242,-0.48552 -3.23179,-1.27988 -1.87937,-0.79437 -4.5732,-1.95042 -7.85716,-3.32294 -1.84575,-0.43589 -3.76256,-0.65701 -5.50476,-0.69589 -1.7422,-0.0389 -3.30516,0.10098 -4.44277,0.34191 -1.91619,0.4058 -4.27563,0.80281 -7.14681,1.34061 -2.87119,0.5378 -6.25692,1.2155 -10.20882,2.24308 -3.458,0.5196 -7.29052,1.98353 -11.38106,4.77638 -4.09054,2.79284 -8.443,6.91599 -12.78365,12.72318 -2.48992,5.84578 -3.89752,11.28638 -4.10255,16.11583 -0.20503,4.82944 0.79428,9.04865 3.0077,12.40562 2.61825,4.46662 5.51228,8.18115 8.57306,11.05778 2.35256,2.21101 4.77898,3.81337 7.16026,4.91733 4.74438,3.26541 9.8192,5.00522 14.7338,5.40173 5.09197,0.36828 9.66579,-0.45806 13.60991,-2.03182 4.55061,-1.85007 8.38977,-4.42996 11.54061,-7.43324 3.15083,-3.00327 5.61509,-6.42645 7.50223,-9.9242 0,0 0,-10e-6 0,-10e-6 2.34302,-4.38062 3.73003,-8.95233 4.2673,-13.35663 0.53726,-4.40431 0.22748,-8.63686 -0.74204,-12.41107 -1.49779,-5.70959 -4.53228,-10.47315 -8.15505,-14.01664 -2.15926,-2.11201 -3.96593,-3.44889 -5.22682,-4.37813 -1.2609,-0.92924 -1.98724,-1.44986 -2.14322,-1.75907 -0.15598,-0.30921 0.25445,-0.40319 1.21818,-0.3476 0.96372,0.0556 2.47966,0.26531 4.51995,0.63073 1.83024,0.3278 4.12541,1.05054 6.6426,2.33411 2.5172,1.28358 5.25651,3.13973 7.87055,5.68025 2.61404,2.54052 5.09655,5.77109 7.04038,9.61693 1.94384,3.84585 3.3377,8.30605 3.84986,13.08414 0,0 0,0 0,0 0.35152,3.28364 0.29582,6.70489 -0.1928,10.09236 -0.48862,3.38747 -1.41074,6.73916 -2.72042,9.87717 -1.7088,4.0943 -3.98317,8.07343 -6.8005,11.80744 -3.0916,4.23423 -7.00076,8.13071 -11.75089,11.38667 -4.75012,3.25596 -10.341,5.87063 -16.71082,7.62454 -5.7997,1.52484 -12.50117,1.79056 -19.91104,0.4759 -7.31399,-1.37483 -14.55141,-4.77802 -21.24948,-10.22286 -3.09454,-1.5747 -6.32201,-4.26671 -9.50376,-8.13862 -3.18175,-3.8719 -6.31746,-8.9231 -9.25104,-15.11262 -2.75651,-4.75268 -3.76245,-10.77154 -2.95068,-17.84847 0.81177,-7.07693 3.44093,-15.21166 7.88279,-24.18561 6.32255,-7.20237 12.53044,-12.43334 18.44278,-15.81285 5.91235,-3.37952 11.52924,-4.908 16.71169,-4.74961 6.98279,-0.42685 13.0157,-0.044 18.10548,0.93509 2.33231,0.38749 3.85422,0.733 4.9977,0.99222 1.14349,0.25923 1.89992,0.43941 2.55934,0.60656 0.65941,0.16715 1.21974,0.32307 1.91004,0.57805 0.69029,0.25498 1.51574,0.60654 2.62121,1.21545 1.23039,0.67126 2.51793,1.38856 3.79264,2.12043 1.27472,0.73188 2.53782,1.47927 3.65433,2.17379 1.11651,0.69453 2.08768,1.33748 2.69491,1.80683 0.60723,0.46935 0.85168,0.76685 0.41276,0.69404 0.69516,0.23721 0.72817,0.25515 -0.49083,-0.21475 -1.219,-0.4699 -3.68856,-1.42268 -8.21324,-3.30327 z"
         id="path3993"
         inkscape:connector-curvature="0"
         sodipodi:nodetypes="csssssscc"
         inkscape:original-d="m 528.22082,588.03601 c 2.13396,-1.9279 1.33664,-1.08634 2.78318,-2.03415 1.44654,-0.94781 3.22733,-3.15271 3.95729,-4.89977 2.08145,-4.9816 7.1916,-10.16292 15.22422,-15.43626 16.07543,-10.55335 35.99551,-32.35972 48.35319,-52.93188 6.5072,-10.8327 7.36564,-11.19903 6.82583,-2.91287 -0.65054,9.98603 -13.55356,34.67643 -24.59602,47.06538 -17.29969,19.40918 -33.87138,30.35314 -45.42423,31.17203 -2.71984,0.58684 -0.16888,1.43751 -7.12346,-0.0225 z" />
      <path
         style="fill:#b7c7aa"
         d="m 569.28176,520.26979 c -0.10433,0.11779 -0.3621,0.17464 -0.74189,0.18513 0.3915,0.48726 -1.01347,-0.0606 -3.15919,-0.96982 -2.14572,-0.90922 -5.04189,-2.19117 -8.06008,-3.50106 -1.72956,-0.4713 -3.22991,-0.71238 -4.47214,-0.84447 -1.24223,-0.13208 -2.23016,-0.15325 -3.01232,-0.12765 -1.56432,0.0512 -2.30106,0.27977 -2.9252,0.4903 -1.4544,0.49058 -3.55196,0.90442 -6.37269,1.4427 -2.82073,0.53829 -6.37162,1.20018 -10.73664,2.30669 0,0 0,0 0,10e-6 -3.40366,0.49079 -7.23725,1.89619 -11.3843,4.68251 -4.14705,2.78633 -8.61238,6.95612 -13.09911,12.93276 -2.51564,5.88613 -3.95876,11.39506 -4.17781,16.29449 -0.21904,4.89942 0.78806,9.19011 3.04579,12.59861 0,0 0,0 0,0 3.30901,5.61633 7.07437,10.03838 11.03365,13.10418 1.49732,1.15943 3.14774,2.16828 4.87658,2.95147 2.2145,1.50994 4.613,2.76228 7.12328,3.67315 2.51028,0.91086 5.13201,1.47996 7.76736,1.6737 4.94507,0.32144 9.60657,-0.48063 13.66358,-2.09946 4.56837,-1.85756 8.49717,-4.46197 11.70135,-7.44037 3.20418,-2.97839 5.69194,-6.31532 7.58343,-9.56132 2.48259,-4.29052 3.87697,-8.48654 4.54528,-12.02675 0.66831,-3.54021 0.63154,-6.42476 0.33361,-8.37318 -0.14393,-0.94133 -0.4831,-3.08261 -1.1893,-5.51819 0,0 0,0 0,0 -0.60324,-2.04199 -1.4827,-4.29553 -2.51023,-6.32446 -1.11978,-2.21111 -2.69496,-4.56015 -4.33947,-6.47427 -1.6445,-1.91412 -3.33504,-3.39991 -4.46447,-4.26084 -2.10485,-1.60445 -3.24936,-2.47688 -3.50634,-3.01386 -0.25698,-0.53698 0.36401,-0.73557 1.66469,-0.66073 1.30068,0.0748 3.28207,0.42992 5.68174,1.25933 2.39967,0.8294 5.22551,2.14452 8.0797,4.26245 3.45777,2.56583 6.64482,5.96121 9.13028,10.21114 2.48545,4.24993 4.26174,9.35458 4.81692,15.10735 0.472,4.90317 0.0668,10.26123 -1.42232,15.71344 -1.48908,5.45221 -4.06553,10.99302 -7.81604,16.1947 0,10e-6 -1e-5,10e-6 -1e-5,10e-6 -2.91254,4.17249 -6.6815,8.10787 -11.38798,11.43866 -4.70647,3.33078 -10.3522,6.05312 -16.8918,7.86196 -5.75375,1.51981 -12.45124,1.79346 -19.88667,0.44616 -7.26974,-1.3933 -14.48143,-4.82377 -21.1217,-10.30135 -3.05594,-1.61157 -6.2327,-4.3506 -9.33219,-8.25031 -3.0995,-3.89971 -6.12091,-8.95982 -8.88748,-15.06762 -2.66797,-4.7476 -3.55355,-10.72913 -2.65478,-17.6693 0.89877,-6.94016 3.58145,-14.83838 7.94533,-23.39898 8.55459,-9.52648 16.75774,-15.231 24.16912,-17.71666 2.15032,-0.72118 4.04344,-1.11486 5.71794,-1.31907 1.6745,-0.20422 3.13056,-0.21832 4.40502,-0.13794 2.5754,-0.0575 4.3059,0.0176 5.52953,0.0976 1.22363,0.0799 1.93586,0.17019 2.38001,0.23528 0.8883,0.13019 0.70148,0.16402 1.04383,0.0996 0.17118,-0.0322 0.47386,-0.0889 1.09811,-0.15685 0.62426,-0.0679 1.57343,-0.15021 2.99899,-0.18881 1.42555,-0.0386 3.33455,-0.0382 5.7638,0.16383 2.42925,0.20203 5.39245,0.60059 8.65982,1.53766 0.73546,0.31204 1.49099,0.66597 2.23641,1.05671 0,0 0,0 0,0 2.10247,1.12634 3.96022,2.15269 5.48641,3.02435 1.52619,0.87166 2.72083,1.58825 3.57218,2.13093 0.85135,0.54267 1.36015,0.91146 1.58409,1.12615 0.22394,0.2147 0.16443,0.27586 -0.0676,0.23769 0.40732,0.13869 0.49421,0.18062 0.45616,0.19458 -0.038,0.014 -0.19404,0.003 -0.30464,0.0306 -0.1106,0.0277 -0.16708,0.0978 -0.1561,0.218 0.011,0.12025 0.0997,0.29387 -0.0135,0.41948 z"
         id="path3991"
         inkscape:connector-curvature="0"
         sodipodi:nodetypes="cssssssscc"
         inkscape:original-d="m 530.21282,587.11286 c 4.06153,-3.33349 4.52049,-4.57957 4.83124,-5.55867 1.44172,-4.54244 7.03435,-10.16508 16.19826,-16.28517 9.26602,-6.18829 30.00293,-26.25339 35.19568,-34.05546 0.88039,-1.32277 3.8892,-5.72096 6.68625,-9.77376 2.79705,-4.0528 6.32731,-9.50622 7.84502,-12.11872 5.65693,-9.73751 6.4792,-0.97504 1.12764,12.01654 -13.00933,31.58175 -44.88786,64.23346 -62.71244,64.23346 -5.1327,0 0.28396,-1.84932 -5.95727,2.49899 -1.72112,0.19143 -4.60614,0.0733 -3.21438,-0.95721 z" />
      <path
         style="fill:#a2ab92"
         d="m 567.06254,519.86631 c -1.05661,-0.46012 -2.51956,-1.13436 -4.16903,-1.89505 -1.64946,-0.76068 -3.48643,-1.6089 -5.35678,-2.46377 0,0 0,0 0,0 -2.2215,-0.72508 -3.95991,-1.04222 -5.17907,-1.21474 -1.21917,-0.17252 -1.93363,-0.19175 -2.31908,-0.15608 -0.77092,0.0714 -0.25111,0.37769 -0.32734,0.62136 -0.11743,0.37539 -0.6318,0.67463 -1.51803,0.93041 -0.88623,0.25579 -2.14609,0.4689 -3.78966,0.71034 -3.28714,0.48287 -8.13118,1.05772 -14.62214,2.61657 0,0 0,0 0,0 -3.51697,0.46548 -7.44851,1.91305 -11.64328,4.74187 -4.19477,2.82882 -8.65474,7.0408 -13.0762,12.92464 -2.5951,6.07309 -4.02818,11.68246 -4.21743,16.61308 -0.18925,4.93062 0.86546,9.18278 3.10307,12.53823 3.17273,5.34042 6.67479,9.47976 10.25745,12.4342 1.91531,1.57946 3.86126,2.77873 5.77674,3.65686 4.80701,3.30457 9.94327,5.06851 14.91753,5.47471 5.15038,0.37682 9.7705,-0.44787 13.75149,-2.02312 4.60462,-1.85771 8.48587,-4.44351 11.67322,-7.44395 3.18735,-3.00045 5.68287,-6.41162 7.60271,-9.88608 2.42326,-4.41712 3.86946,-9.00904 4.47092,-13.40529 0.60145,-4.39625 0.36145,-8.59206 -0.50399,-12.31072 -1.0289,-4.32924 -2.92132,-8.0788 -5.20886,-11.12657 -2.28754,-3.04777 -4.96535,-5.39568 -7.67545,-7.12198 -2.1173,-1.34868 -2.99898,-1.98516 -2.89589,-2.32552 0.10309,-0.34036 1.18173,-0.37299 2.87515,-0.13526 1.69341,0.23773 4.00234,0.75957 6.51081,1.71531 2.50847,0.95573 5.21849,2.36018 7.6305,4.33493 3.08851,2.52861 5.91734,5.80401 8.11266,9.84306 2.19532,4.03905 3.75165,8.8421 4.2195,14.23852 0.4111,4.7613 -0.0152,9.97438 -1.49247,15.30146 -1.47723,5.32707 -4.00859,10.76325 -7.70598,15.89558 -2.83876,4.06126 -6.49757,7.91837 -11.08017,11.21251 -4.58261,3.29415 -10.09074,6.02182 -16.52446,7.86619 -1e-5,0 -1e-5,0 -1e-5,0 -5.59102,1.53371 -12.11824,1.89288 -19.43299,0.65583 -7.08042,-1.27211 -14.17673,-4.50506 -20.79632,-9.81815 -3.04704,-1.52549 -6.23786,-4.12245 -9.39465,-7.89196 -3.15679,-3.76951 -6.27889,-8.71182 -9.20169,-14.81194 -2.70111,-4.62901 -3.71363,-10.49857 -2.94586,-17.41322 0.76778,-6.91465 3.3158,-14.87407 7.65433,-23.66212 6.15975,-7.04504 12.2267,-12.17291 18.01199,-15.48823 5.7853,-3.31533 11.28887,-4.8185 16.36507,-4.671 6.63511,-0.41328 12.39319,-0.0692 17.26973,0.8329 4.87655,0.90215 8.87244,2.36181 12.05684,4.18478 0.35794,0.19815 0.70579,0.39183 1.04369,0.58103 1.37184,0.56278 2.74074,1.176 3.9565,1.75389 1.21576,0.57788 2.27715,1.11951 3.11756,1.57765 0.84041,0.45815 1.46071,0.83293 1.88053,1.12202 0.41981,0.2891 0.64187,0.49379 0.74501,0.64636 0.10314,0.15257 0.0916,0.25542 0.0509,0.34752 -0.0407,0.0921 -0.105,0.17675 -0.17499,0.25632 -0.07,0.0796 -0.13879,0.15765 -0.34963,0.14766 -0.21083,-0.01 -0.5552,-0.1051 -1.45248,-0.51104 0,0 0,0 0,0 z"
         id="path3989"
         inkscape:connector-curvature="0"
         sodipodi:nodetypes="csssscc"
         inkscape:original-d="m 531.6134,586.21996 c 3.57499,-2.646 2.92528,-2.63423 2.92529,-3.22744 4e-5,-3.55397 6.83441,-10.79841 16.30466,-17.28294 18.04014,-12.35257 40.96653,-38.34129 51.06731,-57.8885 4.88631,-9.45607 4.63287,3.34695 -0.2882,14.55916 -14.25699,32.48324 -50.6176,66.64428 -68.82335,64.5645 -1.02746,1.32147 -2.93494,0.45599 -1.18571,-0.72478 z" />
      <path
         style="fill:#8b976e"
         d="m 547.41887,515.3253 c -2.37617,0.31722 -4.98883,0.70364 -7.90923,1.23528 -2.9204,0.53165 -6.14938,1.20748 -9.75442,2.14845 -3.60602,0.54159 -7.5344,2.07666 -11.70679,4.94346 -4.1724,2.86679 -8.59432,7.06639 -13.03633,12.9934 -2.52727,5.93546 -3.98454,11.47885 -4.21826,16.42899 -0.23372,4.95014 0.75963,9.3086 3.05771,12.78773 0,0 0,10e-6 1e-5,10e-6 1.86837,3.18552 3.88657,6.02706 6.03532,8.46214 2.14875,2.43509 4.42941,4.46228 6.77631,6.04806 1.00987,0.68235 2.04413,1.27231 3.08925,1.76861 4.60976,3.24096 9.81052,5.17158 15.0203,5.59849 5.06383,0.37126 9.77426,-0.43177 13.87818,-2.08625 4.47677,-1.84075 8.35779,-4.42006 11.56886,-7.46598 3.21108,-3.04593 5.75489,-6.55228 7.70505,-10.14525 2.37983,-4.41638 3.81689,-9.03122 4.414,-13.44169 0.5971,-4.41047 0.35914,-8.60898 -0.47821,-12.2939 -0.98145,-4.22773 -2.76322,-7.84367 -4.83595,-10.73358 -2.07273,-2.8899 -4.43008,-5.05816 -6.68315,-6.61132 -1.37475,-0.94768 -2.39707,-1.61995 -3.08059,-2.12382 -0.68352,-0.50386 -1.02946,-0.83884 -1.07592,-1.06509 -0.0929,-0.4525 1.01588,-0.49743 2.90584,-0.18681 1.88995,0.31062 4.56312,0.99992 7.50125,2.30946 2.93813,1.30954 6.145,3.26308 8.94452,6.04098 2.70871,2.68779 5.08612,5.91678 6.91182,9.64548 1.8257,3.72869 3.09744,7.95671 3.57813,12.56214 0.51561,4.95295 0.12824,10.33142 -1.34871,15.78063 -1.47695,5.44921 -4.04623,10.9648 -7.79305,16.13487 0,0 0,0 0,10e-6 -2.89787,4.1295 -6.64597,8.02115 -11.33652,11.31528 -4.69055,3.29414 -10.32502,5.98779 -16.88878,7.76405 -5.68859,1.4699 -12.32084,1.72622 -19.73367,0.35333 0,0 -10e-6,0 -10e-6,0 -7.14119,-1.3962 -14.26895,-4.77769 -20.88635,-10.25721 -2.96979,-1.58766 -6.0798,-4.25096 -9.15239,-8.08751 -3.07259,-3.83655 -6.10718,-8.84654 -8.93217,-15.02324 -2.60301,-4.60513 -3.54335,-10.42385 -2.72071,-17.271 0.82264,-6.84714 3.40826,-14.72245 7.78922,-23.41932 10.14082,-11.41466 20.02148,-17.63759 28.85815,-19.11854 1.76649,-0.29604 3.47752,-0.40407 5.12702,-0.33886 4.39196,-0.21762 8.26353,-0.1147 11.60976,0.18808 3.34623,0.30278 6.1684,0.80404 8.50816,1.37051 4.67952,1.13293 7.45153,2.49731 8.76973,3.17941 0.8396,0.44759 1.42013,0.76161 1.78467,0.95997 0.36454,0.19835 0.51379,0.28145 0.4498,0.24898 -0.17834,-0.0905 -0.96106,-0.37979 -2.37796,-0.89256 -0.87265,-0.0943 -2.26619,-0.18985 -4.04427,-0.17236 -1.77807,0.0175 -3.94351,0.15329 -6.28962,0.46649 0,0 0,0 0,0 z"
         id="path3987"
         inkscape:connector-curvature="0"
         sodipodi:nodetypes="ssssscs"
         inkscape:original-d="m 534.95431,581.8458 c 3.03643,-5.98365 7.8672,-10.71092 17.08439,-16.71836 14.6341,-9.53801 40.43606,-38.86182 49.10387,-55.80636 6.39504,-12.50152 5.56087,2.18363 -0.90638,15.95633 -14.78974,31.49637 -42.06652,58.24458 -61.44048,60.24985 -3.44135,0.35619 -6.19593,0.62427 -6.12128,0.59572 0.0747,-0.0285 1.1006,-1.95328 2.27988,-4.27718 z" />
      <path
         style="fill:#708855"
         d="m 543.30967,515.26864 c -4.12803,0.81263 -8.44524,1.79693 -13.57183,3.23716 -3.45821,0.57857 -7.23733,2.0333 -11.38279,4.83938 -4.14546,2.80607 -8.67165,6.96339 -13.40363,13.2569 -2.41919,5.66083 -3.93769,11.11231 -4.24564,16.10639 -0.30796,4.99409 0.60223,9.53441 3.00959,13.19591 0,0 0,0 0,0 1.65532,2.8406 3.46725,5.46916 5.43511,7.79341 1.96786,2.32425 4.09323,4.34227 6.33371,5.97555 1.40414,1.0236 2.82179,1.8524 4.22746,2.50672 4.80736,3.34546 9.98887,5.17603 15.04051,5.61528 5.18166,0.40611 9.85978,-0.39336 13.89884,-1.97067 4.62994,-1.84496 8.55526,-4.42632 11.78397,-7.43678 3.2287,-3.01046 5.76302,-6.44556 7.71003,-9.95187 0,0 0,-10e-6 0,-10e-6 2.457,-4.4506 3.92598,-9.08534 4.53544,-13.51929 0.60946,-4.43396 0.36316,-8.66162 -0.51417,-12.39761 -0.68046,-2.83939 -1.73309,-5.42667 -3.019,-7.71773 -1.2859,-2.29107 -2.80421,-4.28599 -4.43221,-5.98179 -2.17088,-2.26129 -4.03307,-3.74232 -5.3872,-4.79111 -1.35414,-1.0488 -2.21055,-1.66555 -2.52872,-2.04766 -0.31818,-0.38211 -0.10209,-0.52737 0.63357,-0.49944 0.73567,0.0279 1.99008,0.23218 3.72691,0.64146 2.47543,0.58334 5.06054,1.4816 7.63761,2.85154 2.57706,1.36993 5.14708,3.21474 7.51435,5.63585 2.36727,2.42111 4.53066,5.42064 6.21726,9.0042 1.6866,3.58357 2.89323,7.75169 3.30238,12.3942 0.41767,4.75511 0.008,9.99988 -1.47293,15.38361 -1.48048,5.38373 -4.03555,10.90051 -7.78664,16.10773 0,0 0,0 0,0 -2.86776,4.1072 -6.57385,8.00511 -11.21386,11.32214 -4.64001,3.31703 -10.2161,6.04892 -16.69849,7.87838 -5.67362,1.53078 -12.28621,1.84599 -19.64527,0.55438 -7.18163,-1.33583 -14.32856,-4.67995 -20.92648,-10.06515 -3.05807,-1.5832 -6.2389,-4.27629 -9.34576,-8.12365 -3.10686,-3.84736 -6.13889,-8.84888 -8.92006,-14.90072 -2.66813,-4.70419 -3.57327,-10.63758 -2.70511,-17.52989 0.86816,-6.89231 3.50922,-14.74296 7.82599,-23.25958 6.28277,-7.03383 12.38833,-11.99276 18.1228,-15.10305 5.73448,-3.11028 11.09797,-4.37297 15.96117,-4.08578 0.44386,-0.0119 0.88285,-0.0202 1.31698,-0.0248 9.64425,-0.10353 17.59478,1.31255 23.72804,3.90704 -3.4136,0.0603 -7.04488,0.46765 -10.76193,1.19938 z"
         id="path3985"
         inkscape:connector-curvature="0"
         sodipodi:nodetypes="ssssscs"
         inkscape:original-d="m 535.74484,581.07108 c 2.89959,-5.74473 6.17826,-8.963 15.79386,-15.5029 15.56548,-10.58661 35.74927,-32.68746 46.53851,-50.95872 6.5817,-11.14592 7.99068,-12.15086 7.06408,-5.03838 -3.75995,28.86114 -46.63139,77.24068 -67.1685,75.79828 l -4.2469,-0.29828 z" />
      <path
         style="fill:#65774c"
         d="m 543.32931,515.27192 c -3.9003,0.76715 -8.32517,1.70508 -13.59707,3.16835 -3.55767,0.58454 -7.44649,2.12002 -11.61901,4.99616 -4.17252,2.87614 -8.63636,7.09377 -13.17303,13.15755 -2.49212,5.86766 -3.96699,11.39412 -4.22339,16.36593 -0.25639,4.97181 0.71012,9.39115 3.03752,12.93252 1e-5,0 1e-5,0 1e-5,0 1.7079,2.93221 3.55108,5.59696 5.52025,7.93061 1.96917,2.33365 4.06547,4.33503 6.24291,5.95735 1.35059,1.00627 2.72547,1.83254 4.09863,2.49014 4.73841,3.35308 9.93389,5.25896 15.0609,5.72723 5.15898,0.42686 9.87847,-0.34605 13.97409,-1.94087 4.5786,-1.81999 8.51063,-4.38261 11.76132,-7.40866 3.25069,-3.02605 5.82191,-6.51119 7.7952,-10.10023 2.39486,-4.37966 3.86174,-8.97884 4.47816,-13.43053 0.61642,-4.45169 0.38548,-8.75038 -0.51112,-12.59253 -1.39944,-5.87586 -4.38232,-10.77676 -7.9258,-14.39955 -2.09636,-2.14327 -3.86862,-3.51545 -5.13662,-4.47456 -1.268,-0.95912 -2.04269,-1.50437 -2.29996,-1.82912 -0.25727,-0.32474 -9.7e-4,-0.42553 0.74294,-0.36555 0.74391,0.06 1.97449,0.28482 3.64861,0.68346 2.44409,0.58198 4.99723,1.47786 7.54308,2.84181 2.54585,1.36395 5.0854,3.19913 7.42518,5.60551 2.33978,2.40639 4.47871,5.38608 6.14676,8.94483 1.66804,3.55876 2.86211,7.6971 3.26734,12.30672 0.41394,4.72661 0.007,9.94194 -1.46204,15.29891 -1.46945,5.35698 -4.00601,10.84978 -7.73355,16.03894 0,0 0,0 -10e-6,10e-6 -2.84846,4.08869 -6.52792,7.97344 -11.13647,11.28411 -4.60855,3.31066 -10.14832,6.04302 -16.59502,7.87918 -5.63674,1.53563 -12.20829,1.86885 -19.52926,0.60317 -7.13859,-1.30913 -14.253,-4.61153 -20.83161,-9.95266 -3.05716,-1.56827 -6.23902,-4.23597 -9.35129,-8.05568 -3.11227,-3.81972 -6.15412,-8.79143 -8.95146,-14.82241 -2.66962,-4.6785 -3.59165,-10.58446 -2.74524,-17.45681 0.84642,-6.87234 3.46094,-14.71052 7.75887,-23.23135 6.24583,-7.02236 12.32754,-11.99389 18.05067,-15.12608 5.72313,-3.13218 11.08777,-4.42597 15.96226,-4.16364 2.30707,-0.076 4.48533,-0.0533 6.53622,0.0558 7.34652,0.39088 13.54259,1.74832 18.5274,3.88499 -3.41176,0.0596 -7.04116,0.4662 -10.75637,1.19695 z"
         id="path3983"
         inkscape:connector-curvature="0"
         sodipodi:nodetypes="ssssscs"
         inkscape:original-d="m 535.74102,581.07108 c 2.87383,-5.69539 7.1932,-9.91222 15.83677,-15.46082 14.42726,-9.26133 34.79145,-31.60092 47.09406,-51.66234 6.50969,-10.61514 7.36489,-11.18887 6.45511,-4.33062 -3.82697,28.8491 -47.55788,77.61438 -67.94522,75.76719 l -3.45908,-0.31341 z" />
      <path
         style="fill:#5e892d"
         d="m 542.67107,515.16611 c -3.8333,0.89378 -7.94013,1.89173 -12.93457,3.32397 -3.39091,0.58444 -7.13857,2.00832 -11.28732,4.79917 -4.14875,2.79085 -8.71335,6.94805 -13.50818,13.30531 -2.42528,5.6537 -3.95798,11.10878 -4.28067,16.11024 -0.32269,5.00145 0.57177,9.5529 2.96508,13.22717 0,0 1e-5,0 1e-5,0 3.10404,5.39442 6.79042,10.02857 10.93173,13.31368 1.64738,1.30679 3.31575,2.33348 4.96454,3.11433 4.83593,3.40602 10.0397,5.27517 15.11404,5.74905 5.22853,0.44329 9.94408,-0.33147 14.01547,-1.89454 4.67152,-1.83141 8.63418,-4.40714 11.89535,-7.42468 3.26116,-3.01754 5.82263,-6.47316 7.78627,-10.01803 0,0 0,-1e-5 0,-1e-5 2.44535,-4.43526 3.91868,-9.0766 4.52182,-13.55502 0.60314,-4.47841 0.33903,-8.78912 -0.60114,-12.63707 -0.78685,-3.15783 -2.03914,-6.04049 -3.59626,-8.58294 -1.3962,-2.27973 -2.81225,-4.06041 -4.10389,-5.4929 -1.29164,-1.4325 -2.46269,-2.51739 -3.45757,-3.3729 -1.98977,-1.71103 -3.2614,-2.53476 -3.8187,-3.00923 -0.5573,-0.47446 -0.41828,-0.58007 0.24722,-0.5121 0.6655,0.068 1.85326,0.32549 3.37241,0.64301 2.36658,0.49463 4.87358,1.30179 7.4021,2.58806 2.52851,1.28627 5.07997,3.05557 7.45052,5.42427 2.37055,2.36869 4.55919,5.33953 6.27354,8.92777 1.71435,3.58824 2.95092,7.79471 3.36292,12.50659 0.40861,4.69274 0.008,9.88059 -1.44988,15.21865 -1.4578,5.33805 -3.97702,10.8204 -7.68628,16.00633 0,0 -10e-6,10e-6 -10e-6,10e-6 -2.83194,4.08062 -6.49023,7.96314 -11.07475,11.27677 -4.58452,3.31364 -10.09748,6.05405 -16.51587,7.90309 -5.61618,1.54824 -12.16531,1.90034 -19.46263,0.65946 -7.12335,-1.28639 -14.22633,-4.56189 -20.7964,-9.86981 -3.06929,-1.55907 -6.26233,-4.21702 -9.38378,-8.02444 -3.12146,-3.80742 -6.17048,-8.76426 -8.97341,-14.77181 -2.68138,-4.68061 -3.60872,-10.59096 -2.76761,-17.46333 0.84112,-6.87237 3.45028,-14.70618 7.73221,-23.21159 6.26099,-7.05083 12.3516,-12.02975 18.07473,-15.16225 5.72313,-3.1325 11.07891,-4.41968 15.93702,-4.16044 2.8481,-0.0954 5.4956,-0.0395 7.9463,0.14358 6.15257,0.45962 11.45504,1.61598 15.87315,3.35044 -3.26551,0.23047 -6.69181,0.76173 -10.16751,1.57214 z"
         id="path3981"
         inkscape:connector-curvature="0"
         sodipodi:nodetypes="ssssscs"
         inkscape:original-d="m 535.86826,581.07108 c 2.62872,-5.63899 5.97222,-8.9214 15.3303,-15.05021 14.06595,-9.21209 31.34091,-27.47197 43.33564,-45.80639 11.70625,-17.89345 10.93228,-17.0823 10.38488,-10.88376 -2.42381,27.4461 -47.85299,78.29498 -67.9601,76.06773 l -2.9554,-0.32737 z" />
      <path
         style="fill:#596c46"
         d="m 542.67107,515.16611 c -3.8333,0.89378 -7.94013,1.89173 -12.93457,3.32397 -3.39091,0.58444 -7.13857,2.00832 -11.28732,4.79917 -4.14875,2.79085 -8.71335,6.94805 -13.50818,13.30531 -2.42528,5.6537 -3.95798,11.10878 -4.28067,16.11024 -0.32269,5.00145 0.57177,9.5529 2.96508,13.22717 0,0 1e-5,0 1e-5,0 3.10404,5.39442 6.79042,10.02857 10.93173,13.31368 1.64738,1.30679 3.31575,2.33348 4.96454,3.11433 4.83593,3.40602 10.0397,5.27517 15.11404,5.74905 5.22853,0.44329 9.94408,-0.33147 14.01547,-1.89454 4.67152,-1.83141 8.63418,-4.40714 11.89535,-7.42468 3.26116,-3.01754 5.82263,-6.47316 7.78627,-10.01803 0,0 0,-1e-5 0,-1e-5 2.44535,-4.43526 3.91868,-9.0766 4.52182,-13.55502 0.60314,-4.47841 0.33903,-8.78912 -0.60114,-12.63707 -0.78685,-3.15783 -2.03914,-6.04049 -3.59626,-8.58294 -1.3962,-2.27973 -2.81225,-4.06041 -4.10389,-5.4929 -1.29164,-1.4325 -2.46269,-2.51739 -3.45757,-3.3729 -1.98977,-1.71103 -3.2614,-2.53476 -3.8187,-3.00923 -0.5573,-0.47446 -0.41828,-0.58007 0.24722,-0.5121 0.6655,0.068 1.85326,0.32549 3.37241,0.64301 2.36658,0.49463 4.87358,1.30179 7.4021,2.58806 2.52851,1.28627 5.07997,3.05557 7.45052,5.42427 2.37055,2.36869 4.55919,5.33953 6.27354,8.92777 1.71435,3.58824 2.95092,7.79471 3.36292,12.50659 0.40861,4.69274 0.008,9.88059 -1.44988,15.21865 -1.4578,5.33805 -3.97702,10.8204 -7.68628,16.00633 0,0 -10e-6,10e-6 -10e-6,10e-6 -2.83194,4.08062 -6.49023,7.96314 -11.07475,11.27677 -4.58452,3.31364 -10.09748,6.05405 -16.51587,7.90309 -5.61618,1.54824 -12.16531,1.90034 -19.46263,0.65946 -7.12335,-1.28639 -14.22633,-4.56189 -20.7964,-9.86981 -3.06929,-1.55907 -6.26233,-4.21702 -9.38378,-8.02444 -3.12146,-3.80742 -6.17048,-8.76426 -8.97341,-14.77181 -2.68138,-4.68061 -3.60872,-10.59096 -2.76761,-17.46333 0.84112,-6.87237 3.45028,-14.70618 7.73221,-23.21159 6.26099,-7.05083 12.3516,-12.02975 18.07473,-15.16225 5.72313,-3.1325 11.07891,-4.41968 15.93702,-4.16044 2.8481,-0.0954 5.4956,-0.0395 7.9463,0.14358 6.15257,0.45962 11.45504,1.61598 15.87315,3.35044 -3.26551,0.23047 -6.69181,0.76173 -10.16751,1.57214 z m -48.13933,52.46226 c 0.16898,0.31458 0.34658,0.62437 0.53287,0.92907 1.44293,2.78824 2.99699,5.39548 4.58957,7.69621 1.59258,2.30072 3.22281,4.29588 4.81413,5.95465 1.59131,1.65876 3.14292,2.98312 4.58717,4.01413 1.44425,1.03101 2.7808,1.77099 3.9597,2.30013 2.11531,1.56144 3.9941,2.66801 5.48716,3.43434 1.07969,0.55417 1.74688,0.822 2.02844,0.8991 0.28157,0.0771 0.17795,-0.0383 -0.27607,-0.34006 -0.45401,-0.30173 -1.25864,-0.79089 -2.3725,-1.52911 -1.11385,-0.73822 -2.53747,-1.72621 -4.21697,-3.07997 0,0 0,0 0,0 -1.25365,-0.68536 -2.8061,-1.66098 -4.63897,-3.18855 -1.83287,-1.52756 -3.94767,-3.6068 -6.27729,-6.60558 -2.22957,-2.87 -4.37188,-6.24815 -6.34371,-9.96645 -2.85455,-4.59738 -3.67698,-10.41609 -2.96023,-16.6436 0.71676,-6.22752 2.95948,-12.857 5.7877,-19.02943 0,0 0,0 0,0 5.0496,-6.21715 9.11559,-9.73763 11.76614,-11.84179 1.32528,-1.05208 2.30218,-1.74667 2.89457,-2.1779 0.59239,-0.43123 0.80078,-0.60149 0.58795,-0.51543 -0.23869,0.0965 -0.79311,0.38937 -1.63355,0.91175 -0.84044,0.52239 -1.96722,1.27591 -3.34837,2.33399 -2.7623,2.11616 -6.55451,5.45823 -11.01886,10.74636 -3.02126,6.30947 -5.38231,13.0356 -6.22263,19.25724 -0.42016,3.11082 -0.46885,6.09758 -0.0985,8.86585 0.37037,2.76827 1.15974,5.31772 2.37224,7.57505 z"
         id="path3979"
         inkscape:connector-curvature="0"
         sodipodi:nodetypes="ssssscssssss"
         inkscape:original-d="m 535.86826,581.07108 c 2.62872,-5.63899 5.97222,-8.9214 15.3303,-15.05021 14.06595,-9.21209 31.34091,-27.47197 43.33564,-45.80639 11.70625,-17.89345 10.93228,-17.0823 10.38488,-10.88376 -2.42381,27.4461 -47.85299,78.29498 -67.9601,76.06773 l -2.9554,-0.32737 z m 10.22066,-2.61111 c 3.08318,-1.86389 7.03318,-4.63282 8.77778,-6.15318 1.7446,-1.52035 -0.95796,-0.17531 -6.00569,2.98898 -5.04773,3.16429 -8.99773,5.93322 -8.77777,6.15318 0.21995,0.21995 2.92251,-1.12508 6.00568,-2.98898 z" />
      <path
         style="fill:#506c32"
         d="m 539.51993,515.7685 c -2.8975,0.8135 -6.00307,1.66666 -9.77875,2.77637 -3.18019,0.56805 -6.77731,1.8571 -10.90968,4.55621 -4.13238,2.69912 -8.82264,6.80458 -13.89463,13.4905 -2.38365,5.5174 -3.9533,10.93282 -4.31582,15.95534 -0.36252,5.02253 0.4908,9.65663 2.92527,13.4093 0,0 1e-5,10e-6 1e-5,10e-6 1.75499,3.06711 3.70426,5.91417 5.84523,8.40717 2.14097,2.49301 4.4762,4.62892 6.94028,6.29646 1.02406,0.69302 2.06192,1.28635 3.10175,1.78357 4.73639,3.35738 9.97115,5.29771 15.16346,5.76981 5.17079,0.42527 9.92433,-0.34823 14.05416,-1.96116 0,0 0,0 10e-6,0 4.57928,-1.8262 8.52583,-4.39609 11.79131,-7.43374 3.26547,-3.03765 5.85196,-6.53819 7.83749,-10.14095 2.41245,-4.39944 3.89243,-9.01501 4.52309,-13.46957 0.63065,-4.45456 0.41555,-8.74196 -0.44897,-12.55825 -0.77357,-3.34572 -2.05647,-6.37069 -3.64142,-8.99764 -1.58496,-2.62695 -3.46993,-4.85584 -5.47002,-6.68235 -2.03474,-1.85815 -4.22488,-3.45351 -6.5068,-4.75669 1.36397,0.16499 2.72964,0.31813 4.09684,0.4594 2.11542,0.21859 4.46609,0.76645 6.92655,1.83394 2.46045,1.06748 5.03363,2.6613 7.48307,4.94614 2.44944,2.28483 4.77461,5.26605 6.60829,8.98927 1.83368,3.72322 3.17097,8.19058 3.55469,13.27124 0.34807,4.63028 -0.0884,9.76255 -1.56771,15.05812 -1.47928,5.29557 -4.00585,10.74851 -7.72002,15.91728 -10e-6,1e-5 -10e-6,1e-5 -10e-6,1e-5 -2.82399,4.04846 -6.46405,7.90871 -11.02468,11.21047 -4.56063,3.30177 -10.04415,6.0406 -16.43407,7.89606 -5.58525,1.55262 -12.09998,1.92233 -19.36551,0.70754 -7.09125,-1.26056 -14.17122,-4.49811 -20.72894,-9.76428 -3.07642,-1.54499 -6.27802,-4.18253 -9.41023,-7.96765 -3.13221,-3.78512 -6.19418,-8.71783 -9.01342,-14.70292 -2.69223,-4.66969 -3.63443,-10.57081 -2.80949,-17.43716 0.82493,-6.86636 3.41662,-14.69738 7.68071,-23.20439 6.25411,-7.06916 12.34156,-12.06576 18.063,-15.21514 5.72144,-3.14939 11.07702,-4.45266 15.93566,-4.21032 0.58463,-0.022 1.16084,-0.0376 1.72864,-0.047 3.3172,-0.0551 6.03207,0.075 8.28048,0.28048 2.24842,0.20544 4.03012,0.48704 5.44476,0.77908 2.8293,0.58408 4.21736,1.18567 4.59067,1.65356 0.37331,0.4679 -0.28327,0.81133 -1.88263,1.22315 -1.59936,0.41182 -4.16682,0.90006 -7.65262,1.87873 z m -44.98819,51.85987 c 0.16898,0.31458 0.34658,0.62437 0.53287,0.92907 1.44293,2.78824 2.99699,5.39548 4.58957,7.69621 1.59258,2.30072 3.22281,4.29588 4.81413,5.95465 1.59131,1.65876 3.14292,2.98312 4.58717,4.01413 1.44425,1.03101 2.7808,1.77099 3.9597,2.30013 2.11531,1.56144 3.9941,2.66801 5.48716,3.43434 1.07969,0.55417 1.74688,0.822 2.02844,0.8991 0.28157,0.0771 0.17795,-0.0383 -0.27607,-0.34006 -0.45401,-0.30173 -1.25864,-0.79089 -2.3725,-1.52911 -1.11385,-0.73822 -2.53747,-1.72621 -4.21697,-3.07997 0,0 0,0 0,0 -1.25365,-0.68536 -2.8061,-1.66098 -4.63897,-3.18855 -1.83287,-1.52756 -3.94767,-3.6068 -6.27729,-6.60558 -2.22957,-2.87 -4.37188,-6.24815 -6.34371,-9.96645 -2.85455,-4.59738 -3.67698,-10.41609 -2.96023,-16.6436 0.71676,-6.22752 2.95948,-12.857 5.7877,-19.02943 0,0 0,0 0,0 5.0496,-6.21715 9.11559,-9.73763 11.76614,-11.84179 1.32528,-1.05208 2.30218,-1.74667 2.89457,-2.1779 0.59239,-0.43123 0.80078,-0.60149 0.58795,-0.51543 -0.23869,0.0965 -0.79311,0.38937 -1.63355,0.91175 -0.84044,0.52239 -1.96722,1.27591 -3.34837,2.33399 -2.7623,2.11616 -6.55451,5.45823 -11.01886,10.74636 -3.02126,6.30947 -5.38231,13.0356 -6.22263,19.25724 -0.42016,3.11082 -0.46885,6.09758 -0.0985,8.86585 0.37037,2.76827 1.15974,5.31772 2.37224,7.57505 z"
         id="path3977"
         inkscape:connector-curvature="0"
         sodipodi:nodetypes="ssscssssssss"
         inkscape:original-d="m 536.43456,580.07108 c 2.29274,-4.95208 5.38673,-7.82878 15.60414,-14.50829 14.48045,-9.46643 36.05563,-33.4529 47.59716,-52.91674 l 4.40284,-7.42504 0.3045,4.11364 c 1.65869,22.40831 -45.24558,76.23643 -66.43023,76.23643 -3.90164,0 -3.94689,-0.16833 -1.47841,-5.5 z m 9.65436,-1.61111 c 3.08318,-1.86389 7.03318,-4.63282 8.77778,-6.15318 1.7446,-1.52035 -0.95796,-0.17531 -6.00569,2.98898 -5.04773,3.16429 -8.99773,5.93322 -8.77777,6.15318 0.21995,0.21995 2.92251,-1.12508 6.00568,-2.98898 z" />
      <path
         style="fill:#475832"
         d="m 541.98517,514.92595 c -1.73571,0.60712 -3.45305,1.19581 -5.40273,1.80422 -1.94968,0.6084 -4.13107,1.23331 -6.82439,2.01196 -2.89621,0.5058 -6.31438,1.59769 -10.43788,4.16444 -2.06176,1.28337 -4.29816,2.94496 -6.70477,5.15887 -2.40661,2.21391 -4.98505,4.98013 -7.68945,8.51824 -2.36323,5.41997 -3.96612,10.81505 -4.35793,15.85707 -0.39182,5.04202 0.43743,9.73559 2.90329,13.53848 2.10562,3.68296 4.50889,7.0615 7.19292,9.88382 2.68404,2.82232 5.65592,5.07918 8.74642,6.6021 4.05694,2.92389 8.62368,5.01022 13.49783,5.94404 0.49765,0.0954 1.00649,0.17719 1.52526,0.24404 2.27966,0.27492 4.68332,0.30322 7.09126,0.0212 2.40794,-0.28206 4.81936,-0.8755 7.12653,-1.77657 4.2007,-1.67684 8.15769,-4.15297 11.51456,-7.26597 3.35688,-3.113 6.11394,-6.8553 8.20363,-10.7941 2.30928,-4.37245 3.7671,-9.03672 4.37244,-13.55549 0.60533,-4.51878 0.36408,-8.88071 -0.51239,-12.71906 -0.81104,-3.47949 -2.15098,-6.57308 -3.73961,-9.1846 -1.58864,-2.61153 -3.4218,-4.7418 -5.24746,-6.40902 -2.03474,-1.85815 -4.22488,-3.45351 -6.5068,-4.75669 1.36397,0.16499 2.72964,0.31813 4.09684,0.4594 1.42429,0.14717 3.33937,0.69983 5.53903,1.7887 2.19965,1.08887 4.68454,2.72664 7.13848,5.04111 2.45394,2.31447 4.87197,5.3127 6.85672,8.9683 1.98474,3.65559 3.52533,7.96864 4.26462,12.70516 0.84065,5.40615 0.63414,11.34815 -0.70918,17.0912 -1.34333,5.74305 -3.82717,11.26378 -6.9871,15.88331 -1.54932,2.34004 -3.29679,4.44816 -5.13861,6.25017 -1.84181,1.802 -3.7766,3.29813 -5.66353,4.45525 -3.77384,2.31424 -7.32475,3.26243 -9.52751,2.89301 -1.28441,-0.21541 -1.40711,0.009 -0.2526,0.50714 0.44929,0.19405 -0.0358,0.73286 -1.33737,1.48172 -1.30162,0.74886 -3.42921,1.70156 -6.35657,2.60117 -2.25111,0.66261 -5.0083,1.20559 -8.27562,1.39504 -3.26733,0.18945 -7.04684,0.0208 -11.28022,-0.71915 -3.39841,-0.62959 -6.91953,-1.73599 -10.43553,-3.39104 -3.516,-1.65505 -7.02552,-3.8601 -10.3988,-6.60548 -3.04475,-1.56989 -6.22196,-4.27137 -9.18332,-7.90067 -1.16956,-1.43335 -2.54402,-3.33625 -4.04779,-5.81879 -1.50377,-2.48254 -3.13646,-5.54854 -4.79969,-9.2608 -2.37135,-4.25568 -3.43896,-9.80791 -2.69936,-16.60436 0.7396,-6.79646 3.2953,-14.83481 7.78809,-23.78001 6.24831,-7.05548 12.39428,-12.10496 18.10358,-15.25535 5.7093,-3.1504 10.9777,-4.40711 15.59138,-4.26632 7.34263,-0.43967 12.73017,0.10233 16.22394,0.7339 1.74689,0.31578 3.02929,0.65268 3.86198,0.92146 0.83269,0.26878 1.21861,0.46771 1.12571,0.55316 -0.0898,0.0828 -1.05658,0.3449 -2.55056,0.77698 -1.49399,0.43207 -3.5182,1.04648 -5.69774,1.80885 z m -49.44616,33.9264 c -1.52925,8.22614 -0.53084,14.81933 2.47193,19.72155 5.91338,11.39748 12.25071,17.42373 17.87837,20.06788 6.11286,4.61358 12.45526,7.14275 18.56922,8.02718 6.62406,0.89078 12.35349,0.27194 17.19718,-1.26622 5.96848,-1.96285 10.85562,-4.76729 14.81812,-8.00753 3.9625,-3.24025 7.00177,-6.91496 9.30831,-10.66957 3.30833,-5.29146 5.22928,-10.76476 6.02924,-15.96866 0.40084,-2.60755 0.46758,-4.40693 0.45895,-5.38065 -0.009,-0.97372 -0.0901,-1.12744 -0.24033,-0.40489 -0.1502,0.72255 -0.36122,2.3257 -0.95831,4.92048 -0.29854,1.29738 -0.69939,2.84334 -1.28706,4.64464 -0.58768,1.80129 -1.36151,3.85892 -2.44609,6.16022 -0.72208,1.53213 -1.52981,3.02794 -2.42117,4.48294 -2.40752,3.98471 -5.47175,7.68109 -9.30374,10.85467 -3.83198,3.17358 -8.42856,5.83207 -13.95873,7.71807 -4.67875,1.54445 -10.18575,2.21038 -16.62955,1.38938 -5.81983,-0.79955 -11.9324,-3.1324 -17.94814,-7.62517 -2.67222,-1.25619 -5.53845,-3.26739 -8.50129,-6.37441 -2.96284,-3.10703 -6.02352,-7.30784 -9.03964,-13.03616 -3.87756,-6.27822 -4.50342,-15.55987 9.1e-4,-28.14498 0.84413,-2.35851 1.85096,-4.7848 3.00849,-7.26192 0,0 10e-6,-10e-6 10e-6,-10e-6 6.04959,-7.33498 11.83323,-12.12232 16.90299,-15.01943 5.06976,-2.89712 9.42712,-3.92294 12.86831,-4.09614 0,0 0,0 0,0 2.93152,-0.44227 5.10834,-0.66204 6.48725,-0.81545 1.3789,-0.1534 1.96692,-0.24593 1.6436,-0.32213 -0.25977,-0.0612 -1.10003,-0.10607 -2.47713,-0.0853 -1.3771,0.0208 -3.29377,0.10936 -5.72773,0.35728 0,0 0,0 0,0 -3.55515,0.026 -8.08378,0.95797 -13.35387,3.85852 -2.63504,1.45027 -5.4515,3.38885 -8.39501,5.90816 -2.94352,2.5193 -6.01389,5.61983 -9.1409,9.35348 0,1e-5 0,1e-5 0,1e-5 -2.87407,6.06224 -4.84666,11.80956 -5.81419,17.01411 z"
         id="path3975"
         inkscape:connector-curvature="0"
         sodipodi:nodetypes="ssscsssscssssscs"
         inkscape:original-d="m 536.00351,581.20834 c 2.13719,-5.99509 4.32006,-7.94439 21.71005,-19.38705 9.62788,-6.33517 32.26445,-32.88808 41.9223,-49.17524 l 4.40284,-7.42504 0.3045,4.11364 c 0.9056,12.23434 -32.77786,64.46247 -38.33852,59.44607 -0.43265,-0.3903 -0.4825,-0.17881 -0.11079,0.46997 0.80841,1.411 -9.03927,9.2397 -16.05534,12.76367 -4.10112,2.05988 -15.39114,4.60232 -15.25596,3.43555 0.0241,-0.20836 0.66356,-2.11706 1.42092,-4.24157 z m 7.66031,-1.24611 c 14.7208,-8.52653 28.44894,-20.91495 39.21844,-35.39115 4.8042,-6.45774 3.82464,-5.54115 -5.34352,5 -11.28512,12.97514 -20.70054,20.93317 -34.80868,29.42073 -3.46975,2.08743 -6.11345,3.99052 -5.87488,4.22908 0.23857,0.23857 3.30246,-1.22783 6.80864,-3.25866 z" />
      <path
         style="fill:#29560e"
         d="m 528.26885,518.03862 c -2.86556,0.75656 -6.41989,2.18821 -10.46697,5.0225 -4.04709,2.83429 -8.59072,7.08087 -13.2331,13.2647 -2.58996,6.08417 -4.09535,11.79832 -4.34016,16.84483 -0.24481,5.04651 0.76827,9.42549 2.99133,12.88567 0,0 0,0 0,0 0.81799,1.44941 1.65216,2.81719 2.49756,4.10107 1.87606,2.8491 4.0793,5.52725 6.40283,7.67075 2.32352,2.14349 4.7611,3.75769 7.06959,4.84606 0,0 0,0 0,0 2.71222,1.91438 5.457,3.30907 8.05515,4.25838 2.59815,0.94931 5.0474,1.45771 7.20126,1.68669 0.84651,0.0827 1.63762,0.12996 2.37063,0.1511 4.96374,0.14314 9.05499,-0.6169 11.83486,-1.26714 2.19247,-0.52731 3.6254,-0.88886 4.04307,-0.75496 0.93927,0.30112 1.3097,0.0763 0.82298,-0.47422 -0.12168,-0.13765 0.35094,-0.60518 1.23502,-1.36528 0.88409,-0.7601 2.1723,-1.81877 3.62925,-3.1709 1.45694,-1.35212 3.07788,-3.00143 4.66652,-4.8997 1.58864,-1.89826 3.14346,-4.04558 4.5541,-6.32167 0.30929,-0.49904 0.60185,-0.99178 0.87941,-1.47772 1.56818,-2.75595 2.651,-5.31579 3.43549,-7.69981 0.7845,-2.38402 1.26804,-4.59481 1.54677,-6.68735 0.27874,-2.09254 0.3512,-4.06832 0.25291,-5.98742 -0.0983,-1.91911 -0.368,-3.78276 -0.81857,-5.63641 -0.55948,-2.25949 -1.39445,-4.52478 -2.58679,-6.83704 -1.19235,-2.31225 -2.74479,-4.67668 -4.79406,-7.01346 -2.60156,-2.96656 -5.58247,-5.42239 -8.7487,-7.27246 l 4.00211,0.61232 c 1.77611,0.27174 3.8869,0.87946 6.18099,1.98283 2.29409,1.10336 4.77383,2.70977 7.18563,4.97336 2.4118,2.26359 4.75502,5.18998 6.65861,8.82819 1.90359,3.6382 3.36273,7.99069 3.92967,12.93975 0.53683,4.70747 0.27363,9.94985 -1.07357,15.36157 -1.34721,5.41173 -3.78413,10.98602 -7.44867,16.2399 -1.50415,2.22246 -3.25123,4.38377 -5.25934,6.42188 -2.90399,2.94737 -6.03727,5.33069 -8.99754,7.13879 -2.96027,1.8081 -5.73839,3.04873 -7.89687,3.83016 -2.15848,0.78144 -3.68636,1.11439 -4.26428,1.08469 -0.57793,-0.0297 -0.19622,-0.41357 1.18752,-1.2385 1.18677,-0.70752 1.33274,-1.03937 0.84532,-1.03715 -0.48743,0.002 -1.6227,0.32744 -3.16089,0.84991 -0.83802,0.27369 -1.80002,0.59015 -2.85229,0.92504 -1.99627,0.63534 -3.08374,0.87728 -3.03281,0.99869 0.0509,0.12141 1.23863,0.12566 3.41906,-0.1723 1.1276,-0.15408 1.93562,-0.29897 2.46671,-0.37869 0,0 0,0 0,0 1.02647,-0.16327 1.01653,-0.0392 2.1e-4,0.42544 0,0 0,0 0,0 -0.41492,0.18281 -0.99789,0.41381 -1.76549,0.67593 -1.19978,0.40971 -3.48892,0.84771 -6.39736,0.91791 -2.90843,0.0702 -6.44871,-0.26211 -9.84599,-1.02827 -0.39357,-0.0887 -0.7821,-0.17927 -1.16471,-0.27097 0,0 0,0 0,0 -3.19459,-0.79394 -5.83503,-1.78281 -7.56396,-2.43072 -1.72892,-0.64791 -2.55491,-0.91418 -2.07625,-0.44993 0.30708,0.29784 0.23497,0.39648 -0.17296,0.31673 -0.40793,-0.0797 -1.15159,-0.33958 -2.17688,-0.80888 -2.05059,-0.93862 -5.23821,-2.71386 -9.00457,-5.80456 -2.32331,-1.2242 -5.22251,-3.4085 -8.36591,-7.12927 -1.5717,-1.86039 -3.20002,-4.09915 -4.8246,-6.72639 -1.62459,-2.62723 -3.24476,-5.64386 -4.79803,-8.9956 0,0 0,0 0,0 -2.73936,-4.80686 -3.59859,-10.94927 -2.66509,-17.88436 0.9335,-6.93509 3.65782,-14.65418 7.53808,-22.38426 1.75812,-1.98641 3.46353,-3.76172 5.10564,-5.34485 6.21309,-5.98996 11.72177,-9.5169 16.476,-11.56406 4.75423,-2.04716 8.75953,-2.61589 12.07798,-2.49714 4.42786,-0.23778 7.46183,-0.0877 9.43406,0.0995 1.97223,0.18723 2.88602,0.41437 2.87182,0.57463 -0.0142,0.16026 -0.95736,0.25382 -2.91892,0.39611 -1.96156,0.1423 -4.94727,0.33101 -9.21679,0.92003 0,0 0,0 0,0 -3.57627,0.13691 -7.94434,1.12606 -13.1194,4.00456 -5.17505,2.87851 -11.16937,7.65252 -17.74917,15.54919 -1.16487,2.47237 -2.19694,4.9201 -3.07644,7.32684 -4.68401,12.81764 -4.34039,22.70107 -0.21978,29.41208 2.96387,5.69294 6.03996,10.05519 9.06927,13.31428 3.02931,3.2591 6.01121,5.41645 8.80706,6.73687 6.15201,4.65315 12.49572,7.16589 18.53957,8.05972 6.73992,0.92855 12.45563,0.2882 17.19977,-1.1947 7.06293,-2.287 12.33985,-5.65539 16.25943,-9.21945 2.92335,-2.65819 5.65906,-5.99816 7.8343,-9.59442 1.92173,-3.12202 3.4589,-6.43221 4.5533,-9.64376 1.09439,-3.21155 1.75049,-6.31935 2.07304,-9.06694 0.32254,-2.7476 0.31806,-5.13406 0.17009,-6.98182 -0.14796,-1.84777 -0.43187,-3.16162 -0.69482,-3.81341 -0.0954,-0.23484 -0.18874,-0.38355 -0.27666,-0.43925 -0.16189,-0.10256 -0.28482,-0.0991 -0.36703,-0.008 -0.19075,0.21376 -0.16397,0.89975 0.0725,1.86857 0.40473,1.65794 0.69375,5.27865 -0.0869,10.0856 -0.39033,2.40348 -1.05431,5.0943 -2.08061,7.90983 -1.0263,2.81553 -2.41759,5.7534 -4.18202,8.62467 -1.90756,3.14768 -4.28907,6.22162 -7.05621,8.9193 -2.76713,2.69768 -5.92127,5.0118 -9.14302,6.79164 -1.74125,0.96195 -4.08476,2.03688 -7.07618,2.99868 -4.13673,1.28617 -9.65035,2.09311 -16.59715,1.1417 -5.6905,-0.83498 -11.8633,-3.20085 -17.84367,-7.66736 -2.83489,-1.33639 -5.85807,-3.51542 -8.86214,-6.7117 -3.00408,-3.19628 -5.98493,-7.41585 -8.74678,-12.59031 -2.54994,-4.08895 -3.57512,-9.29621 -3.05638,-15.31204 0.51874,-6.01583 2.58177,-12.83854 5.97062,-20.09263 5.85363,-7.09838 11.48584,-11.81526 16.53962,-14.7168 5.05378,-2.90154 9.53128,-3.99785 13.28415,-4.07269 3.83956,-0.44371 6.81314,-0.52245 8.95336,-0.47334 2.14022,0.0491 3.45448,0.22193 3.94541,0.38655 0.58996,0.19783 -0.49386,0.56901 -2.74246,1.16171 -2.24861,0.5927 -5.68574,1.44251 -9.82927,2.75002 0,0 0,0 0,0 -0.46017,0.0905 -0.92757,0.19777 -1.40144,0.32289 0,0 0,0 0,0 z"
         id="path3973"
         inkscape:connector-curvature="0"
         sodipodi:nodetypes="sssscsscssssssssssscsscs"
         inkscape:original-d="m 538.37699,577.48712 c 1.75138,-2.76164 5.16468,-5.94735 9.03008,-8.42796 3.41792,-2.19345 8.61582,-5.88054 11.55089,-8.19354 2.93507,-2.313 5.65395,-3.888 6.04195,-3.5 0.388,0.388 0.55546,0.21261 0.37212,-0.38976 -0.18333,-0.60238 3.89634,-5.55002 9.06594,-10.99477 10.6588,-11.2261 14.29873,-15.93778 23.55919,-30.49601 l 6.54154,-10.28385 0,4.04739 c 0,11.31105 -15.52183,37.6493 -32.4548,55.071 -6.18939,6.36803 -9.89851,9.25018 -8.0452,6.25146 1.00599,-1.62773 -0.14174,-1.13977 -1.62756,0.69196 -1.18376,1.45936 -1.16623,1.57044 0.12756,0.80804 1.26164,-0.74346 1.2961,-0.63215 0.21684,0.70045 -0.70573,0.87141 -2.63266,2.14336 -4.28206,2.82657 -1.6494,0.6832 -2.76007,1.48102 -2.46815,1.77294 0.98633,0.98633 -9.37532,6.20157 -14.50852,7.30244 -7.34808,1.57589 -7.07235,0.6311 1.21452,-4.16147 10.11218,-5.84821 20.18811,-13.59048 27.46494,-21.10385 7.48483,-7.72813 19.37372,-22.60028 19.33202,-24.18297 -0.0167,-0.63476 -0.53765,-0.25411 -1.15762,0.84589 -2.2907,4.06438 -14.62663,18.32836 -22.31197,25.79924 -6.50796,6.32635 -28.92408,21.61001 -30.04734,20.48675 -0.23654,-0.23653 0.837,-2.42801 2.38563,-4.86995 z" />
      <path
         style="fill:#173707"
         d="m 521.76205,518.38537 c -2.01098,0.53449 -4.12882,1.39239 -6.2229,2.53121 -2.09409,1.13883 -4.16325,2.55758 -6.06805,4.10019 -3.80961,3.08523 -6.93898,6.67292 -8.41122,8.77566 -0.0399,0.10391 -0.0775,0.20429 -0.11288,0.30107 -0.7643,2.08994 -0.99065,3.10239 -0.855,3.1417 0.13565,0.0393 0.63132,-0.89406 1.69372,-2.91872 0,0 0,0 0,0 1.43893,-1.59312 3.52514,-3.90625 6.30373,-6.45878 2.32325,-2.13424 4.30932,-3.59471 5.94803,-4.6376 1.63871,-1.04289 2.9317,-1.6687 3.89493,-2.05084 0.96323,-0.38215 1.59757,-0.52032 1.9263,-0.50424 0.32873,0.0161 0.35215,0.18719 0.0922,0.4986 -0.25997,0.31141 -0.80341,0.76409 -1.61127,1.40475 -0.80786,0.64065 -1.88046,1.47019 -3.19828,2.58233 -2.63564,2.2243 -6.26671,5.55385 -10.63563,11.12959 -0.0227,0.0507 -0.0455,0.10151 -0.0681,0.1523 -1.46243,3.27815 -2.65036,6.48432 -3.49241,9.44548 -0.84205,2.96116 -1.34078,5.67755 -1.56674,8.05313 -0.22596,2.37558 -0.18297,4.41189 -0.0344,6.07705 0.14858,1.66516 0.39809,2.9628 0.55591,3.88709 0.22626,1.3251 0.56234,2.27445 0.8661,2.91355 0,0 0,0 0,0 0.45945,1.25912 0.80989,1.13617 1.08215,-0.27974 0.004,-0.0187 0.007,-0.0372 0.0109,-0.0555 0.0191,-0.7422 0.14706,-1.16218 0.32776,-1.22143 0.1807,-0.0593 0.41286,0.24303 0.77126,0.88438 0.34922,0.7495 0.78027,2.08817 1.38931,3.94968 0.6418,1.96163 1.18055,3.13828 1.52408,3.63801 0.34352,0.49973 0.49327,0.32612 0.44095,-0.54328 -0.0243,-0.40327 0.2827,-0.31202 0.86712,0.17188 0.58442,0.48391 1.44744,1.35405 2.5453,2.40842 1.09785,1.05438 2.43223,2.28757 3.94682,3.48771 1.51459,1.20013 3.21064,2.36396 4.9964,3.33526 0.13131,0.0714 0.26308,0.14137 0.39524,0.20981 2.37916,1.7694 4.96887,3.22293 7.57601,4.26086 2.60713,1.03793 5.22801,1.66314 7.66832,1.93795 2.5084,0.26081 4.7358,0.21931 6.59194,0.0243 1.85613,-0.19499 3.34354,-0.53872 4.4102,-0.87699 1.21789,-0.38623 2.3199,-0.77035 3.3418,-1.13109 3.40977,-1.23146 6.03208,-1.99997 8.71982,-2.29391 1.82582,-0.19968 2.96472,-0.49991 3.50717,-0.8105 0.54245,-0.3106 0.48841,-0.63605 -0.0596,-1.019 -0.83228,-0.5816 -2.46149,-0.52064 -3.72055,0.0963 -0.62954,0.30847 -0.80356,0.25933 -0.56981,-0.0557 0.23376,-0.31507 0.87035,-0.89871 1.7844,-1.71335 0.91403,-0.81465 1.95678,-1.57521 2.91812,-2.15625 0.96135,-0.58104 1.84657,-0.98081 2.48068,-1.02676 1.26821,-0.0919 1.51114,-0.30316 0.55099,-0.44052 -0.52455,-0.075 -0.0802,-1.03152 0.82375,-2.52371 0.90394,-1.49219 2.23419,-3.54013 3.53314,-5.78111 0.87997,-1.52266 1.74685,-3.13839 2.52711,-4.72115 0.78027,-1.58275 1.47484,-3.13162 2.07221,-4.51415 1.19472,-2.76507 2.01094,-4.86371 2.66078,-5.26784 0.52115,-0.3241 0.88684,0.38316 1.04385,1.70432 0.15701,1.32116 0.0799,3.26214 -0.30975,5.34374 -0.38969,2.0816 -1.10105,4.29804 -1.97534,6.11063 -0.87429,1.81259 -1.89689,3.21535 -2.70585,3.7133 -1.01972,0.62765 -1.28542,1.66816 -0.5459,2.34215 0.35495,0.3235 0.51343,0.71228 0.4767,1.08783 -0.0384,0.40778 -0.30578,0.80085 -0.78761,1.0615 -0.92666,0.50126 -1.63339,0.13744 -1.91655,-0.58609 -0.28315,-0.72353 -0.16161,-1.80009 0.4871,-2.78191 0.19065,-0.28854 0.32267,-0.62895 0.3886,-0.96216 0.0903,-0.4528 0.058,-0.89234 -0.10444,-1.17671 -0.23663,-0.41421 -0.50206,-0.50899 -0.76643,-0.38012 0,0 0,0 0,0 -0.49792,0.24274 -1.00401,1.27982 -1.36245,2.51628 -0.35845,1.23645 -0.57611,2.67612 -0.30386,3.70733 0.40016,1.51576 0.68806,2.95596 0.66732,3.19022 -0.0206,0.23421 -1.59703,0.49868 -3.47494,0.45074 -1.87789,-0.048 -3.86165,0.24857 -4.47475,0.78121 -0.61313,0.53263 -0.18689,0.72968 0.95459,0.39988 0.74633,-0.21564 1.32875,-0.10925 1.75178,0.19795 0.42303,0.3072 0.6839,0.81536 0.75085,1.39305 0.13392,1.15538 -0.54302,2.60713 -2.18644,3.12147 -0.75515,0.23632 -1.71015,0.51546 -2.64813,0.76013 -0.93798,0.24467 -1.85855,0.45503 -2.52164,0.59672 -1.32618,0.28332 -2.03917,1.19858 -1.52307,2.09075 0.32379,0.55972 0.13379,1.03557 -0.65576,1.43075 -0.78955,0.39518 -2.17858,0.71251 -4.24494,0.838 -0.44543,0.0271 -0.85847,0.0465 -1.23881,0.0598 -1.13905,0.0347 -1.99738,-4e-4 -2.56463,-0.0646 -0.56724,-0.0643 -0.84354,-0.15774 -0.84047,-0.28056 0.006,-0.24565 1.15361,-0.58686 3.07999,-1.40975 0.11232,-0.048 0.22033,-0.0955 0.32418,-0.1424 1.7856,-0.82705 2.37831,-1.39073 2.26354,-1.62088 -0.11477,-0.23015 -0.95227,-0.14422 -2.26427,0.14658 0,0 0,0 0,0 -1.6925,0.36384 -4.20323,0.99212 -7.15305,1.55734 -2.33817,0.44802 -3.89546,0.64867 -4.48134,0.95821 -0.58589,0.30954 -0.20335,0.73171 1.12269,1.21253 1.33908,0.48554 1.78914,0.83606 1.27353,1.17695 -0.5156,0.34089 -1.98883,0.68575 -4.73363,0.69722 -0.70539,0.003 -1.44285,-0.0341 -2.19836,-0.11159 -2.05701,-0.23192 -4.18721,-0.81552 -6.06502,-1.63813 -1.87781,-0.82262 -3.49895,-1.87696 -4.58898,-2.87619 -1.70357,-1.56165 -3.60024,-3.27303 -5.03507,-4.45253 -0.40471,-0.24174 -0.77488,-0.41787 -1.06829,-0.47679 -0.36124,-0.0725 -0.51766,0.0326 -0.48554,0.27794 0.0321,0.24538 0.25292,0.62892 0.63754,1.06671 0,0 0,0 0,0 0.45037,0.52881 1.01809,1.1264 1.69542,1.75257 1.3787,1.27456 2.41139,2.22038 2.92957,2.83088 0.51817,0.6105 0.51789,0.89526 -0.1589,0.70056 -0.79023,-0.22734 -3.02228,-1.65414 -5.61564,-4.19523 -1.08277,-0.87762 -2.32042,-2.14314 -3.50865,-3.73236 -1.4275,-1.90923 -2.79416,-3.94215 -3.84941,-5.5002 -1.05524,-1.55804 -1.80901,-2.60828 -2.03659,-2.48093 -0.22758,0.12736 -0.18899,0.72155 0.0685,1.54734 0.2575,0.82578 0.73505,1.87554 1.36681,2.88811 0.53034,0.85001 0.61528,1.17355 0.33579,1.11501 -0.27949,-0.0585 -0.92387,-0.50777 -1.85041,-1.38707 -0.92653,-0.8793 -2.1364,-2.19513 -3.53026,-4.06132 -1.39387,-1.86619 -2.97179,-4.28924 -4.60772,-7.36107 -1.83526,-2.94988 -2.99446,-6.73303 -3.07889,-11.36802 -0.0844,-4.63499 0.91395,-10.12262 3.18345,-16.2903 0.87434,-2.37615 1.89378,-4.74124 3.0185,-7.07092 0,0 0,-10e-6 0,-10e-6 3.69132,-4.36457 7.02798,-7.46534 9.99588,-9.76239 2.9679,-2.29705 5.5702,-3.78917 7.84891,-4.80088 2.27871,-1.01171 4.23547,-1.54131 5.93312,-1.79989 1.69765,-0.25857 3.13693,-0.24433 4.38415,-0.0814 0.45587,0.0595 0.85678,0.12927 1.20488,0.20076 0,0 0,0 0,0 1.0384,0.15071 1.54882,0.28724 1.56008,0.38178 0.0113,0.0946 -0.4763,0.14669 -1.51121,0.1898 -0.75544,-0.0316 -1.76871,-0.0561 -3.07177,0.0387 -1.30305,0.0948 -2.8963,0.30825 -4.82033,0.81963 0,0 0,0 0,0 z m 47.51489,64.51761 c 1.45877,-1.68089 2.80575,-3.49777 3.97874,-5.33082 1.89849,-2.90975 3.37351,-5.8615 4.39048,-8.39926 1.01697,-2.53776 1.59252,-4.65776 1.84818,-5.95683 0.33572,-1.70586 0.57851,-3.35233 0.73563,-4.63336 0.15712,-1.28103 0.23763,-2.19869 0.28978,-2.46412 0.17554,-0.89355 0.23687,-2.30335 0.1435,-3.7999 -0.0934,-1.49655 -0.34355,-3.07567 -0.66269,-4.35912 -0.37875,-1.51138 -0.84031,-2.61768 -1.12059,-2.79704 -0.48173,-0.30829 -0.61398,-0.96419 -0.30736,-1.46794 0.1533,-0.25187 0.10717,-0.94002 -0.1255,-1.82138 -0.23267,-0.88135 -0.65538,-1.95234 -1.21842,-2.98134 -0.56304,-1.02901 -1.0237,-2.11233 -1.31591,-3.03881 -0.29221,-0.92648 -0.41286,-1.69963 -0.24849,-2.13828 0.21405,-0.5712 0.0911,-1.03567 -0.22449,-1.36219 -0.31562,-0.32652 -0.82349,-0.51805 -1.38541,-0.57763 -1.12386,-0.11916 -2.45053,0.25528 -3.00453,1.22618 -0.56725,0.99414 -0.3905,1.56587 0.55048,1.59149 0.82859,0.0226 2.06722,1.54352 2.83918,3.41716 0.38598,0.93683 0.65435,1.95462 0.74062,2.85505 0.0863,0.90044 -0.008,1.68088 -0.30122,2.12561 -0.21172,0.32108 -0.31083,0.75537 -0.30482,1.20075 0,0 0,0 0,0 0.005,0.43012 0.10618,0.87114 0.31167,1.22357 0.47105,0.80789 0.82447,0.7304 1.06134,-0.27009 0.0245,-0.10328 0.0474,-0.21643 0.0684,-0.33938 0.14044,-0.82055 0.53014,-0.37436 0.89759,1.01021 0,0 0,0 0,0 0.1032,0.39333 0.20163,0.86328 0.28389,1.40378 0.34891,2.29242 0.22373,3.96703 -0.2303,5.03359 -0.45403,1.06656 -1.24308,1.5332 -2.3497,1.49988 -0.59302,-0.0179 -0.73501,-0.76573 -0.58599,-1.69026 0.14902,-0.92454 0.5764,-2.031 1.22441,-2.841 0.32297,-0.40303 0.58834,-1.40839 0.56772,-2.21405 -0.0218,-0.85104 -0.22109,-0.70403 -0.49973,0.34045 -0.2009,0.75308 -0.43156,1.19574 -0.6483,1.34597 -0.21675,0.15023 -0.42014,0.009 -0.6051,-0.39326 -0.3699,-0.80379 -0.65024,-2.65878 -1.1079,-5.20244 -0.002,-0.01 -0.004,-0.0201 -0.005,-0.0302 -0.2438,-1.3127 -0.71394,-2.95518 -1.32839,-4.49664 -0.61445,-1.54145 -1.36824,-2.98003 -2.01849,-4.0026 -1.30546,-2.05291 -2.3959,-3.93385 -2.22553,-4.41103 0.17037,-0.47717 -0.15706,-0.77603 -0.7123,-0.67462 -0.55522,0.10142 -1.04033,-0.4064 -1.1106,-1.10199 -0.0703,-0.69554 0.77706,-1.46379 1.91379,-1.7984 1.08987,-0.32083 2.33109,-0.22469 3.25093,0.19356 0.91984,0.41825 1.51142,1.17498 1.28168,2.0105 -0.14929,0.54295 0.12461,0.86229 0.62377,0.70158 0.7218,-0.23241 2.28885,0.91916 3.4608,2.39613 1.17196,1.47697 1.9121,3.28145 1.33631,3.79697 -0.6301,0.56416 -0.18767,0.95073 1.14966,0.95855 1.21433,0.007 2.24827,0.67062 2.25423,1.53295 0.007,0.95483 -0.51162,0.97705 -1.31238,0.0857 -0.53036,-0.59034 -0.82945,-0.85688 -0.91252,-0.79778 -0.0831,0.0591 0.0508,0.44372 0.3446,1.19668 0.40066,1.02675 1.13966,1.78863 1.691,1.64175 0.62808,-0.16734 1.77378,1.49835 2.62629,3.76969 0.42625,1.13567 0.77516,2.41993 0.98257,3.65439 0.20742,1.23446 0.27371,2.41758 0.19119,3.3214 -0.0745,0.81367 -0.26516,1.39974 -0.56203,1.59512 -0.39157,0.2577 -0.7767,1.15422 -1.15212,2.40057 -0.37541,1.24635 -0.74963,2.84511 -1.07248,4.51751 -0.57866,2.99743 -1.04715,5.2553 -1.03648,6.3431 0.005,0.5439 0.12905,0.79518 0.38273,0.69689 0.25368,-0.0983 0.6387,-0.54661 1.11711,-1.4022 0.53935,-0.96456 1.26196,-1.4423 1.64898,-1.05133 0.38702,0.39097 0.27745,1.52856 -0.2877,2.51688 -0.56515,0.98832 -1.39428,1.4076 -1.79813,0.94392 -0.40386,-0.46368 -1.20135,-0.0634 -1.81575,0.87605 -0.83481,1.27642 -0.77299,2.3924 -0.23891,2.88663 0.53407,0.49424 1.56307,0.34276 2.46484,-0.96468 0.87331,-1.26617 1.18477,-1.4449 0.77422,-0.40087 -0.47791,1.21536 -1.50879,2.43533 -2.71922,3.32249 -1.21043,0.88717 -2.59148,1.43693 -3.70497,1.41174 -1.13751,-0.0258 -1.55069,0.37935 -1.11491,1.12237 0.28409,0.48313 -0.14772,1.86525 -1.12674,3.40435 0,0 0,0 0,0 -0.34361,0.55291 -0.75692,1.12512 -1.22747,1.67977 -1.29324,1.52442 -2.05263,2.45281 -2.14176,3.0393 -0.0891,0.58649 0.48371,0.83293 1.7092,0.86907 1.07918,0.0318 1.70933,0.15701 1.90095,0.44095 0.19162,0.28394 -0.0541,0.72646 -0.75619,1.33207 -1.10313,0.95157 -2.00657,1.07862 -1.95013,0.32673 0.0565,-0.75191 -1.32948,-0.94529 -3.1024,-0.53967 -1.2194,0.27899 -1.8939,0.54415 -2.04483,0.93833 -0.15093,0.39418 0.21952,0.91638 1.11761,1.62747 1.30575,1.03386 1.47958,2.51328 0.26066,3.29053 -1.25038,0.7973 -1.83265,0.57395 -1.31974,-0.46879 0.47565,-0.96698 -0.31826,-1.1323 -1.85699,-0.73295 -1.53872,0.39936 -3.84842,1.34319 -6.6553,2.53718 -1.37518,0.58497 -2.32394,0.89501 -2.64673,0.91502 -0.32278,0.02 -0.0122,-0.24488 0.99484,-0.90334 1.00705,-0.65846 2.71611,-1.71089 4.95281,-3.40199 2.2367,-1.69111 4.99935,-4.03597 7.84072,-7.31 0,0 0,0 -1e-5,-1e-5 z m -9.01614,-58.68509 c -1.17565,-0.85405 -2.38688,-1.62655 -3.62362,-2.31279 1.40118,0.21233 2.80246,0.42399 4.20383,0.635 1.15614,0.17409 2.19398,0.41418 2.93102,0.67689 0.73705,0.26271 1.17296,0.54802 1.13119,0.77228 -0.0835,0.44852 0.62246,0.72963 1.58239,0.59024 1.21781,-0.17684 1.46075,0.0398 0.773,0.71434 -0.54212,0.53175 -1.60068,0.54037 -2.34986,0.0878 -0.94742,-0.5723 -1.2653,-0.39988 -1.08838,0.54488 0.13992,0.74708 0.14106,1.30735 0.0381,1.2313 -0.10302,-0.076 -1.65783,-1.53073 -3.59765,-2.93992 10e-6,-1e-5 10e-6,-2e-5 10e-6,-3e-5 z"
         id="path3971"
         inkscape:connector-curvature="0"
         inkscape:original-d="m 539.28179,578.21415 c 1.11716,0.29214 2.3808,-0.0345 2.8081,-0.72589 0.54716,-0.88534 0.28483,-1.06823 -0.88715,-0.6185 -2.56449,0.98408 -1.94908,-1.54545 0.87637,-3.60214 1.36266,-0.99191 2.99999,-1.48059 3.63851,-1.08596 0.76913,0.47535 0.95204,0.17307 0.54195,-0.89561 -0.45559,-1.18725 -0.19315,-1.44969 0.9941,-0.9941 1.02087,0.39174 1.36551,0.21837 0.9387,-0.47223 -0.39595,-0.64066 1.70405,-2.53833 5.08596,-4.59593 3.1682,-1.92759 7.07678,-4.8825 8.68573,-6.56647 2.02006,-2.11424 3.62587,-2.93473 5.18896,-2.65129 1.63947,0.2973 2.11367,0.0198 1.71985,-1.0065 -0.29906,-0.77933 -1.05909,-1.1172 -1.68895,-0.75081 -0.62987,0.36638 -0.29758,-0.30059 0.73843,-1.48216 1.036,-1.18158 2.386,-1.86178 3,-1.51157 0.61399,0.35021 0.76621,0.25195 0.33826,-0.21834 -1.10249,-1.21159 11.23877,-13.41789 12.91565,-12.77441 1.54885,0.59435 -5.96686,10.79211 -7.98261,10.83128 -0.63522,0.0123 -1.02272,0.79984 -0.86111,1.75 0.16161,0.95016 -0.13608,1.72756 -0.66152,1.72756 -1.051,0 -0.93111,-2.53454 0.17207,-3.63772 0.38258,-0.38259 0.69561,-1.16061 0.69561,-1.72895 0,-2.27416 -2.3169,1.4186 -2.55266,4.06853 -0.13693,1.53898 -0.29359,2.96574 -0.34815,3.17058 -0.0545,0.20485 -0.78506,-0.19678 -1.62336,-0.8925 -0.83829,-0.69572 -1.81329,-0.97582 -2.16666,-0.62244 -0.35338,0.35337 -0.17894,0.6425 0.38763,0.6425 1.48175,0 1.04941,4.47538 -0.4468,4.625 -0.6875,0.0687 -1.71973,0.18125 -2.29384,0.25 -0.57411,0.0687 -0.91161,0.90475 -0.75,1.85778 0.20278,1.19582 -0.41358,1.77377 -1.98901,1.86504 -2.16568,0.12547 -2.19622,0.0365 -0.59501,-1.73278 2.50377,-2.76663 0.10148,-2.2642 -2.52095,0.52725 -1.5865,1.68875 -1.87084,2.51783 -0.96687,2.81915 0.91287,0.30429 0.6628,1.08995 -0.87089,2.73618 -1.24743,1.33896 -2.79182,2.06359 -3.67542,1.72453 -0.83818,-0.32164 -1.78993,-0.15446 -2.115,0.37152 -0.32508,0.52598 0.13707,0.95633 1.02699,0.95633 0.88992,0 1.36063,0.41649 1.04602,0.92554 -0.31461,0.50904 -1.91616,0.75542 -3.55902,0.5475 -1.64285,-0.20791 -2.987,0.0506 -2.987,0.57447 0,0.52387 0.5625,0.9625 1.25,0.97473 1.60908,0.0286 -2.77663,3.52969 -7.05836,5.63462 -2.37965,1.16985 -3.61314,1.32164 -4.39405,0.54073 -0.78092,-0.78092 -0.5155,-0.93658 0.9455,-0.55452 z m 33.22137,-20.37718 c 3.80023,-3.97875 8.17281,-8.92875 9.71684,-11 1.54402,-2.07124 3.03488,-3.99089 3.31301,-4.26589 1.48995,-1.47319 5.00569,-7.06354 5.00569,-7.95951 0,-0.57227 0.34767,-1.04049 0.7726,-1.04049 0.42492,0 1.62079,-1.575 2.65747,-3.5 1.03668,-1.925 2.52031,-3.5 3.29695,-3.5 2.02269,0 1.17455,-4.26118 -0.90778,-4.56084 -1.0661,-0.15341 -1.48823,0.25986 -1.15429,1.13009 0.58811,1.5326 -3.24562,6.93075 -4.92219,6.93075 -0.59185,0 -1.28447,0.62514 -1.53916,1.3892 -0.31509,0.94528 -0.0392,1.12724 0.86333,0.56943 0.72952,-0.45087 0.30726,0.6115 -0.93836,2.36081 -2.32572,3.26617 -3.57796,3.88048 -4.58587,2.24966 -0.54012,-0.87394 1.15113,-2.51996 2.62397,-2.55379 0.36666,-0.008 1.04166,-0.42496 1.5,-0.92564 0.48416,-0.52889 0.30957,-0.60891 -0.41667,-0.19098 -2.09449,1.20533 -1.40312,-0.75351 1.56034,-4.42085 1.54568,-1.91281 3.83238,-5.16534 5.08156,-7.22784 1.24917,-2.0625 2.71107,-3.75 3.24868,-3.75 0.5376,0 0.72848,-0.40285 0.42418,-0.89522 -0.3043,-0.49236 0.0389,-1.12246 0.76275,-1.40022 0.72381,-0.27775 1.83893,0.33231 2.47804,1.35569 1.22553,1.96239 0.63994,4.93975 -0.97156,4.93975 -0.52361,0 -0.73218,0.35571 -0.46349,0.79047 0.77707,1.25732 -2.50091,7.24697 -3.59576,6.57031 -0.59906,-0.37023 -0.73358,0.19353 -0.3412,1.42983 0.3563,1.12259 0.18466,2.32732 -0.38141,2.67717 -0.62679,0.38738 -0.80131,-0.0685 -0.44634,-1.16584 0.47019,-1.45357 0.38406,-1.52118 -0.44548,-0.34969 -0.56559,0.79874 -0.81037,1.80494 -0.54397,2.236 0.7433,1.20267 -4.67694,9.89233 -5.75487,9.22614 -0.52152,-0.32232 -2.27152,0.91508 -3.88887,2.74978 -2.89876,3.2883 -3.92403,5.54188 -1.9726,4.33583 0.55,-0.33992 1,-0.16803 1,0.38197 0,0.55 -0.45,1.27811 -1,1.61803 -0.55,0.33992 -1,0.11492 -1,-0.5 0,-0.61492 -0.45,-0.83992 -1,-0.5 -1.4946,0.92371 -1.24982,3.7618 0.25,2.89869 0.72624,-0.41793 0.90083,-0.33791 0.41667,0.19098 -1.12722,1.23136 -3.00526,1.2043 -3.90136,-0.0562 -0.45771,-0.64385 -0.74046,-0.51219 -0.75,0.34924 -0.008,0.76049 -0.97617,2.21606 -2.15055,3.23459 -1.69749,1.47223 -1.89254,2.14431 -0.95144,3.27827 0.82874,0.99857 0.86187,1.62534 0.11046,2.08974 -0.59033,0.36485 -0.94968,0.12366 -0.79856,-0.53597 0.15113,-0.65963 -0.35123,-1.42675 -1.11635,-1.70471 -1.05249,-0.38235 -1.23417,0.12001 -0.74633,2.06372 0.35464,1.413 0.1983,2.84504 -0.34742,3.18231 -0.5598,0.34598 -0.74557,-0.0295 -0.42627,-0.86159 0.59221,-1.54328 -1.09907,-1.69115 -3.33885,-0.29192 -2.19469,1.37106 -1.34623,0.32115 5.71446,-7.07125 z m 29.61335,-48.76589 2.38929,-4 0.0164,4.25 c 0.009,2.3375 -0.41943,4.25 -0.95217,4.25 -0.53274,0 -0.68126,0.74882 -0.33006,1.66404 0.44554,1.16107 0.26432,1.43276 -0.59956,0.89885 -0.68096,-0.42085 -0.97733,-1.44478 -0.65859,-2.27538 0.40306,-1.05038 0.11935,-1.33361 -0.93183,-0.93024 -0.83124,0.31898 -1.46892,0.48158 -1.41708,0.36135 0.0518,-0.12024 1.16944,-2.01862 2.48355,-4.21862 z" />
    </g>
  </g>
</svg>
