<?xml version="1.0" encoding="UTF-8" standalone="no"?>
<!-- Created with Inkscape (http://www.inkscape.org/) -->

<svg
   xmlns:dc="http://purl.org/dc/elements/1.1/"
   xmlns:cc="http://creativecommons.org/ns#"
   xmlns:rdf="http://www.w3.org/1999/02/22-rdf-syntax-ns#"
   xmlns:svg="http://www.w3.org/2000/svg"
   xmlns="http://www.w3.org/2000/svg"
   xmlns:sodipodi="http://sodipodi.sourceforge.net/DTD/sodipodi-0.dtd"
   xmlns:inkscape="http://www.inkscape.org/namespaces/inkscape"
   width="93.230774"
   height="150.7529"
   id="svg2"
   version="1.1"
   inkscape:version="0.48.1 r9760"
   sodipodi:docname="two_leaves.svg">
  <defs
     id="defs4" />
  <sodipodi:namedview
     id="base"
     pagecolor="#ffffff"
     bordercolor="#666666"
     borderopacity="1.0"
     inkscape:pageopacity="0.0"
     inkscape:pageshadow="2"
     inkscape:zoom="1.012015"
     inkscape:cx="23.508484"
     inkscape:cy="6.8622788"
     inkscape:document-units="px"
     inkscape:current-layer="layer1"
     showgrid="false"
     inkscape:window-width="1749"
     inkscape:window-height="960"
     inkscape:window-x="0"
     inkscape:window-y="0"
     inkscape:window-maximized="0"
     fit-margin-top="0"
     fit-margin-left="0"
     fit-margin-right="0"
     fit-margin-bottom="0" />
  <metadata
     id="metadata7">
    <rdf:RDF>
      <cc:Work
         rdf:about="">
        <dc:format>image/svg+xml</dc:format>
        <dc:type
           rdf:resource="http://purl.org/dc/dcmitype/StillImage" />
        <dc:title />
      </cc:Work>
    </rdf:RDF>
  </metadata>
  <g
     inkscape:label="Layer 1"
     inkscape:groupmode="layer"
     id="layer1"
     transform="translate(-202.02193,-374.09152)">
    <g
       id="g3969"
       transform="translate(-310.44084,-75.018121)">
      <path
         style="fill:#cdd2b2"
         d="m 515.84366,571.98091 c -4.8019,-12.38378 23.81911,-92.59883 41.74395,-116.99426 7.46407,-10.15848 7.24692,-7.48481 -0.8658,10.66005 -9.2863,20.7697 -18.17255,48.63406 -18.15381,56.92438 0.0134,5.91845 -3.36363,28.0509 -5.21446,34.17489 -1.94813,6.4459 -4.18692,9.4875 -11.48369,15.60161 -3.97481,3.33058 -5.66623,19.6623 -2.25473,21.77073 0.54943,0.33957 2.74493,-0.95998 4.87888,-2.88788 2.13396,-1.9279 5.06346,-4.28076 6.51,-5.22857 1.44654,-0.94781 3.22733,-3.15271 3.95729,-4.89977 2.08145,-4.9816 7.1916,-10.16292 15.22422,-15.43626 16.07543,-10.55335 35.99551,-32.35972 48.35319,-52.93188 6.5072,-10.8327 7.36564,-11.19903 6.82583,-2.91287 -0.65054,9.98603 -13.55356,34.67643 -24.59602,47.06538 -17.29969,19.40918 -33.18686,30.04891 -44.73971,30.8678 -22.80849,4.07871 -20.62613,18.1216 -22.70771,9.19048 -2.09371,-7.09261 4.9675,-18.1493 2.52257,-24.96383 z"
         id="path3993"
         inkscape:connector-curvature="0"
         sodipodi:nodetypes="csssssssssssssccc" />
      <path
         style="fill:#b7c7aa"
         d="m 516.50142,582.53446 c 0.93615,-2.18355 1.01439,-2.00899 0.68871,1.53662 -2.33543,12.64316 5.34981,8.53902 9.90433,4.56293 4.06153,-3.33349 7.63885,-6.10072 7.9496,-7.07982 1.44172,-4.54244 7.03435,-10.16508 16.19826,-16.28517 9.26602,-6.18829 30.00293,-26.25339 35.19568,-34.05546 0.88039,-1.32277 3.8892,-5.72096 6.68625,-9.77376 2.79705,-4.0528 6.32731,-9.50622 7.84502,-12.11872 5.65693,-9.73751 6.4792,-0.97504 1.12764,12.01654 -13.00933,31.58175 -44.88786,64.23346 -62.71244,64.23346 -5.1327,0 -8.84295,3.09442 -15.08418,7.44273 -9.3693,5.10781 -10.96153,11.00063 -10.18375,1.93956 -0.91859,-6.51864 0.7161,-8.54803 2.38488,-12.41891 z m -0.47029,-23.46338 c 0.184,-0.55 1.75376,-5.725 3.48835,-11.5 15.10498,-50.28908 25.29332,-74.98243 38.1027,-92.34905 7.08545,-9.60626 6.96784,-8.04026 -0.67416,8.97655 -11.6857,26.02113 -16.87991,44.28789 -19.86843,69.8725 -2.74088,23.46443 -4.82987,29.21818 -13.05529,35.95829 -2.46708,2.02159 -4.4856,4.32048 -4.4856,5.10866 0,2.29175 -1.39388,1.64595 -2.75,-1.27412 -1.1174,-2.40604 -1.61976,-12.21556 -0.75757,-14.79283 z"
         id="path3991"
         inkscape:connector-curvature="0"
         sodipodi:nodetypes="cccssssssscccsssssssss" />
      <path
         style="fill:#a2ab92"
         d="m 516.58593,583.32108 c 0.83887,-1.92054 0.92541,-1.7375 0.59099,1.25 -1.32486,15.31833 2.03196,10.88528 10.86177,4.3109 3.57499,-2.646 6.49999,-5.29625 6.5,-5.88946 4e-5,-3.55397 6.83441,-10.79841 16.30466,-17.28294 18.04014,-12.35257 40.96653,-38.34129 51.06731,-57.8885 4.88631,-9.45607 4.63287,3.34695 -0.2882,14.55916 -14.25699,32.48324 -50.6176,66.64428 -68.82335,64.5645 -30.37755,24.92413 -18.311,3.91806 -16.21318,-3.62366 z m 0.38604,-26.75 c 15.01806,-52.05447 25.63683,-78.8793 39.26653,-99.19403 8.57898,-12.78676 8.43614,-10.3327 -0.55537,9.54119 -8.81013,19.473 -15.93535,42.71191 -17.52348,57.15284 -3.67443,33.41191 -4.89171,37.31804 -14.40723,46.23117 -3.07159,2.87714 -5.66529,5.12714 -5.76376,5 -2.7026,-3.48934 -3.13195,-11.39944 -1.01669,-18.73117 z"
         id="path3989"
         inkscape:connector-curvature="0"
         sodipodi:nodetypes="cccssssccssssscs" />
      <path
         style="fill:#8b976e"
         d="m 516.21642,560.07108 c 1.72155,-7.72496 14.49634,-47.86713 19.50153,-61.27957 5.20765,-13.95499 15.51383,-34.21917 21.71633,-42.69902 6.61701,-9.04655 6.43681,-7.2835 -0.86905,8.50231 -11.54517,24.94573 -16.51638,42.55948 -19.98045,70.79383 -2.84943,23.22461 -5.69285,30.16728 -14.80676,36.15321 -1.23163,0.80892 -2.25429,2.15892 -2.27259,3 -0.024,1.1036 -0.58068,0.87215 -2,-0.83154 -1.90787,-2.29013 -2.47675,-8.3096 -1.28901,-13.63922 z m 18.73789,21.77472 c 3.03643,-5.98365 7.8672,-10.71092 17.08439,-16.71836 14.6341,-9.53801 40.43606,-38.86182 49.10387,-55.80636 6.39504,-12.50152 5.56087,2.18363 -0.90638,15.95633 -14.78974,31.49637 -42.06652,58.24458 -61.44048,60.24985 -3.44135,0.35619 -6.19593,0.62427 -6.12128,0.59572 0.0747,-0.0285 1.1006,-1.95328 2.27988,-4.27718 z"
         id="path3987"
         inkscape:connector-curvature="0"
         sodipodi:nodetypes="sssssscssssssscs" />
      <path
         style="fill:#708855"
         d="m 517.44367,556.57108 c 13.45369,-48.86301 26.85087,-82.43219 40.21239,-100.7598 6.43736,-8.82994 6.18121,-7.49827 -1.98055,10.29636 -10.66408,23.25028 -15.87581,41.30367 -18.60958,64.46344 -3.20242,27.12997 -4.16316,30.01242 -12.76274,38.29113 -3.30856,3.18511 -6.12312,5.66011 -6.25458,5.5 -2.92082,-3.55779 -3.09702,-8.74003 -0.60494,-17.79113 z m 5.02766,6 c 1.11659,-1.92113 9.28205,-35.11865 8.76514,-35.63556 -0.21367,-0.21367 -1.39792,3.55442 -2.63167,8.37353 -1.23375,4.81912 -3.28809,12.58703 -4.56519,17.26203 -2.55322,9.34634 -3.05759,12.56243 -1.56828,10 z m 13.27351,18.5 c 2.89959,-5.74473 6.17826,-8.963 15.79386,-15.5029 15.56548,-10.58661 35.74927,-32.68746 46.53851,-50.95872 6.5817,-11.14592 7.99068,-12.15086 7.06408,-5.03838 -3.75995,28.86114 -46.63139,77.24068 -67.1685,75.79828 l -4.2469,-0.29828 z"
         id="path3985"
         inkscape:connector-curvature="0"
         sodipodi:nodetypes="ssssscssssssssssscs" />
      <path
         style="fill:#65774c"
         d="m 516.60641,560.09049 c 0.45785,-2.73932 1.7284,-7.46432 2.82342,-10.5 1.09503,-3.03567 2.8947,-8.89441 3.99927,-13.01941 8.63958,-32.26452 24.07975,-67.67658 36.62521,-84 3.66211,-4.76493 2.72696,-1.89447 -4.15307,12.74786 -10.45089,22.24196 -16.22251,42.10328 -18.81672,64.75214 -3.05564,26.67745 -4.88133,31.99382 -13.57264,39.52324 l -5.76993,4.99857 -1.10162,-3.16013 c -1.22375,-3.51045 -1.22585,-4.21109 -0.0339,-11.34227 z m 4.8454,6.98059 c 1.05134,-2.2 2.66645,-7.11508 3.58913,-10.92241 0.92267,-3.80732 2.35091,-7.95003 3.17387,-9.20602 0.82295,-1.25599 1.21067,-2.74575 0.86158,-3.31058 -0.34908,-0.56484 -0.32944,-2.65414 0.0437,-4.6429 0.43139,-2.2995 0.96011,-3.16004 1.45227,-2.36372 0.48824,0.79 0.73371,0.36511 0.665,-1.15108 -0.12205,-2.6936 3.50677,-19.02771 6.4028,-28.82037 1.04377,-3.5294 1.7192,-6.59564 1.50096,-6.81388 -0.68107,-0.68108 -10.89743,32.9235 -12.15824,39.99201 -0.36897,2.06857 -1.07718,4.01216 -1.5738,4.31909 -0.49663,0.30693 -0.6772,0.92334 -0.40128,1.36979 0.44052,0.71277 -2.06023,10.90746 -4.42766,18.05007 -1.781,5.37332 -1.17885,7.79095 0.87172,3.5 z m 14.28921,14 c 2.87383,-5.69539 7.1932,-9.91222 15.83677,-15.46082 14.42726,-9.26133 34.79145,-31.60092 47.09406,-51.66234 6.50969,-10.61514 7.36489,-11.18887 6.45511,-4.33062 -3.82697,28.8491 -47.55788,77.61438 -67.94522,75.76719 l -3.45908,-0.31341 z"
         id="path3983"
         inkscape:connector-curvature="0"
         sodipodi:nodetypes="csssssscscccsscccsssssssccssssscs" />
      <path
         style="fill:#5e892d"
         d="m 516.55555,561.07108 c 4.28389,-25.16249 27.41958,-84.95982 40.11706,-103.68798 7.60572,-11.21807 7.24789,-9.08509 -1.62522,9.68798 -3.1195,6.6 -7.17715,16.54476 -9.01701,22.09946 -5.7281,17.29375 -7.45482,25.85867 -10.56416,52.40054 -1.85991,15.87661 -4.30825,21.62079 -11.93825,28.00898 -6.77326,5.67089 -8.93697,3.03034 -6.97242,-8.50898 z m 4.61291,0.38921 c -1.14845,5.67295 -1.63543,9.63187 -0.99769,8.11079 0.3459,-0.825 1.18819,-2.175 1.87176,-3 0.68356,-0.825 1.54524,-3.1875 1.91482,-5.25 0.36959,-2.0625 1.11571,-3.75 1.65805,-3.75 0.54234,0 1.28427,-0.7875 1.64873,-1.75 0.36446,-0.9625 1.25034,-2.34464 1.96862,-3.07143 0.71827,-0.72678 1.31284,-2.30178 1.32126,-3.5 0.0111,-1.58497 0.24706,-1.81292 0.86585,-0.83662 1.13855,1.79638 2.06982,-3.04098 1.50286,-7.80642 -0.33975,-2.85561 -0.22934,-3.15091 0.57408,-1.53553 1.0102,2.03112 0.93214,0.4844 -0.44157,-8.75 -0.26591,-1.7875 -0.005,-3.925 0.58088,-4.75 0.83443,-1.17596 0.94786,-0.95814 0.52508,1.00831 -0.2966,1.37957 -0.11265,3.17957 0.40877,4 0.6299,0.9911 0.79488,-0.6896 0.49162,-5.00831 -0.26953,-3.83845 -0.10463,-5.93294 0.40271,-5.11514 0.51217,0.82557 0.64134,-0.54747 0.31983,-3.39983 -0.42783,-3.79574 -0.26711,-4.61647 0.77758,-3.97082 0.93184,0.57592 1.14408,0.36357 0.72587,-0.72625 -0.7362,-1.9185 3.10249,-14.78796 4.41093,-14.78796 0.52703,0 0.67353,-0.46066 0.32556,-1.02369 -0.58156,-0.94099 1.95046,-9.14548 3.54174,-11.47631 0.90175,-1.32084 2.96978,-7.5 2.51009,-7.5 -1.26611,0 -9.5675,20.77863 -13.58355,34 -1.75418,5.775 -4.03637,13.16182 -5.07153,16.41516 -1.03516,3.25333 -1.88211,6.48927 -1.88211,7.19098 0,0.7017 -0.46804,1.56509 -1.04008,1.91863 -0.66972,0.41391 -0.84563,-0.36629 -0.49402,-2.19098 l 0.54606,-2.83379 -1.12786,2.86565 c -0.84267,2.14103 -0.83775,3.04496 0.0194,3.57473 0.85074,0.52579 0.80039,1.53415 -0.1948,3.901 -0.73816,1.75556 -1.67338,2.86065 -2.07827,2.45575 -0.4049,-0.40489 -0.43925,0.0376 -0.0763,0.98335 0.37907,0.98785 0.18881,1.71952 -0.44715,1.71952 -0.60885,0 -1.1001,0.7875 -1.09168,1.75 0.0132,1.51273 0.16161,1.54662 1.09434,0.25 0.89739,-1.24751 0.97897,-1.19167 0.48468,0.33179 -0.32688,1.00748 -0.59433,2.91998 -0.59433,4.25 0,1.63056 -0.57,2.4232 -1.75,2.43352 -1.38563,0.0121 -1.46272,0.19727 -0.37024,0.88922 0.94032,0.59556 1.17919,1.86466 0.75001,3.98468 z m 14.6998,19.61079 c 2.62872,-5.63899 5.97222,-8.9214 15.3303,-15.05021 14.06595,-9.21209 31.34091,-27.47197 43.33564,-45.80639 11.70625,-17.89345 10.93228,-17.0823 10.38488,-10.88376 -2.42381,27.4461 -47.85299,78.29498 -67.9601,76.06773 l -2.9554,-0.32737 z"
         id="path3981"
         inkscape:connector-curvature="0"
         sodipodi:nodetypes="sssssssssssssscsssscsssssssssssssssscscsccscssscssssssscs" />
      <path
         style="fill:#596c46"
         d="m 516.55555,561.07108 c 4.28389,-25.16249 27.41958,-84.95982 40.11706,-103.68798 7.60572,-11.21807 7.24789,-9.08509 -1.62522,9.68798 -3.1195,6.6 -7.17715,16.54476 -9.01701,22.09946 -5.73345,17.30992 -7.51985,26.18178 -10.55112,52.40054 -1.79369,15.51441 -4.62821,22.20851 -11.81362,27.89946 -4.51341,3.57469 -5.10027,3.20886 -2.27758,-1.41977 1.01303,-1.66117 2.14859,-4.65522 2.52346,-6.65345 0.37487,-1.99823 1.34434,-3.88746 2.15438,-4.1983 0.81004,-0.31085 1.4728,-1.06144 1.4728,-1.66798 0,-0.60655 0.675,-1.77782 1.5,-2.60282 0.825,-0.825 1.50689,-2.48035 1.51531,-3.67857 0.0125,-1.7732 0.19569,-1.89946 0.98469,-0.67857 1.17103,1.81204 1.18707,1.67078 1.44539,-12.73112 0.10093,-5.62711 0.55531,-10.57711 1.00974,-11 0.45442,-0.42288 0.55664,0.35986 0.22716,1.73943 -0.32949,1.37957 -0.18417,3.17957 0.32293,4 0.61865,1.0009 0.87704,-0.4824 0.78535,-4.50831 -0.23862,-10.47712 0.10431,-13.683 1.37937,-12.89497 0.76777,0.47451 0.96678,0.19364 0.57893,-0.81707 -0.7362,-1.9185 3.10249,-14.78796 4.41093,-14.78796 0.52703,0 0.67353,-0.46066 0.32556,-1.02369 -0.58156,-0.94099 1.95046,-9.14548 3.54174,-11.47631 0.90175,-1.32084 2.96978,-7.5 2.51009,-7.5 -1.26611,0 -9.5675,20.77863 -13.58355,34 -1.75418,5.775 -4.03637,13.16182 -5.07153,16.41516 -1.03516,3.25333 -1.88211,6.48927 -1.88211,7.19098 0,0.7017 -0.46804,1.56509 -1.04008,1.91863 -0.66972,0.41391 -0.84563,-0.36629 -0.49402,-2.19098 l 0.54606,-2.83379 -1.12786,2.86565 c -0.84267,2.14103 -0.83775,3.04496 0.0194,3.57473 0.85074,0.52579 0.80039,1.53415 -0.1948,3.901 -0.73816,1.75556 -1.67338,2.86065 -2.07827,2.45575 -0.4049,-0.40489 -0.43925,0.0376 -0.0763,0.98335 0.37907,0.98785 0.18881,1.71952 -0.44715,1.71952 -0.60885,0 -1.1001,0.7875 -1.09168,1.75 0.0132,1.51273 0.16161,1.54662 1.09434,0.25 0.89739,-1.24751 0.97897,-1.19167 0.48468,0.33179 -0.32688,1.00748 -0.59433,2.91998 -0.59433,4.25 0,1.48285 -0.5802,2.41821 -1.5,2.41821 -0.825,0 -1.49311,0.7875 -1.48469,1.75 0.0131,1.49555 0.15626,1.5319 0.98469,0.25 1.75182,-2.71075 0.59588,4.46529 -1.77193,11 -0.29893,0.825 -0.43493,2.175 -0.30221,3 0.16755,1.04162 -0.0841,1.18486 -0.82354,0.46875 -1.60099,-1.55052 -2.03828,-6.37217 -1.08546,-11.96875 z m 19.31271,20 c 2.62872,-5.63899 5.97222,-8.9214 15.3303,-15.05021 14.06595,-9.21209 31.34091,-27.47197 43.33564,-45.80639 11.70625,-17.89345 10.93228,-17.0823 10.38488,-10.88376 -2.42381,27.4461 -47.85299,78.29498 -67.9601,76.06773 l -2.9554,-0.32737 z m 10.22066,-2.61111 c 3.08318,-1.86389 7.03318,-4.63282 8.77778,-6.15318 1.7446,-1.52035 -0.95796,-0.17531 -6.00569,2.98898 -5.04773,3.16429 -8.99773,5.93322 -8.77777,6.15318 0.21995,0.21995 2.92251,-1.12508 6.00568,-2.98898 z"
         id="path3979"
         inkscape:connector-curvature="0"
         sodipodi:nodetypes="sssssssscsscssssssssssssssssscscsccscsssscsscssssssscssssss" />
      <path
         style="fill:#506c32"
         d="m 516.50707,569.05153 c 0.43002,0.26577 0.55453,-1.53361 0.27669,-3.99862 -0.40933,-3.63157 -0.20535,-4.48183 1.0752,-4.48183 0.8692,0 2.03904,-0.7875 2.59964,-1.75 1.84158,-3.16179 0.68411,4.19285 -1.69183,10.75 -0.29893,0.825 -0.44244,2.10766 -0.31891,2.85035 0.34503,2.07441 -1.59745,0.44964 -2.19519,-1.83615 -0.2901,-1.10933 -0.17562,-1.79951 0.2544,-1.53375 z m 2.39209,-17.31759 1.20831,-3.33714 1.34849,2.51968 c 1.55873,2.91251 0.85806,5.6546 -1.44489,5.6546 -0.87472,0 -1.31229,0.45 -0.97237,1 0.33992,0.55 0.14148,1 -0.44098,1 -1.35096,0 -1.23683,-2.5887 0.30144,-6.83714 z m 2.78708,15.83714 c 1.17703,-1.925 2.24292,-4.4 2.36864,-5.5 0.39844,-3.48626 0.46495,-3.62969 1.41182,-3.0445 0.51041,0.31545 1.2178,-0.33953 1.572,-1.4555 0.3542,-1.11597 1.00539,-1.80569 1.44709,-1.5327 0.44171,0.27299 1.13243,-1.40797 1.53494,-3.73548 0.40251,-2.3275 0.96892,-3.6012 1.2587,-2.83043 0.38182,1.01559 0.89322,0.74029 1.85763,-1 2.88233,-5.2012 0.71733,5.44425 -2.56222,12.59861 -1.00848,2.2 -3.11667,5.07651 -4.68487,6.39224 -1.5682,1.31573 -3.63877,3.07297 -4.60127,3.90499 -2.36541,2.04473 -2.19826,0.44811 0.39754,-3.79723 z m 14.74832,12.5 c 2.29274,-4.95208 5.38673,-7.82878 15.60414,-14.50829 14.48045,-9.46643 36.05563,-33.4529 47.59716,-52.91674 l 4.40284,-7.42504 0.3045,4.11364 c 1.65869,22.40831 -45.24558,76.23643 -66.43023,76.23643 -3.90164,0 -3.94689,-0.16833 -1.47841,-5.5 z m 9.65436,-1.61111 c 3.08318,-1.86389 7.03318,-4.63282 8.77778,-6.15318 1.7446,-1.52035 -0.95796,-0.17531 -6.00569,2.98898 -5.04773,3.16429 -8.99773,5.93322 -8.77777,6.15318 0.21995,0.21995 2.92251,-1.12508 6.00568,-2.98898 z m -7.0039,-87.11763 c 5.32017,-12.36836 14.69565,-29.73975 15.71183,-29.11172 0.62781,0.38801 0.75272,0.16706 0.31027,-0.54884 -0.86314,-1.39658 1.24266,-4.34549 2.53343,-3.54775 0.48138,0.29751 0.66338,-0.0449 0.40444,-0.76101 -0.25894,-0.71607 0.4112,-2.42694 1.48922,-3.80194 3.43613,-4.38277 2.16383,-0.28645 -3.34407,10.76666 -6.14167,12.32494 -11.19758,25.04554 -10.8241,27.23334 0.22141,1.29706 0.12405,1.30352 -0.71966,0.0478 -0.53664,-0.79874 -0.87169,-1.69874 -0.74454,-2 0.12714,-0.30126 0.73308,-1.67275 1.34653,-3.04775 0.61344,-1.375 2.14465,-5.2 3.40268,-8.5 1.25803,-3.3 2.6474,-6.4275 3.08749,-6.95 0.44009,-0.5225 0.78519,-1.4225 0.76689,-2 -0.0537,-1.69582 -3.96455,3.51092 -3.98897,5.31078 -0.0122,0.90157 -0.90222,2.76422 -1.97776,4.13922 -1.07554,1.375 -1.96553,3.20149 -1.97776,4.05887 -0.0122,0.85738 -0.68293,2.43238 -1.49044,3.5 -0.8075,1.06762 -1.4825,2.69113 -1.5,3.6078 -0.0175,0.91666 -0.50119,1.82313 -1.0749,2.01436 -0.5737,0.19124 -1.18404,1.66968 -1.35631,3.28544 -0.17226,1.61575 -0.82787,3.10929 -1.4569,3.31897 -1.60774,0.53591 -1.40161,-0.49488 1.40263,-7.01418 z"
         id="path3977"
         inkscape:connector-curvature="0"
         sodipodi:nodetypes="csssssscscsssssssssssssssssssscsssssssscssscsssccsssccscsscsscc" />
      <path
         style="fill:#475832"
         d="m 524.41013,565.57108 c 1.75526,0 4.18981,-2.58827 3.33095,-3.54128 -0.38631,-0.42865 -0.22042,-0.50545 0.36863,-0.17065 1.08323,0.61567 3.70191,-5.77829 4.95954,-12.10958 0.36287,-1.82682 0.89266,-3.08861 1.1773,-2.80397 0.77148,0.77148 -1.66026,10.15133 -3.75666,14.49037 -2.38576,4.93796 -4.63028,6.85602 -6.19357,5.29273 -0.87683,-0.87683 -0.84922,-1.15762 0.11381,-1.15762 z m 11.59338,15.63726 c 2.13719,-5.99509 4.32006,-7.94439 21.71005,-19.38705 9.62788,-6.33517 32.26445,-32.88808 41.9223,-49.17524 l 4.40284,-7.42504 0.3045,4.11364 c 0.9056,12.23434 -32.77786,64.46247 -38.33852,59.44607 -0.43265,-0.3903 -0.4825,-0.17881 -0.11079,0.46997 0.80841,1.411 -9.03927,9.2397 -16.05534,12.76367 -4.10112,2.05988 -15.39114,4.60232 -15.25596,3.43555 0.0241,-0.20836 0.66356,-2.11706 1.42092,-4.24157 z m 7.66031,-1.24611 c 14.7208,-8.52653 28.44894,-20.91495 39.21844,-35.39115 4.8042,-6.45774 3.82464,-5.54115 -5.34352,5 -11.28512,12.97514 -20.70054,20.93317 -34.80868,29.42073 -3.46975,2.08743 -6.11345,3.99052 -5.87488,4.22908 0.23857,0.23857 3.30246,-1.22783 6.80864,-3.25866 z m 3.42325,-105.01876 c 8.12526,-15.91391 9.20914,-17.64029 10.55348,-16.80944 0.48138,0.29751 0.66338,-0.0449 0.40444,-0.76101 -0.25894,-0.71607 0.4112,-2.42694 1.48922,-3.80194 3.48548,-4.44571 2.13288,-0.13837 -3.39394,10.80795 -2.96913,5.88063 -6.40443,13.50455 -7.63399,16.94205 -1.22956,3.4375 -2.43059,6.25 -2.66896,6.25 -0.90881,0 4.26693,-14.35371 6.04852,-16.77417 0.51583,-0.70079 0.62427,-1.58776 0.24099,-1.97104 -0.85275,-0.85274 -2.38262,1.38032 -3.25094,4.74521 -0.35482,1.375 -0.96869,2.725 -1.36414,3 -0.39545,0.275 -2.32496,3.875 -4.28779,8 -1.96283,4.125 -3.59499,6.97269 -3.62702,6.32821 -0.032,-0.64449 3.33853,-7.8246 7.49013,-15.95582 z"
         id="path3975"
         inkscape:connector-curvature="0"
         sodipodi:nodetypes="ssssssssssscsssscssssscssscssssssssscs" />
      <path
         style="fill:#29560e"
         d="m 538.37699,577.48712 c 1.75138,-2.76164 5.16468,-5.94735 9.03008,-8.42796 3.41792,-2.19345 8.61582,-5.88054 11.55089,-8.19354 2.93507,-2.313 5.65395,-3.888 6.04195,-3.5 0.388,0.388 0.55546,0.21261 0.37212,-0.38976 -0.18333,-0.60238 3.89634,-5.55002 9.06594,-10.99477 10.6588,-11.2261 14.29873,-15.93778 23.55919,-30.49601 l 6.54154,-10.28385 0,4.04739 c 0,11.31105 -15.52183,37.6493 -32.4548,55.071 -6.18939,6.36803 -9.89851,9.25018 -8.0452,6.25146 1.00599,-1.62773 -0.14174,-1.13977 -1.62756,0.69196 -1.18376,1.45936 -1.16623,1.57044 0.12756,0.80804 1.26164,-0.74346 1.2961,-0.63215 0.21684,0.70045 -0.70573,0.87141 -2.63266,2.14336 -4.28206,2.82657 -1.6494,0.6832 -2.76007,1.48102 -2.46815,1.77294 0.98633,0.98633 -9.37532,6.20157 -14.50852,7.30244 -7.34808,1.57589 -7.07235,0.6311 1.21452,-4.16147 10.11218,-5.84821 20.18811,-13.59048 27.46494,-21.10385 7.48483,-7.72813 19.37372,-22.60028 19.33202,-24.18297 -0.0167,-0.63476 -0.53765,-0.25411 -1.15762,0.84589 -2.2907,4.06438 -14.62663,18.32836 -22.31197,25.79924 -6.50796,6.32635 -28.92408,21.61001 -30.04734,20.48675 -0.23654,-0.23653 0.837,-2.42801 2.38563,-4.86995 z"
         id="path3973"
         inkscape:connector-curvature="0"
         sodipodi:nodetypes="sssscsscssssssssssscsscs" />
      <path
         style="fill:#173707"
         d="m 539.28179,578.21415 c 1.11716,0.29214 2.3808,-0.0345 2.8081,-0.72589 0.54716,-0.88534 0.28483,-1.06823 -0.88715,-0.6185 -2.56449,0.98408 -1.94908,-1.54545 0.87637,-3.60214 1.36266,-0.99191 2.99999,-1.48059 3.63851,-1.08596 0.76913,0.47535 0.95204,0.17307 0.54195,-0.89561 -0.45559,-1.18725 -0.19315,-1.44969 0.9941,-0.9941 1.02087,0.39174 1.36551,0.21837 0.9387,-0.47223 -0.39595,-0.64066 1.70405,-2.53833 5.08596,-4.59593 3.1682,-1.92759 7.07678,-4.8825 8.68573,-6.56647 2.02006,-2.11424 3.62587,-2.93473 5.18896,-2.65129 1.63947,0.2973 2.11367,0.0198 1.71985,-1.0065 -0.29906,-0.77933 -1.05909,-1.1172 -1.68895,-0.75081 -0.62987,0.36638 -0.29758,-0.30059 0.73843,-1.48216 1.036,-1.18158 2.386,-1.86178 3,-1.51157 0.61399,0.35021 0.76621,0.25195 0.33826,-0.21834 -1.10249,-1.21159 11.23877,-13.41789 12.91565,-12.77441 1.54885,0.59435 -5.96686,10.79211 -7.98261,10.83128 -0.63522,0.0123 -1.02272,0.79984 -0.86111,1.75 0.16161,0.95016 -0.13608,1.72756 -0.66152,1.72756 -1.051,0 -0.93111,-2.53454 0.17207,-3.63772 0.38258,-0.38259 0.69561,-1.16061 0.69561,-1.72895 0,-2.27416 -2.3169,1.4186 -2.55266,4.06853 -0.13693,1.53898 -0.29359,2.96574 -0.34815,3.17058 -0.0545,0.20485 -0.78506,-0.19678 -1.62336,-0.8925 -0.83829,-0.69572 -1.81329,-0.97582 -2.16666,-0.62244 -0.35338,0.35337 -0.17894,0.6425 0.38763,0.6425 1.48175,0 1.04941,4.47538 -0.4468,4.625 -0.6875,0.0687 -1.71973,0.18125 -2.29384,0.25 -0.57411,0.0687 -0.91161,0.90475 -0.75,1.85778 0.20278,1.19582 -0.41358,1.77377 -1.98901,1.86504 -2.16568,0.12547 -2.19622,0.0365 -0.59501,-1.73278 2.50377,-2.76663 0.10148,-2.2642 -2.52095,0.52725 -1.5865,1.68875 -1.87084,2.51783 -0.96687,2.81915 0.91287,0.30429 0.6628,1.08995 -0.87089,2.73618 -1.24743,1.33896 -2.79182,2.06359 -3.67542,1.72453 -0.83818,-0.32164 -1.78993,-0.15446 -2.115,0.37152 -0.32508,0.52598 0.13707,0.95633 1.02699,0.95633 0.88992,0 1.36063,0.41649 1.04602,0.92554 -0.31461,0.50904 -1.91616,0.75542 -3.55902,0.5475 -1.64285,-0.20791 -2.987,0.0506 -2.987,0.57447 0,0.52387 0.5625,0.9625 1.25,0.97473 1.60908,0.0286 -2.77663,3.52969 -7.05836,5.63462 -2.37965,1.16985 -3.61314,1.32164 -4.39405,0.54073 -0.78092,-0.78092 -0.5155,-0.93658 0.9455,-0.55452 z m 33.22137,-20.37718 c 3.80023,-3.97875 8.17281,-8.92875 9.71684,-11 1.54402,-2.07124 3.03488,-3.99089 3.31301,-4.26589 1.48995,-1.47319 5.00569,-7.06354 5.00569,-7.95951 0,-0.57227 0.34767,-1.04049 0.7726,-1.04049 0.42492,0 1.62079,-1.575 2.65747,-3.5 1.03668,-1.925 2.52031,-3.5 3.29695,-3.5 2.02269,0 1.17455,-4.26118 -0.90778,-4.56084 -1.0661,-0.15341 -1.48823,0.25986 -1.15429,1.13009 0.58811,1.5326 -3.24562,6.93075 -4.92219,6.93075 -0.59185,0 -1.28447,0.62514 -1.53916,1.3892 -0.31509,0.94528 -0.0392,1.12724 0.86333,0.56943 0.72952,-0.45087 0.30726,0.6115 -0.93836,2.36081 -2.32572,3.26617 -3.57796,3.88048 -4.58587,2.24966 -0.54012,-0.87394 1.15113,-2.51996 2.62397,-2.55379 0.36666,-0.008 1.04166,-0.42496 1.5,-0.92564 0.48416,-0.52889 0.30957,-0.60891 -0.41667,-0.19098 -2.09449,1.20533 -1.40312,-0.75351 1.56034,-4.42085 1.54568,-1.91281 3.83238,-5.16534 5.08156,-7.22784 1.24917,-2.0625 2.71107,-3.75 3.24868,-3.75 0.5376,0 0.72848,-0.40285 0.42418,-0.89522 -0.3043,-0.49236 0.0389,-1.12246 0.76275,-1.40022 0.72381,-0.27775 1.83893,0.33231 2.47804,1.35569 1.22553,1.96239 0.63994,4.93975 -0.97156,4.93975 -0.52361,0 -0.73218,0.35571 -0.46349,0.79047 0.77707,1.25732 -2.50091,7.24697 -3.59576,6.57031 -0.59906,-0.37023 -0.73358,0.19353 -0.3412,1.42983 0.3563,1.12259 0.18466,2.32732 -0.38141,2.67717 -0.62679,0.38738 -0.80131,-0.0685 -0.44634,-1.16584 0.47019,-1.45357 0.38406,-1.52118 -0.44548,-0.34969 -0.56559,0.79874 -0.81037,1.80494 -0.54397,2.236 0.7433,1.20267 -4.67694,9.89233 -5.75487,9.22614 -0.52152,-0.32232 -2.27152,0.91508 -3.88887,2.74978 -2.89876,3.2883 -3.92403,5.54188 -1.9726,4.33583 0.55,-0.33992 1,-0.16803 1,0.38197 0,0.55 -0.45,1.27811 -1,1.61803 -0.55,0.33992 -1,0.11492 -1,-0.5 0,-0.61492 -0.45,-0.83992 -1,-0.5 -1.4946,0.92371 -1.24982,3.7618 0.25,2.89869 0.72624,-0.41793 0.90083,-0.33791 0.41667,0.19098 -1.12722,1.23136 -3.00526,1.2043 -3.90136,-0.0562 -0.45771,-0.64385 -0.74046,-0.51219 -0.75,0.34924 -0.008,0.76049 -0.97617,2.21606 -2.15055,3.23459 -1.69749,1.47223 -1.89254,2.14431 -0.95144,3.27827 0.82874,0.99857 0.86187,1.62534 0.11046,2.08974 -0.59033,0.36485 -0.94968,0.12366 -0.79856,-0.53597 0.15113,-0.65963 -0.35123,-1.42675 -1.11635,-1.70471 -1.05249,-0.38235 -1.23417,0.12001 -0.74633,2.06372 0.35464,1.413 0.1983,2.84504 -0.34742,3.18231 -0.5598,0.34598 -0.74557,-0.0295 -0.42627,-0.86159 0.59221,-1.54328 -1.09907,-1.69115 -3.33885,-0.29192 -2.19469,1.37106 -1.34623,0.32115 5.71446,-7.07125 z m 29.61335,-48.76589 2.38929,-4 0.0164,4.25 c 0.009,2.3375 -0.41943,4.25 -0.95217,4.25 -0.53274,0 -0.68126,0.74882 -0.33006,1.66404 0.44554,1.16107 0.26432,1.43276 -0.59956,0.89885 -0.68096,-0.42085 -0.97733,-1.44478 -0.65859,-2.27538 0.40306,-1.05038 0.11935,-1.33361 -0.93183,-0.93024 -0.83124,0.31898 -1.46892,0.48158 -1.41708,0.36135 0.0518,-0.12024 1.16944,-2.01862 2.48355,-4.21862 z"
         id="path3971"
         inkscape:connector-curvature="0" />
    </g>
  </g>
</svg>
