<?xml version="1.0" encoding="UTF-8" standalone="no"?>
<!-- Created with Inkscape (http://www.inkscape.org/) -->

<svg
   xmlns:dc="http://purl.org/dc/elements/1.1/"
   xmlns:cc="http://creativecommons.org/ns#"
   xmlns:rdf="http://www.w3.org/1999/02/22-rdf-syntax-ns#"
   xmlns:svg="http://www.w3.org/2000/svg"
   xmlns="http://www.w3.org/2000/svg"
   xmlns:sodipodi="http://sodipodi.sourceforge.net/DTD/sodipodi-0.dtd"
   xmlns:inkscape="http://www.inkscape.org/namespaces/inkscape"
   width="744.09448819"
   height="1052.3622047"
   id="svg2"
   version="1.1"
   inkscape:version="0.48.1 r9760"
   sodipodi:docname="New document 1">
  <defs
     id="defs4" />
  <sodipodi:namedview
     id="base"
     pagecolor="#ffffff"
     bordercolor="#666666"
     borderopacity="1.0"
     inkscape:pageopacity="0.0"
     inkscape:pageshadow="2"
     inkscape:zoom="2.9744077"
     inkscape:cx="210.0712"
     inkscape:cy="553.53994"
     inkscape:document-units="px"
     inkscape:current-layer="layer1"
     showgrid="false"
     inkscape:window-width="1749"
     inkscape:window-height="960"
     inkscape:window-x="0"
     inkscape:window-y="0"
     inkscape:window-maximized="0" />
  <metadata
     id="metadata7">
    <rdf:RDF>
      <cc:Work
         rdf:about="">
        <dc:format>image/svg+xml</dc:format>
        <dc:type
           rdf:resource="http://purl.org/dc/dcmitype/StillImage" />
        <dc:title></dc:title>
      </cc:Work>
    </rdf:RDF>
  </metadata>
  <g
     inkscape:label="Layer 1"
     inkscape:groupmode="layer"
     id="layer1">
    <g
       id="g3969"
       transform="translate(-310.44084,-75.018121)">
      <path
         style="fill:#cdd2b2"
         d="m 394.17276,490.84492 c 0.51752,0.31984 2.46751,4.10157 4.33332,8.40385 11.00762,25.38193 43.61826,52.07695 83.32214,68.20736 5.38424,2.18745 11.3624,5.35817 13.2848,7.04606 1.9224,1.68789 4.39407,3.06889 5.49259,3.06889 3.3032,0 9.00165,2.81744 11.1039,5.49001 4.08302,5.19073 7.20195,-3.1685 4.13415,-11.08018 -4.8019,-12.38378 23.81911,-92.59883 41.74395,-116.99426 7.46407,-10.15848 7.24692,-7.48481 -0.8658,10.66005 -9.2863,20.7697 -18.17255,48.63406 -18.15381,56.92438 0.0134,5.91845 -3.36363,28.0509 -5.21446,34.17489 -1.94813,6.4459 -4.18692,9.4875 -11.48369,15.60161 -3.97481,3.33058 -5.66623,19.6623 -2.25473,21.77073 0.54943,0.33957 2.74493,-0.95998 4.87888,-2.88788 2.13396,-1.9279 5.06346,-4.28076 6.51,-5.22857 1.44654,-0.94781 3.22733,-3.15271 3.95729,-4.89977 2.08145,-4.9816 7.1916,-10.16292 15.22422,-15.43626 16.07543,-10.55335 35.99551,-32.35972 48.35319,-52.93188 6.5072,-10.8327 7.36564,-11.19903 6.82583,-2.91287 -0.65054,9.98603 -13.55356,34.67643 -24.59602,47.06538 -17.29969,19.40918 -29.76124,28.14579 -41.31409,28.96468 -12.73,0.90232 -18.18217,7.73642 -17.98707,22.54616 0.14705,11.16227 0.38875,12.25638 2.28802,10.35711 0.65083,-0.65083 1.9795,-1.18333 2.9526,-1.18333 1.04532,0 3.16894,-2.18804 5.18996,-5.34739 4.75813,-7.43816 7.75974,-8.45412 30.07307,-10.17889 9.93724,-0.76813 22.94054,-1.93308 28.89623,-2.58878 11.99596,-1.32071 17.07986,-0.65198 25.45433,3.34824 l 4.71714,2.25324 -11.5,0.6126 c -10.69351,0.56964 -12.76234,1.04547 -29.5,6.78502 -33.45628,11.47255 -37.39609,12.13964 -45.68073,7.73466 -7.89924,-4.20007 -11.69298,-1.38017 -13.35469,9.92661 l -1.03542,7.04532 2.82771,-0.41502 c 1.55524,-0.22826 4.80558,0.34033 7.22296,1.26354 3.63955,1.38995 5.06049,1.47925 8.26431,0.51936 7.74509,-2.32048 17.70865,0.65614 39.46211,11.78934 21.13219,10.81524 31.8606,15.83393 41.79375,19.55088 31.39432,11.74766 33.78636,13.09953 21.5,12.15083 -10.23435,-0.79026 -29.84856,-4.66508 -39.5,-7.8033 -4.125,-1.34127 -12.675,-3.87508 -19,-5.63069 -22.58736,-6.26951 -28.55966,-8.21584 -32.87461,-10.71362 -5.93317,-3.43451 -11.37227,-8.48829 -13.61253,-12.6482 -4.80777,-8.92749 -14.59241,-8.70711 -18.07286,0.40706 -4.09471,10.72272 -14.84365,35.72408 -16.62596,38.67095 -1.07504,1.77747 -1.62846,3.7595 -1.22982,4.40451 0.40563,0.65632 0.29522,0.90725 -0.25072,0.56984 -0.53654,-0.3316 -1.77626,1.62388 -2.75494,4.34549 -0.97868,2.72162 -2.18423,4.9484 -2.67899,4.9484 -1.5514,0 -1.02655,-1.6758 3.55464,-11.34965 9.22336,-19.47649 16.18096,-36.16543 19.24003,-46.15035 2.72564,-8.89658 2.82587,-40.98176 0.14815,-47.42508 -2.14625,-5.16445 -7.21842,-10.57859 -8.9233,-9.52491 -0.50137,0.30986 -1.87415,0.74875 -3.05064,0.97532 -2.5971,0.50016 -2.17728,-0.0145 -4.69748,5.75844 -2.97846,6.82263 -5.95094,7.8397 -24.78409,8.4802 -22.07897,0.75089 -36.04178,-4.42532 -44.91319,-16.64993 -4.24549,-5.85019 -4.26241,-5.84564 5.12274,-1.37713 l 7.90357,3.76309 28.83046,0 c 21.84198,0 29.08304,-0.303 29.87245,-1.25 0.57309,-0.6875 1.91344,-1.25 2.97855,-1.25 3.13421,0 1.07371,-1.8542 -3.39882,-3.05853 -3.60526,-0.97079 -4.60673,-0.84659 -7.84394,0.97282 -10.07873,5.66457 -22.14845,1.83154 -46.39742,-14.73463 -26.03797,-17.78835 -45.61913,-38.4141 -51.78355,-54.54602 -2.09165,-5.47373 -3.74916,-21.36441 -2.12367,-20.3598 z"
         id="path3993"
         inkscape:connector-curvature="0" />
      <path
         style="fill:#b7c7aa"
         d="m 394.07145,491.57108 c 0.29302,0 2.53658,4.31736 4.9857,9.59413 10.94495,23.58156 46.41218,52.6817 79.29487,65.05981 8.66944,3.26346 15.33876,6.74485 17.49711,9.13349 1.0243,1.13359 3.77203,2.29777 6.32787,2.68104 3.17506,0.47613 5.69076,1.73746 8.46599,4.24472 4.28572,3.87188 4.30532,3.87272 5.85843,0.25019 0.93615,-2.18355 1.01439,-2.00899 0.68871,1.53662 -0.20207,2.2 0.2822,5.66164 1.07617,7.69253 l 1.44357,3.69254 7.38459,-6.06089 c 4.06153,-3.33349 7.63885,-6.86197 7.9496,-7.84107 1.44172,-4.54244 7.03435,-10.16508 16.19826,-16.28517 9.26602,-6.18829 30.00293,-26.25339 35.19568,-34.05546 0.88039,-1.32277 3.8892,-5.72096 6.68625,-9.77376 2.79705,-4.0528 6.32731,-9.50622 7.84502,-12.11872 5.65693,-9.73751 6.4792,-0.97504 1.12764,12.01654 -13.00933,31.58175 -44.88786,64.23346 -62.71244,64.23346 -5.1327,0 -9.6042,2.2063 -15.08418,7.44273 -3.6391,3.47738 -3.91237,5.14747 -2.95462,18.05727 0.58817,7.92798 0.45013,12.95492 -0.49427,18 -1.7101,9.13553 -1.76856,8.84117 1.62128,8.1632 1.64065,-0.32813 4.99695,0.11613 7.61392,1.00782 3.67217,1.25123 5.43,1.36442 8.16311,0.5256 6.22832,-1.91152 17.43182,0.82803 30.44522,7.44466 26.77438,13.61338 40.0467,19.84036 50.84377,23.85439 25.93378,9.64141 33.69208,13.33708 25.25,12.02785 -1.5125,-0.23456 -5.675,-0.6757 -9.25,-0.9803 -9.47521,-0.80733 -24.66683,-4.18652 -38.96893,-8.66816 -6.89209,-2.15968 -16.13107,-4.83487 -20.53107,-5.94488 -21.73788,-5.48392 -32.02321,-10.46387 -37.48519,-18.14956 -10.81202,-15.21386 -16.19346,-14.31809 -23.47902,3.90823 -2.59669,6.49613 -5.05203,12.26115 -5.45632,12.81115 -0.40429,0.55 -1.55294,3.25 -2.55256,6 -0.99961,2.75 -3.07311,7.475 -4.60778,10.5 -1.53466,3.025 -3.95011,8.15667 -5.36767,11.40372 -1.41755,3.24704 -2.81766,5.66342 -3.11135,5.36973 -0.29369,-0.2937 1.32721,-4.52537 3.60201,-9.40372 9.19884,-19.72711 17.5959,-39.8392 19.77747,-47.36973 3.64471,-12.5811 3.67712,-40.30293 0.057,-48.77458 -4.45165,-10.41764 -14.36454,-12.3863 -16.37095,-3.25121 -1.62535,7.4002 -7.88712,9.36847 -30.00566,9.43175 -18.54192,0.053 -32.9285,-5.7845 -40.03693,-16.2455 -3.54814,-5.22156 -3.20581,-5.35956 4.28693,-1.72813 9.54992,4.62846 15.93295,5.939 25.08983,5.15133 4.21309,-0.36241 15.34215,-0.85486 24.73124,-1.09433 17.96281,-0.45816 26.01241,-2.03633 21.82286,-4.27851 -4.36133,-2.33411 -8.97625,-2.43857 -12.978,-0.29376 -18.17217,9.7397 -78.01138,-30.80132 -95.20323,-64.50013 -3.64237,-7.13968 -6.95387,-24.41693 -4.67993,-24.41693 z m 121.95968,67.5 c 0.184,-0.55 1.75376,-5.725 3.48835,-11.5 15.10498,-50.28908 25.29332,-74.98243 38.1027,-92.34905 7.08545,-9.60626 6.96784,-8.04026 -0.67416,8.97655 -11.6857,26.02113 -16.87991,44.28789 -19.86843,69.8725 -2.74088,23.46443 -4.82987,29.21818 -13.05529,35.95829 -2.46708,2.02159 -4.4856,4.32048 -4.4856,5.10866 0,2.29175 -1.39388,1.64595 -2.75,-1.27412 -1.1174,-2.40604 -1.61976,-12.21556 -0.75757,-14.79283 z m 15.26133,54.5 c 5.95408,-8.76827 8.57079,-9.79791 28.19426,-11.09405 7.45359,-0.49231 19.5787,-1.59049 26.9447,-2.4404 14.83346,-1.71153 20.044,-1.31544 27.85728,2.11761 6.71113,2.94878 6.62381,3.66116 -0.37449,3.05513 -8.36348,-0.72425 -15.16053,0.71417 -34.96553,7.39956 -9.85049,3.32513 -20.15998,6.79741 -22.90998,7.71617 -7.63773,2.55172 -18.15126,2.17186 -23.12386,-0.83547 l -3.99905,-2.41855 2.37667,-3.5 z"
         id="path3991"
         inkscape:connector-curvature="0" />
      <path
         style="fill:#a2ab92"
         d="m 393.83048,491.57108 c 0.31954,0 2.62108,4.30669 5.11454,9.57042 11.9911,25.31346 45.35371,52.21349 82.38133,66.42346 4.5582,1.74929 10.23416,4.66633 12.61323,6.48232 2.37907,1.81598 6.1411,3.60852 8.36007,3.98341 2.50004,0.42238 5.49966,1.98565 7.88677,4.11023 4.5438,4.04406 5.1035,4.14728 6.39951,1.18016 0.83887,-1.92054 0.92541,-1.7375 0.59099,1.25 -0.40726,3.63817 1.91531,11 3.47036,11 0.49028,0 0.89142,-0.4226 0.89142,-0.9391 0,-0.51651 2.92499,-3.10401 6.49999,-5.75 3.57499,-2.646 6.49999,-5.29625 6.5,-5.88946 4e-5,-3.55397 6.83441,-10.79841 16.30466,-17.28294 18.04014,-12.35257 40.96653,-38.34129 51.06731,-57.8885 4.88631,-9.45607 4.63287,3.34695 -0.2882,14.55916 -14.25699,32.48324 -44.65448,63.09178 -62.73335,63.16888 -5.64688,0.0241 -14.4113,5.382 -17.05383,10.42544 -1.60432,3.06196 -0.60804,25.30798 1.05876,23.64118 0.57456,-0.57456 1.45451,-1.04466 1.95544,-1.04466 0.50094,0 0.0112,0.7875 -1.08832,1.75 -1.40958,1.23394 -2.35221,4.05926 -3.19652,9.58093 -1.32601,8.67191 -1.15652,9.34451 1.93738,7.6887 1.62231,-0.86823 3.02286,-0.83886 5.83565,0.12239 2.07114,0.70779 8.60708,1.28531 14.84132,1.31139 l 11.14029,0.0466 26.35971,13.20677 c 14.68061,7.35529 33.89184,16.07081 43.35971,19.67091 9.35,3.55527 18.575,7.15711 20.5,8.00409 l 3.5,1.53995 -5.57378,0.0391 c -10.74717,0.0755 -26.55869,-3.31315 -54.92622,-11.77152 -7.425,-2.21391 -17.75806,-5.20885 -22.96236,-6.65541 -14.34849,-3.98823 -23.40263,-10.02747 -29.11437,-19.41967 -1.08071,-1.77708 -3.53396,-3.56393 -6.39124,-4.65514 -6.6672,-2.54623 -8.57411,-0.83729 -13.99375,12.54092 -8.3461,20.60212 -11.55505,28.13579 -13.54178,31.7921 -1.10812,2.03934 -3.14148,6.36457 -4.51858,9.61162 -1.3771,3.24704 -2.74993,5.6576 -3.05073,5.35681 -0.30079,-0.3008 2.18004,-6.24832 5.51296,-13.21672 3.33292,-6.9684 6.05985,-12.9073 6.05985,-13.19755 0,-0.29024 1.85868,-4.87439 4.1304,-10.18699 2.27172,-5.3126 4.70413,-11.00927 5.40536,-12.65927 8.02851,-18.89133 6.66218,-56.47954 -2.30955,-63.53671 -4.59483,-3.61429 -10.48877,-1.59731 -11.72055,4.01092 -0.98907,4.50321 -5.55516,7.76312 -12.00185,8.56858 -29.02412,3.62633 -49.27877,-2.1662 -58.77686,-16.80929 -2.22467,-3.42974 -2.44096,-3.45827 7.47461,0.98569 9.46055,4.24002 10.59829,4.31863 45.29844,3.12995 13.66351,-0.46805 19.98304,-1.08054 22.5,-2.1807 l 3.5,-1.52984 -3.71788,-1.5693 c -4.87951,-2.05962 -7.05669,-1.98003 -11.78212,0.4307 -9.60486,4.90003 -20.83682,1.26554 -43.5,-14.07595 -36.4022,-24.6419 -54.01402,-46.16816 -56.18603,-68.67405 -0.33175,-3.4375 -0.34174,-6.25 -0.0222,-6.25 z m 123.14149,65 c 15.01806,-52.05447 25.63683,-78.8793 39.26653,-99.19403 8.57898,-12.78676 8.43614,-10.3327 -0.55537,9.54119 -8.81013,19.473 -15.93535,42.71191 -17.52348,57.15284 -3.67443,33.41191 -4.89171,37.31804 -14.40723,46.23117 -3.07159,2.87714 -5.66529,5.12714 -5.76376,5 -2.7026,-3.48934 -3.13195,-11.39944 -1.01669,-18.73117 z m 14.99686,56 c 5.02298,-7.60248 7.99883,-8.64728 28.56987,-10.03064 7.975,-0.5363 17.79685,-1.45981 21.82634,-2.05224 12.7227,-1.87053 23.9067,-1.50149 30.40465,1.00325 8.15032,3.14167 7.78907,3.57613 -3.07345,3.69628 -9.3596,0.10352 -10.45964,0.37581 -35.65754,8.82627 -28.7428,9.63929 -32.21163,10.09525 -40.6636,5.34498 -4.4548,-2.50374 -4.40277,-2.25258 -1.40627,-6.7879 z"
         id="path3989"
         inkscape:connector-curvature="0" />
      <path
         style="fill:#8b976e"
         d="m 393.95532,492.57108 c 0.37122,0 2.4422,3.8434 4.60218,8.5409 11.40105,24.79481 46.00309,52.61312 83.14568,66.84496 5.31546,2.03672 10.26546,4.43103 11,5.32069 0.73454,0.88966 2.68552,2.44296 4.33552,3.45177 1.67095,1.02162 2.31839,1.83586 1.46144,1.83794 -0.84621,0.002 -3.30385,0.90374 -5.46144,2.00374 -15.9019,8.10725 -65.44629,-23.33694 -88.95986,-56.45989 -6.63866,-9.3517 -13.76054,-31.54011 -10.12352,-31.54011 z m 43.33338,89.79929 c 8.73633,4.1717 9.87047,4.25076 45.91163,3.20071 19.0636,-0.55541 19.01121,-0.56874 17.36564,4.41736 -2.37726,7.20319 -7.24426,8.61081 -30.52727,8.82903 -15.98697,0.14983 -24.85355,-3.02461 -34.84908,-12.47679 -7.72096,-7.30125 -7.14762,-8.38571 2.09908,-3.97031 z m 69.27108,0.48495 c 1.70632,-0.44622 1.82312,-0.78204 0.75,-2.15638 -1.44108,-1.84557 0.76453,-0.3661 4.6545,3.12214 1.07335,0.9625 2.48923,1.75 3.1464,1.75 0.65718,0 1.40174,1.0822 1.65459,2.40489 0.42151,2.20497 0.18363,2.11214 -2.86157,-1.11671 -2.70649,-2.86971 -3.88066,-3.4395 -6.34315,-3.07808 -3.40973,0.50044 -4.08082,-0.12041 -1.00077,-0.92586 z m 9.65664,-22.78424 c 1.72155,-7.72496 14.49634,-47.86713 19.50153,-61.27957 5.20765,-13.95499 15.51383,-34.21917 21.71633,-42.69902 6.61701,-9.04655 6.43681,-7.2835 -0.86905,8.50231 -11.54517,24.94573 -16.51638,42.55948 -19.98045,70.79383 -2.84943,23.22461 -5.69285,30.16728 -14.80676,36.15321 -1.23163,0.80892 -2.25429,2.15892 -2.27259,3 -0.024,1.1036 -0.58068,0.87215 -2,-0.83154 -1.90787,-2.29013 -2.47675,-8.3096 -1.28901,-13.63922 z m 4.52975,35.5 c 0.55358,0 0.7284,0.72475 0.38848,1.61055 -1.07363,2.79783 0.56517,23.40525 1.80241,22.66482 0.62257,-0.37258 0.56489,0.004 -0.13262,0.86617 -0.67885,0.83901 -1.57885,3.9002 -2,6.80266 -0.53735,3.7032 -0.81034,-0.27369 -0.91526,-13.3335 -0.0958,-11.91974 0.21234,-18.6107 0.85699,-18.6107 z m 7.09219,42.0442 c 0.43981,-0.0243 2.13138,0.64446 3.75903,1.48615 2.17393,1.12418 3.47034,1.25689 4.8846,0.5 6.82542,-3.65285 17.30462,-0.5418 44.92956,13.33866 13.54493,6.8058 29.12715,14.05593 34.62715,16.1114 14.51747,5.42548 29.92221,11.61111 30.5,12.24698 3.39453,3.73581 -41.39595,-5.49083 -62,-12.77171 -1.375,-0.48589 -6.325,-1.8242 -11,-2.97404 -20.69547,-5.09012 -32.64006,-11.96651 -37.91847,-21.8293 -0.62881,-1.17493 -2.81689,-3.01998 -4.86241,-4.10009 -2.04551,-1.08012 -3.35927,-1.98375 -2.91946,-2.00805 z m 4.92247,-25.63945 c 4.4041,-6.58995 9.23354,-8.16041 28.95626,-9.41611 8.21939,-0.52331 17.82213,-1.45262 21.33941,-2.06512 10.75112,-1.87223 24.99867,-0.87025 31.4822,2.21403 l 5.5,2.61641 -6.21944,-0.5131 c -8.31755,-0.68619 -14.57201,0.67289 -35.83516,7.78687 -33.06744,11.06332 -36.138,11.50892 -44.72327,6.4902 l -3.77788,-2.20844 3.27788,-4.90474 z m 2.19348,-30.13003 c 3.03643,-5.98365 7.8672,-10.71092 17.08439,-16.71836 14.6341,-9.53801 40.43606,-38.86182 49.10387,-55.80636 6.39504,-12.50152 5.56087,2.18363 -0.90638,15.95633 -14.78974,31.49637 -42.06652,58.24458 -61.44048,60.24985 -3.44135,0.35619 -6.19593,0.62427 -6.12128,0.59572 0.0747,-0.0285 1.1006,-1.95328 2.27988,-4.27718 z"
         id="path3987"
         inkscape:connector-curvature="0" />
      <path
         style="fill:#708855"
         d="m 399.98124,504.07108 c 11.75546,23.84834 44.09303,48.90186 83.9884,65.06998 3.81202,1.54487 8.44187,4.13547 10.28856,5.75688 l 3.35761,2.94803 -3.28855,2.00254 c -8.3656,5.09416 -21.03468,1.71325 -39.6958,-10.59333 -39.56436,-26.09179 -60.06278,-50.55315 -60.07071,-71.6841 l -0.002,-4.5 5.42218,11 z m 37.30746,78.29929 7.75,3.70071 14.5,0 c 7.975,0 20.42498,-0.225 27.66663,-0.5 14.85946,-0.56428 15.15958,-0.45774 13.20159,4.68671 -2.64775,6.95672 -5.5933,7.81329 -26.86822,7.81329 l -18.5,0 -7.65574,-3.65594 c -7.33219,-3.50144 -17.84426,-12.10875 -17.84426,-14.61093 0,-0.62532 3.4785,0.52647 7.75,2.56616 z m 80.15497,-25.79929 c 13.45369,-48.86301 26.85087,-82.43219 40.21239,-100.7598 6.43736,-8.82994 6.18121,-7.49827 -1.98055,10.29636 -10.66408,23.25028 -15.87581,41.30367 -18.60958,64.46344 -3.20242,27.12997 -4.16316,30.01242 -12.76274,38.29113 -3.30856,3.18511 -6.12312,5.66011 -6.25458,5.5 -2.92082,-3.55779 -3.09702,-8.74003 -0.60494,-17.79113 z m 5.02766,6 c 1.11659,-1.92113 9.28205,-35.11865 8.76514,-35.63556 -0.21367,-0.21367 -1.39792,3.55442 -2.63167,8.37353 -1.23375,4.81912 -3.28809,12.58703 -4.56519,17.26203 -2.55322,9.34634 -3.05759,12.56243 -1.56828,10 z m 10.06483,50.2005 c 1.11834,-1.81472 2.48756,-3.01877 3.04272,-2.67567 0.55515,0.34311 0.88572,0.0361 0.7346,-0.68213 -0.59924,-2.84808 7.2721,-5.19809 20.20224,-6.03144 6.88764,-0.4439 17.85176,-1.48303 24.36472,-2.30918 18.90146,-2.39758 30.12077,-1.54921 35.93885,2.71758 1.46442,1.07396 0.25265,1.28034 -7.51738,1.28034 -9.77583,0 -10.97138,0.29206 -35.76321,8.7367 -20.84557,7.10044 -23.36947,7.74787 -30.23422,7.75566 -5.94996,0.007 -7.08753,-0.31263 -9.76794,-2.74236 l -3.03372,-2.75 2.03334,-3.2995 z m 11.73219,1.82351 c 13.07377,-2.75382 13.69978,-2.92791 13.00979,-3.61791 -0.30076,-0.30075 -4.40886,0.22017 -9.12913,1.15761 -7.34301,1.4583 -8.83703,1.50456 -10.34631,0.32036 -1.63371,-1.28184 -1.65321,-1.24291 -0.264,0.52713 1.40893,1.79516 1.33488,1.87982 -1.21974,1.39445 -1.49585,-0.2842 -2.4818,-0.13174 -2.19098,0.33881 0.29081,0.47055 -0.0228,0.85554 -0.69693,0.85554 -0.67413,0 -0.93484,0.29084 -0.57936,0.64632 0.35547,0.35548 5.49297,-0.37457 11.41666,-1.62231 z m -8.52351,-33.52401 c 2.89959,-5.74473 6.17826,-8.963 15.79386,-15.5029 15.56548,-10.58661 35.74927,-32.68746 46.53851,-50.95872 6.5817,-11.14592 7.99068,-12.15086 7.06408,-5.03838 -3.75995,28.86114 -46.63139,77.24068 -67.1685,75.79828 l -4.2469,-0.29828 2.01895,-4 z m 0.38842,58.63887 c 7.74899,-3.53068 17.20087,-0.73399 45.3795,13.42718 13.58679,6.82804 29.61336,14.24121 35.6146,16.47371 13.60967,5.06289 28.74936,11.11227 29.41134,11.75192 3.18881,3.08121 -30.11543,-3.35923 -54.5,-10.53932 -9.35,-2.75313 -21.23343,-6.21455 -26.40762,-7.69205 -15.2936,-4.36711 -22.9379,-9.11508 -29.10356,-18.07655 l -2.89381,-4.20602 2.49955,-1.13887 z m 23.04656,12.44609 c 4.74576,1.91323 8.80071,3.30655 9.01099,3.09626 0.31722,-0.31722 -16.64697,-7.48359 -20.09574,-8.48926 -3.18737,-0.92944 3.6334,2.38902 11.08475,5.393 z"
         id="path3985"
         inkscape:connector-curvature="0" />
      <path
         style="fill:#65774c"
         d="m 395.86929,496.07108 c 10.78208,27.44844 45.85925,56.91496 86.16941,72.38649 4.4,1.68877 9.73833,4.50483 11.86295,6.25791 l 3.86296,3.18742 -3.36296,1.79217 c -9.56402,5.09684 -21.62629,1.64365 -41.86295,-11.98453 -38.45995,-25.90048 -58.27998,-49.953 -57.92392,-70.29337 l 0.0761,-4.34609 1.17843,3 z m 33.91941,49.47531 c 0.4125,0.0136 1.60418,0.87887 2.64817,1.92286 1.04399,1.04399 3.90288,3.07301 6.35309,4.50893 2.45021,1.43591 5.26578,3.50674 6.25682,4.60183 0.99104,1.09509 2.22939,1.99107 2.75188,1.99107 0.5225,0 2.96466,1.35968 5.42703,3.02152 2.46237,1.66183 6.35263,3.93201 8.64502,5.04484 4.60865,2.23724 2.99086,0.79452 -3.43847,-3.06636 -4.46161,-2.67925 -10.41176,-6.59111 -21.88491,-14.38798 -3.95599,-2.68839 -9.79893,-7.30089 -12.98432,-10.25 -3.18539,-2.94911 -6.10397,-5.36202 -6.48572,-5.36202 -0.92703,0 11.75082,11.94369 12.71141,11.97531 z m 7,36.84191 7.25,3.68278 15,0 c 8.25,0 20.93998,-0.21002 28.19995,-0.46671 15.04253,-0.53187 14.774,-0.62474 13.07174,4.52059 -2.20044,6.65112 -5.39802,7.73784 -24.28901,8.2548 -21.38401,0.58519 -30.9206,-2.45547 -42.01992,-13.39765 -6.27737,-6.18851 -5.57538,-6.84178 2.78724,-2.59381 z m 79.81771,-22.29781 c 0.45785,-2.73932 1.7284,-7.46432 2.82342,-10.5 1.09503,-3.03567 2.8947,-8.89441 3.99927,-13.01941 8.63958,-32.26452 24.07975,-67.67658 36.62521,-84 3.66211,-4.76493 2.72696,-1.89447 -4.15307,12.74786 -10.45089,22.24196 -16.22251,42.10328 -18.81672,64.75214 -3.05564,26.67745 -4.88133,31.99382 -13.57264,39.52324 l -5.76993,4.99857 -1.10162,-3.16013 c -1.22375,-3.51045 -1.22585,-4.21109 -0.0339,-11.34227 z m 4.8454,6.98059 c 1.05134,-2.2 2.66645,-7.11508 3.58913,-10.92241 0.92267,-3.80732 2.35091,-7.95003 3.17387,-9.20602 0.82295,-1.25599 1.21067,-2.74575 0.86158,-3.31058 -0.34908,-0.56484 -0.32944,-2.65414 0.0437,-4.6429 0.43139,-2.2995 0.96011,-3.16004 1.45227,-2.36372 0.48824,0.79 0.73371,0.36511 0.665,-1.15108 -0.12205,-2.6936 3.50677,-19.02771 6.4028,-28.82037 1.04377,-3.5294 1.7192,-6.59564 1.50096,-6.81388 -0.68107,-0.68108 -10.89743,32.9235 -12.15824,39.99201 -0.36897,2.06857 -1.07718,4.01216 -1.5738,4.31909 -0.49663,0.30693 -0.6772,0.92334 -0.40128,1.36979 0.44052,0.71277 -2.06023,10.90746 -4.42766,18.05007 -1.781,5.37332 -1.17885,7.79095 0.87172,3.5 z m 12.14889,44.57311 c 4.28843,-5.92 7.59239,-6.94584 27.74798,-8.61538 9.72951,-0.80593 21.06502,-1.89385 25.19002,-2.41761 14.26467,-1.81122 24.98782,-0.68567 30.29162,3.17954 1.47804,1.07714 0.68174,1.22484 -5.01738,0.93063 -8.932,-0.4611 -33.80985,6.0807 -50.66627,13.32303 -2.26183,0.9718 -4.98438,1.41958 -6.5,1.06907 -1.69122,-0.39113 -2.13885,-0.28971 -1.27344,0.2885 3.31139,2.21242 -13.5323,3.07196 -17.72233,0.90437 -2.30687,-1.19339 -2.66337,-3.13366 -0.6122,-3.33191 0.55,-0.0532 1.675,-0.37161 2.5,-0.70766 0.825,-0.33605 6.9,-1.56949 13.5,-2.74097 6.6,-1.17149 14.475,-2.72967 17.5,-3.46262 3.025,-0.73295 8.39269,-2.03371 11.9282,-2.89058 6.29292,-1.52514 10.24509,-3.60152 6.85513,-3.60152 -0.88916,0 -1.77584,0.47753 -1.97039,1.06117 -0.20316,0.60949 -3.6759,1.12472 -8.15872,1.21047 -4.35301,0.0833 -6.99767,0.46741 -5.97961,0.86854 1.61122,0.63486 1.56903,0.7275 -0.35951,0.78953 -1.2017,0.0387 -3.28555,-0.34818 -4.63078,-0.85963 -1.51391,-0.57559 -4.68227,-0.56868 -8.3151,0.0181 -3.22807,0.52143 -8.11922,0.97076 -10.86922,0.99849 -4.19961,0.0424 -4.59981,0.19608 -2.5,0.96028 2.11468,0.76962 1.95306,0.83495 -1.04858,0.4239 -3.71441,-0.50865 -5.82627,0.56807 -7.9026,4.02911 -0.95468,1.59135 -1.08458,1.63182 -0.63578,0.19806 0.32924,-1.05179 0.15252,-1.5476 -0.42449,-1.19098 -0.5437,0.33602 -0.98855,1.21125 -0.98855,1.94495 0,0.7337 -0.675,1.59301 -1.5,1.9096 -2.03166,0.77962 -1.9531,0.56394 1.562,-4.28852 z m 2.14032,-30.57311 c 2.87383,-5.69539 7.1932,-9.91222 15.83677,-15.46082 14.42726,-9.26133 34.79145,-31.60092 47.09406,-51.66234 6.50969,-10.61514 7.36489,-11.18887 6.45511,-4.33062 -3.82697,28.8491 -47.55788,77.61438 -67.94522,75.76719 l -3.45908,-0.31341 2.01836,-4 z m 1.71181,58.40758 c 8.7566,-2.62354 16.27895,-0.2621 44.95272,14.11171 14.48821,7.26277 32.58973,15.44682 41.63315,18.82318 8.8,3.28548 17.575,6.67237 19.5,7.52642 l 3.5,1.55283 -3.62467,0.0391 c -7.01571,0.0758 -28.51712,-4.20975 -43.36428,-8.64306 -8.25608,-2.46524 -20.86105,-6.04018 -28.01105,-7.94432 -20.03269,-5.33497 -29.37212,-10.4946 -34.6158,-19.12372 -1.25325,-2.06237 -2.71385,-4.04703 -3.24579,-4.41037 -0.53194,-0.36333 0.94213,-1.23265 3.27572,-1.93181 z m 13.83587,9.68127 c 3.1625,1.36333 6.65,2.90409 7.75,3.42389 2.6205,1.23832 25.80574,10.3357 36,14.1256 11.86133,4.40968 19.76209,6.9329 20.23321,6.46178 0.22963,-0.22963 -0.6289,-0.73365 -1.90785,-1.12005 -1.27895,-0.38639 -3.67536,-1.27358 -5.32536,-1.97152 -1.65,-0.69794 -7.05,-2.69766 -12,-4.44383 -4.95,-1.74617 -9.72389,-3.56416 -10.60864,-4.03998 -1.21736,-0.6547 -24.1739,-10.00759 -38.64136,-15.74316 -4.22783,-1.67611 -0.20992,1.27685 4.5,3.30727 z"
         id="path3983"
         inkscape:connector-curvature="0" />
      <path
         style="fill:#5e892d"
         d="m 400.74885,516.14483 c 1.44459,1.08966 2.30453,2.52739 1.99467,3.33489 -0.33764,0.87986 -0.11666,1.15491 0.58131,0.72354 0.64214,-0.39687 1.89688,0.4872 2.91994,2.05734 0.98666,1.51429 3.09817,4.00363 4.69224,5.53187 1.59408,1.52823 2.49408,2.79358 2,2.81188 -0.49407,0.0183 0.0951,0.86243 1.30917,1.87586 1.21411,1.01342 1.88911,2.1956 1.5,2.62705 -0.38912,0.43146 -0.21032,0.50115 0.39731,0.15487 0.60763,-0.34628 2.85763,1.17561 5,3.38196 2.14237,2.20635 5.80771,5.16029 8.14521,6.56429 2.3375,1.40401 4.25,2.88847 4.25,3.29879 0,0.41033 2.16265,1.92311 4.80588,3.36174 2.64323,1.43863 5.63798,3.53515 6.65499,4.65893 1.01701,1.12378 2.2766,2.04324 2.79909,2.04324 0.5225,0 2.96466,1.35968 5.42703,3.02152 2.46237,1.66183 6.35263,3.91674 8.64502,5.0109 2.2924,1.09416 3.32623,1.42198 2.29741,0.72848 -1.02882,-0.69349 -3.27882,-2.26191 -5,-3.48537 -1.72118,-1.22346 -4.06897,-2.64709 -5.21731,-3.16362 -1.14835,-0.51653 -3.90683,-2.21552 -6.12996,-3.77553 -2.22314,-1.56001 -6.79875,-4.75417 -10.16803,-7.09814 -13.48503,-9.38138 -30.0895,-26.38062 -29.29724,-29.99378 0.17429,-0.79484 -0.11606,-1.17759 -0.64521,-0.85056 -0.52916,0.32704 -1.23425,-0.11461 -1.56689,-0.98143 -1.11499,-2.90563 -0.62284,-2.79291 2.35151,0.53857 1.62595,1.82119 2.86345,3.79428 2.75,4.38465 -0.11346,0.59037 0.26171,1.09386 0.83371,1.11886 1.78494,0.078 14.36801,11.88527 13.74335,12.89599 -0.3258,0.52716 -0.12754,0.6712 0.44058,0.32008 0.56812,-0.35112 3.90015,1.49186 7.40451,4.09549 3.50436,2.60364 7.54592,5.49039 8.98125,6.41501 1.43533,0.92461 3.33176,2.40318 4.21429,3.28571 0.88252,0.88253 1.95816,1.62954 2.39031,1.66003 1.8889,0.13325 6.1217,3.32949 5.57682,4.21113 -0.33007,0.53407 -0.14726,0.69114 0.40624,0.34906 0.5535,-0.34208 4.11053,0.99884 7.90451,2.97983 3.79398,1.98099 9.73098,4.67013 13.19333,5.97587 21.48442,8.10234 26.00334,15.386 9.52055,15.34538 -15.94443,-0.0393 -51.03167,-22.15134 -70.19499,-44.23701 -3.93763,-4.53812 -7.751,-8.92612 -8.47415,-9.75112 -1.26616,-1.44449 -6.41854,-8.98908 -8.14103,-11.92085 -0.50386,-0.8576 0.17186,-0.66153 1.70458,0.4946 z m 29.38824,63.42625 c 0.40896,0 3.70412,1.45556 7.32258,3.23457 7.76925,3.81975 18.46595,4.53798 44.57903,2.99327 19.30774,-1.14215 22.58409,0.30695 16.67533,7.37534 -6.52578,7.8065 -46.23774,7.33441 -54.21667,-0.64452 -1.07726,-1.07726 -2.34678,-1.95866 -2.82116,-1.95866 -1.27347,0 -7.93657,-5.47484 -10.26376,-8.43338 -1.1104,-1.41164 -1.6843,-2.56662 -1.27535,-2.56662 z m 52.59713,13.1329 c 4.39078,-1.26565 -3.73237,-1.5149 -12.19552,-0.37421 l -5.5,0.74131 7.19552,0.29271 c 3.95753,0.16099 8.68253,-0.13592 10.5,-0.65981 z m 33.82133,-31.6329 c 4.28389,-25.16249 27.41958,-84.95982 40.11706,-103.68798 7.60572,-11.21807 7.24789,-9.08509 -1.62522,9.68798 -3.1195,6.6 -7.17715,16.54476 -9.01701,22.09946 -5.7281,17.29375 -7.45482,25.85867 -10.56416,52.40054 -1.85991,15.87661 -4.30825,21.62079 -11.93825,28.00898 -6.77326,5.67089 -8.93697,3.03034 -6.97242,-8.50898 z m 4.61291,0.38921 c -1.14845,5.67295 -1.63543,9.63187 -0.99769,8.11079 0.3459,-0.825 1.18819,-2.175 1.87176,-3 0.68356,-0.825 1.54524,-3.1875 1.91482,-5.25 0.36959,-2.0625 1.11571,-3.75 1.65805,-3.75 0.54234,0 1.28427,-0.7875 1.64873,-1.75 0.36446,-0.9625 1.25034,-2.34464 1.96862,-3.07143 0.71827,-0.72678 1.31284,-2.30178 1.32126,-3.5 0.0111,-1.58497 0.24706,-1.81292 0.86585,-0.83662 1.13855,1.79638 2.06982,-3.04098 1.50286,-7.80642 -0.33975,-2.85561 -0.22934,-3.15091 0.57408,-1.53553 1.0102,2.03112 0.93214,0.4844 -0.44157,-8.75 -0.26591,-1.7875 -0.005,-3.925 0.58088,-4.75 0.83443,-1.17596 0.94786,-0.95814 0.52508,1.00831 -0.2966,1.37957 -0.11265,3.17957 0.40877,4 0.6299,0.9911 0.79488,-0.6896 0.49162,-5.00831 -0.26953,-3.83845 -0.10463,-5.93294 0.40271,-5.11514 0.51217,0.82557 0.64134,-0.54747 0.31983,-3.39983 -0.42783,-3.79574 -0.26711,-4.61647 0.77758,-3.97082 0.93184,0.57592 1.14408,0.36357 0.72587,-0.72625 -0.7362,-1.9185 3.10249,-14.78796 4.41093,-14.78796 0.52703,0 0.67353,-0.46066 0.32556,-1.02369 -0.58156,-0.94099 1.95046,-9.14548 3.54174,-11.47631 0.90175,-1.32084 2.96978,-7.5 2.51009,-7.5 -1.26611,0 -9.5675,20.77863 -13.58355,34 -1.75418,5.775 -4.03637,13.16182 -5.07153,16.41516 -1.03516,3.25333 -1.88211,6.48927 -1.88211,7.19098 0,0.7017 -0.46804,1.56509 -1.04008,1.91863 -0.66972,0.41391 -0.84563,-0.36629 -0.49402,-2.19098 l 0.54606,-2.83379 -1.12786,2.86565 c -0.84267,2.14103 -0.83775,3.04496 0.0194,3.57473 0.85074,0.52579 0.80039,1.53415 -0.1948,3.901 -0.73816,1.75556 -1.67338,2.86065 -2.07827,2.45575 -0.4049,-0.40489 -0.43925,0.0376 -0.0763,0.98335 0.37907,0.98785 0.18881,1.71952 -0.44715,1.71952 -0.60885,0 -1.1001,0.7875 -1.09168,1.75 0.0132,1.51273 0.16161,1.54662 1.09434,0.25 0.89739,-1.24751 0.97897,-1.19167 0.48468,0.33179 -0.32688,1.00748 -0.59433,2.91998 -0.59433,4.25 0,1.63056 -0.57,2.4232 -1.75,2.43352 -1.38563,0.0121 -1.46272,0.19727 -0.37024,0.88922 0.94032,0.59556 1.17919,1.86466 0.75,3.98468 z m 12.87024,55.74916 c 0.86996,-0.33383 1.5,-0.017 1.5,0.75434 0,0.91649 0.85492,1.16027 2.75,0.78416 l 2.75,-0.54578 -2.5,-0.71587 c -1.375,-0.39372 -1.825,-0.76686 -1,-0.82919 0.825,-0.0623 2.58287,-0.40308 3.90637,-0.75721 1.83286,-0.49041 2.21267,-0.33045 1.59363,0.67118 -0.61682,0.99804 -0.23267,1.16853 1.59363,0.70726 2.30034,-0.58101 2.32084,-0.54389 0.46524,0.84248 -1.06762,0.79764 -3.31762,1.51785 -5,1.60045 -2.41942,0.1188 -2.11815,0.29645 1.44113,0.84981 l 4.5,0.69961 -3.79966,0.1502 c -5.34065,0.2111 -11.4923,-2.94819 -8.20034,-4.21144 z m 1.82956,-36.13837 c 2.62872,-5.63899 5.97222,-8.9214 15.3303,-15.05021 14.06595,-9.21209 31.34091,-27.47197 43.33564,-45.80639 11.70625,-17.89345 10.93228,-17.0823 10.38488,-10.88376 -2.42381,27.4461 -47.85299,78.29498 -67.9601,76.06773 l -2.9554,-0.32737 1.86468,-4 z m 2.67051,58.38183 c 7.52937,-2.25585 16.11496,0.26034 36.99993,10.84361 10.175,5.15609 18.3929,9.78598 18.262,10.28865 -0.13091,0.50266 0.50541,0.62866 1.41404,0.27998 1.04254,-0.40006 1.40655,-0.23672 0.98662,0.44273 -0.40863,0.66118 0.0104,0.90124 1.08596,0.62206 0.96326,-0.25005 2.65138,0.2276 3.75138,1.06145 1.9838,1.50381 1.98244,1.51634 -0.16821,1.54789 -1.19252,0.0175 -2.95384,0.33327 -3.91405,0.70174 -1.09077,0.41857 -1.50442,0.27933 -1.10243,-0.3711 0.38799,-0.62779 -0.92252,-1.25107 -3.30136,-1.57014 -2.16961,-0.29101 -5.146,-1.47401 -6.61421,-2.6289 -1.4682,-1.15489 -3.98533,-2.0998 -5.59362,-2.0998 -1.60828,0 -2.66526,-0.41891 -2.34883,-0.9309 0.31644,-0.512 0.0485,-1.25653 -0.59549,-1.65451 -0.73122,-0.45192 -0.90292,-0.29014 -0.45729,0.4309 0.87251,1.41176 0.46072,1.43397 -2.89958,0.15638 -1.62497,-0.61781 -2.34933,-1.44462 -1.90106,-2.16994 0.48438,-0.78373 0.18469,-0.96477 -0.90491,-0.54665 -0.89602,0.34383 -6.91346,-1.37969 -13.37209,-3.83006 -6.45862,-2.45037 -11.98683,-4.44521 -12.28491,-4.43298 -1.09008,0.0447 4.49603,3.93398 5.68129,3.95552 1.92631,0.035 10.27675,4.32574 10.27675,5.28052 0,0.47287 0.42816,0.59514 0.95147,0.27171 0.9059,-0.55987 19.00091,6.25374 20.04853,7.54921 0.275,0.34006 1.175,0.65416 2,0.698 3.19921,0.16999 13.86628,4.63015 13.29281,5.55804 -0.35914,0.5811 0.27152,0.75045 1.54982,0.41616 1.18546,-0.31 2.37586,-0.2069 2.64533,0.22912 0.26947,0.43601 2.06992,1.08916 4.00099,1.45143 1.93108,0.36227 3.51105,0.99186 3.51105,1.39908 0,0.40722 0.7875,0.80526 1.75,0.88453 3.22291,0.26544 11.25,2.61355 11.25,3.29089 0,0.36822 1.57928,0.72886 3.50951,0.80143 1.93023,0.0726 4.44377,0.63193 5.58565,1.24305 1.14187,0.61111 2.325,0.86224 2.62917,0.55807 0.64184,-0.64184 -4.14483,-2.609 -6.34845,-2.609 -0.82165,0 -1.21898,-0.44485 -0.88296,-0.98855 0.33965,-0.54956 -0.0264,-0.74398 -0.82425,-0.4378 -0.78936,0.30291 -3.17523,-0.21939 -5.30194,-1.16066 -2.1267,-0.94127 -4.54173,-1.75676 -5.36673,-1.81219 -0.825,-0.0554 -1.37464,-0.70188 -1.22142,-1.43653 0.20686,-0.99188 -0.50106,-1.1645 -2.75,-0.67055 -1.91182,0.41991 -3.02858,0.26715 -3.02858,-0.41426 0,-0.59371 -1.09844,-1.07946 -2.44098,-1.07946 -1.34254,0 -2.72364,-0.45734 -3.0691,-1.01631 -0.34547,-0.55897 -1.04702,-0.75742 -1.55902,-0.44098 -0.51199,0.31643 -0.9309,0.12909 -0.9309,-0.41631 0,-1.85324 3.88869,-2.23532 6.90025,-0.67798 2.70663,1.39965 11.53412,4.795 28.62656,11.01072 12.36147,4.49529 12.09573,5.26805 -1.20445,3.50243 -11.95319,-1.58681 -21.44346,-3.75254 -37.32236,-8.51715 -7.975,-2.39297 -19.9,-5.73034 -26.5,-7.41639 -18.89332,-4.8265 -30.08056,-11.51489 -34.9229,-20.87893 l -1.58562,-3.06626 4.00859,-1.20101 z m 9.74993,-18.80288 c 1.2375,-0.0434 2.25,-0.48682 2.25,-0.98533 0,-0.49851 0.9,-0.67103 2,-0.38337 1.1,0.28766 2,0.0705 2,-0.48251 0,-0.55303 0.5625,-0.98463 1.25,-0.95909 4.44595,0.16511 6.26687,-0.40152 4.25,-1.32251 -2,-0.91329 -2,-0.91329 0,-0.81456 3.23523,0.15971 4.085,-0.10808 2.84616,-0.89689 -0.63461,-0.40408 1.16539,-0.81046 4,-0.90306 l 5.15384,-0.16838 -4.28169,1.32223 c -2.35493,0.72723 -4.82993,1.77527 -5.5,2.32897 -1.66003,1.37176 -13.62727,4.40381 -15.06276,3.81635 -0.63555,-0.2601 -0.14305,-0.50843 1.09445,-0.55185 z m 15.5,-17.56136 c 0.6875,-0.23081 3.95,-0.5978 7.25,-0.81553 3.3,-0.21774 11.87705,-0.98457 19.0601,-1.70406 12.86725,-1.28885 25.75743,0.45761 27.79133,3.76537 0.62116,1.0102 -21.17063,0.76676 -22.104,-0.24693 -0.41109,-0.44646 0.26507,-0.56243 1.50257,-0.25771 1.2375,0.30472 2.25,0.14616 2.25,-0.35235 0,-0.49851 1.2375,-0.9349 2.75,-0.96977 2.71988,-0.0627 2.72435,-0.0737 0.40765,-1.00194 -1.2883,-0.5162 -2.82943,-0.63752 -3.42473,-0.26961 -0.59531,0.36792 -4.71625,0.79516 -9.15765,0.94943 -4.4414,0.15426 -12.46277,0.64543 -17.82527,1.09148 -9.32645,0.77577 -11.24526,0.73324 -8.5,-0.18838 z m 10.36757,7.95147 c 2.13534,-0.44177 4.49009,-0.69794 5.23278,-0.56926 0.7427,0.12868 1.05364,-0.24613 0.69098,-0.83292 -0.76993,-1.24577 0.41724,-1.38012 2.19856,-0.2488 0.82931,0.52669 0.0862,1.20465 -2.24417,2.04731 -1.91623,0.69292 -3.89825,1.00387 -4.40448,0.691 -0.50623,-0.31287 -1.09532,-0.0441 -1.30909,0.59717 -0.27658,0.82972 -0.91624,0.87078 -2.21785,0.14236 -1.56966,-0.87842 -1.27837,-1.1376 2.05327,-1.82686 z m 11.07806,-3.25408 c 1.7576,0.0475 4.35496,-0.67334 5.77193,-1.60177 1.64329,-1.07672 3.12301,-1.38209 4.08594,-0.84321 1.10224,0.61685 0.0172,1.31529 -4.02031,2.58802 -3.88979,1.22614 -6.04949,1.45064 -7.28158,0.75692 -1.42326,-0.80137 -1.15257,-0.97007 1.44402,-0.89996 z"
         id="path3981"
         inkscape:connector-curvature="0" />
      <path
         style="fill:#596c46"
         d="m 400.74885,516.14483 c 1.44459,1.08966 2.30453,2.52739 1.99467,3.33489 -0.33764,0.87986 -0.11666,1.15491 0.58131,0.72354 0.64214,-0.39687 1.89688,0.4872 2.91994,2.05734 0.98666,1.51429 3.09817,4.00363 4.69224,5.53187 1.59408,1.52823 2.49408,2.79358 2,2.81188 -0.49407,0.0183 0.0951,0.86243 1.30917,1.87586 1.21411,1.01342 1.88911,2.1956 1.5,2.62705 -0.38912,0.43146 -0.24167,0.52053 0.32765,0.19793 0.56932,-0.3226 3.63785,1.85525 6.81896,4.83967 3.1811,2.98442 6.22935,5.42622 6.77389,5.42622 0.54453,0 0.71512,0.44485 0.3791,0.98855 -0.36433,0.58949 0.11644,0.72701 1.19098,0.34067 0.99107,-0.35634 1.46197,-0.27371 1.04645,0.1836 -0.41551,0.45732 2.66968,3.11652 6.856,5.90933 22.21786,14.82221 34.42653,20.87291 48.91891,24.24456 8.66752,2.0165 7.61962,4.24055 -2.01942,4.28599 -16.00365,0.0754 -51.07041,-21.9482 -70.37925,-44.20158 -3.93763,-4.53812 -7.751,-8.92612 -8.47415,-9.75112 -1.26616,-1.44449 -6.41854,-8.98908 -8.14103,-11.92085 -0.50386,-0.8576 0.17186,-0.66153 1.70458,0.4946 z m 7.74614,2.37729 c 1.62595,1.82119 2.86345,3.79428 2.75,4.38465 -0.11346,0.59037 0.26171,1.09386 0.83371,1.11886 1.78494,0.078 14.36801,11.88527 13.74335,12.89599 -0.3258,0.52716 -0.12754,0.6712 0.44058,0.32008 0.56812,-0.35112 3.90015,1.49186 7.40451,4.09549 3.50436,2.60364 7.54592,5.49039 8.98125,6.41501 1.43533,0.92461 3.33176,2.40318 4.21429,3.28571 0.88252,0.88253 1.95816,1.62954 2.39031,1.66003 1.8889,0.13325 6.1217,3.32949 5.57682,4.21113 -0.33007,0.53407 -0.14726,0.69114 0.40624,0.34906 0.5535,-0.34208 4.11053,0.99884 7.90451,2.97983 3.79398,1.98099 9.73098,4.67013 13.19333,5.97587 10.55019,3.97876 23.6912,11.40847 20.07725,11.35136 -6.64721,-0.10504 -37.48537,-12.19335 -36.2413,-14.2063 0.31326,-0.50686 -0.0381,-0.81111 -0.78079,-0.67611 -1.62759,0.29586 -5.97006,-2.15932 -13.90494,-7.8617 -3.25264,-2.3375 -6.1642,-4.25 -6.47014,-4.25 -1.54572,0 -6.31319,-4.46482 -5.77568,-5.40903 0.34158,-0.60003 0.2648,-0.76936 -0.17063,-0.37628 -0.96987,0.87556 -2.50138,-0.18214 -10.44653,-7.21469 -3.41756,-3.025 -6.5967,-5.5 -7.06475,-5.5 -0.46806,0 -1.22601,-0.40965 -1.68435,-0.91033 -0.48416,-0.52889 -0.30957,-0.60891 0.41667,-0.19098 2.34456,1.34923 1.22465,-0.89197 -2.6641,-5.33147 -2.28898,-2.61316 -3.64952,-5.04082 -3.31444,-5.91404 0.34239,-0.89224 0.14486,-1.2195 -0.49674,-0.82297 -0.58583,0.36207 -1.3373,-0.0509 -1.66994,-0.91774 -1.11499,-2.90563 -0.62284,-2.79291 2.35151,0.53857 z m 21.6421,61.04896 c 0.40896,0 3.70412,1.45556 7.32258,3.23457 7.76925,3.81975 18.46595,4.53798 44.57903,2.99327 19.30774,-1.14215 22.58409,0.30695 16.67533,7.37534 -6.52578,7.8065 -46.23774,7.33441 -54.21667,-0.64452 -1.07726,-1.07726 -2.34678,-1.95866 -2.82116,-1.95866 -1.27347,0 -7.93657,-5.47484 -10.26376,-8.43338 -1.1104,-1.41164 -1.6843,-2.56662 -1.27535,-2.56662 z m 13.92924,9.97938 c 2.1848,0.7047 4.51646,1.71244 5.18145,2.23943 1.31338,1.04082 33.346,2.67407 32.72246,1.66843 -0.20897,-0.33702 1.97695,-0.85601 4.8576,-1.15332 5.73482,-0.59189 12.94552,-3.54521 12.079,-4.94727 -0.30074,-0.48662 -1.12943,-0.39973 -1.84404,0.19335 -6.53709,5.4253 -43.58613,5.41874 -54.82172,-0.01 -4.82385,-2.33063 -5.28806,-2.41311 -3.49618,-0.62123 0.74199,0.74198 3.13663,1.92563 5.32143,2.63032 z m 72.48922,-28.47938 c 4.28389,-25.16249 27.41958,-84.95982 40.11706,-103.68798 7.60572,-11.21807 7.24789,-9.08509 -1.62522,9.68798 -3.1195,6.6 -7.17715,16.54476 -9.01701,22.09946 -5.73345,17.30992 -7.51985,26.18178 -10.55112,52.40054 -1.79369,15.51441 -4.62821,22.20851 -11.81362,27.89946 -4.51341,3.57469 -5.10027,3.20886 -2.27758,-1.41977 1.01303,-1.66117 2.14859,-4.65522 2.52346,-6.65345 0.37487,-1.99823 1.34434,-3.88746 2.15438,-4.1983 0.81004,-0.31085 1.4728,-1.06144 1.4728,-1.66798 0,-0.60655 0.675,-1.77782 1.5,-2.60282 0.825,-0.825 1.50689,-2.48035 1.51531,-3.67857 0.0125,-1.7732 0.19569,-1.89946 0.98469,-0.67857 1.17103,1.81204 1.18707,1.67078 1.44539,-12.73112 0.10093,-5.62711 0.55531,-10.57711 1.00974,-11 0.45442,-0.42288 0.55664,0.35986 0.22716,1.73943 -0.32949,1.37957 -0.18417,3.17957 0.32293,4 0.61865,1.0009 0.87704,-0.4824 0.78535,-4.50831 -0.23862,-10.47712 0.10431,-13.683 1.37937,-12.89497 0.76777,0.47451 0.96678,0.19364 0.57893,-0.81707 -0.7362,-1.9185 3.10249,-14.78796 4.41093,-14.78796 0.52703,0 0.67353,-0.46066 0.32556,-1.02369 -0.58156,-0.94099 1.95046,-9.14548 3.54174,-11.47631 0.90175,-1.32084 2.96978,-7.5 2.51009,-7.5 -1.26611,0 -9.5675,20.77863 -13.58355,34 -1.75418,5.775 -4.03637,13.16182 -5.07153,16.41516 -1.03516,3.25333 -1.88211,6.48927 -1.88211,7.19098 0,0.7017 -0.46804,1.56509 -1.04008,1.91863 -0.66972,0.41391 -0.84563,-0.36629 -0.49402,-2.19098 l 0.54606,-2.83379 -1.12786,2.86565 c -0.84267,2.14103 -0.83775,3.04496 0.0194,3.57473 0.85074,0.52579 0.80039,1.53415 -0.1948,3.901 -0.73816,1.75556 -1.67338,2.86065 -2.07827,2.45575 -0.4049,-0.40489 -0.43925,0.0376 -0.0763,0.98335 0.37907,0.98785 0.18881,1.71952 -0.44715,1.71952 -0.60885,0 -1.1001,0.7875 -1.09168,1.75 0.0132,1.51273 0.16161,1.54662 1.09434,0.25 0.89739,-1.24751 0.97897,-1.19167 0.48468,0.33179 -0.32688,1.00748 -0.59433,2.91998 -0.59433,4.25 0,1.48285 -0.5802,2.41821 -1.5,2.41821 -0.825,0 -1.49311,0.7875 -1.48469,1.75 0.0131,1.49555 0.15626,1.5319 0.98469,0.25 1.75182,-2.71075 0.59588,4.46529 -1.77193,11 -0.29893,0.825 -0.43493,2.175 -0.30221,3 0.16755,1.04162 -0.0841,1.18486 -0.82354,0.46875 -1.60099,-1.55052 -2.03828,-6.37217 -1.08547,-11.96875 z m 17.4205,56.16241 c 0.79054,-0.30335 1.57804,-0.003 1.75,0.66772 0.20776,0.81024 1.31911,0.99908 3.31265,0.56289 l 3,-0.65639 -3,-0.218 c -2.96934,-0.21576 -2.97445,-0.22617 -0.5,-1.01863 3.94405,-1.2631 4.56446,-1.1318 4.72505,1 0.11944,1.58568 -0.50975,2.03111 -3.0372,2.15019 -2.66944,0.12577 -2.45606,0.26397 1.31215,0.84981 l 4.5,0.69961 -3.79966,0.1502 c -5.27288,0.20842 -11.49773,-2.94611 -8.26299,-4.1874 z m 1.89221,-36.16241 c 2.62872,-5.63899 5.97222,-8.9214 15.3303,-15.05021 14.06595,-9.21209 31.34091,-27.47197 43.33564,-45.80639 11.70625,-17.89345 10.93228,-17.0823 10.38488,-10.88376 -2.42381,27.4461 -47.85299,78.29498 -67.9601,76.06773 l -2.9554,-0.32737 1.86468,-4 z m 10.22066,-2.61111 c 3.08318,-1.86389 7.03318,-4.63282 8.77778,-6.15318 1.7446,-1.52035 -0.95796,-0.17531 -6.00569,2.98898 -5.04773,3.16429 -8.99773,5.93322 -8.77777,6.15318 0.21995,0.21995 2.92251,-1.12508 6.00568,-2.98898 z m -7.55015,60.99294 c 7.52937,-2.25585 16.11496,0.26034 36.99993,10.84361 10.175,5.15609 18.3929,9.78598 18.262,10.28865 -0.13091,0.50266 0.50541,0.62866 1.41404,0.27998 1.04254,-0.40006 1.40655,-0.23672 0.98662,0.44273 -0.40863,0.66118 0.0104,0.90124 1.08596,0.62206 0.96326,-0.25005 2.65138,0.2276 3.75138,1.06145 1.9838,1.50381 1.98244,1.51634 -0.16821,1.54789 -1.19252,0.0175 -2.95384,0.33327 -3.91405,0.70174 -1.09077,0.41857 -1.50442,0.27933 -1.10243,-0.3711 0.38799,-0.62779 -0.92252,-1.25107 -3.30136,-1.57014 -2.16961,-0.29101 -5.146,-1.47401 -6.61421,-2.6289 -1.4682,-1.15489 -3.98533,-2.0998 -5.59362,-2.0998 -1.60828,0 -2.66526,-0.41891 -2.34883,-0.9309 0.31644,-0.512 0.0485,-1.25653 -0.59549,-1.65451 -0.73122,-0.45192 -0.90292,-0.29014 -0.45729,0.4309 0.87251,1.41176 0.46072,1.43397 -2.89958,0.15638 -1.62497,-0.61781 -2.34933,-1.44462 -1.90106,-2.16994 0.48499,-0.78472 0.18384,-0.96445 -0.91165,-0.54407 -2.03929,0.78255 -7.88793,-1.16218 -7.1391,-2.37382 0.30292,-0.49012 -0.0589,-0.65718 -0.80405,-0.37124 -0.74514,0.28593 -2.90601,-0.12825 -4.80194,-0.92042 -1.89592,-0.79217 -3.78935,-1.47216 -4.20761,-1.51108 -0.41826,-0.0389 -2.21826,-0.84853 -4,-1.79912 -1.78174,-0.95059 -3.46452,-1.7541 -3.73952,-1.78558 -0.275,-0.0315 -0.95,-0.33967 -1.5,-0.68487 -1.5015,-0.94242 -8.5,-2.75248 -8.5,-2.19841 0,0.26516 2.925,1.80837 6.5,3.42935 3.575,1.62098 6.5,3.37864 6.5,3.9059 0,0.52726 0.675,0.69964 1.5,0.38306 0.825,-0.31659 1.5,-0.15246 1.5,0.36471 0,0.51718 0.62574,0.94033 1.39052,0.94033 3.32162,0 7.47181,2.52873 6.855,4.17679 -0.52285,1.39702 -0.3738,1.45659 0.95138,0.38026 1.44177,-1.17102 18.91018,4.60061 20.8031,6.87343 0.275,0.33019 1.175,0.63607 2,0.67973 3.02869,0.1603 14.02707,4.86472 13.27562,5.67848 -0.42659,0.46197 0.23643,0.59074 1.47338,0.28617 1.23696,-0.30457 2.46949,-0.19703 2.73896,0.23899 0.26947,0.43601 2.06992,1.08916 4.00099,1.45143 1.93108,0.36227 3.51105,0.99186 3.51105,1.39908 0,0.40722 0.7875,0.80526 1.75,0.88453 3.22291,0.26544 11.25,2.61355 11.25,3.29089 0,0.36822 1.57928,0.72886 3.50951,0.80143 1.93023,0.0726 4.44377,0.63193 5.58565,1.24305 1.14187,0.61111 2.325,0.86224 2.62917,0.55807 0.64184,-0.64184 -4.14483,-2.609 -6.34845,-2.609 -0.82165,0 -1.21898,-0.44485 -0.88296,-0.98855 0.33965,-0.54956 -0.0264,-0.74398 -0.82425,-0.4378 -0.78936,0.30291 -3.17523,-0.21939 -5.30194,-1.16066 -2.1267,-0.94127 -4.54173,-1.75676 -5.36673,-1.81219 -0.825,-0.0554 -1.37464,-0.70188 -1.22142,-1.43653 0.20686,-0.99188 -0.50106,-1.1645 -2.75,-0.67055 -1.91182,0.41991 -3.02858,0.26715 -3.02858,-0.41426 0,-0.59371 -1.09844,-1.07946 -2.44098,-1.07946 -1.34254,0 -2.72364,-0.45734 -3.0691,-1.01631 -0.34547,-0.55897 -1.04702,-0.75742 -1.55902,-0.44098 -0.51199,0.31643 -0.9309,0.12909 -0.9309,-0.41631 0,-1.85324 3.88869,-2.23532 6.90025,-0.67798 2.70663,1.39965 11.53412,4.795 28.62656,11.01072 12.36147,4.49529 12.09573,5.26805 -1.20445,3.50243 -11.95319,-1.58681 -21.44346,-3.75254 -37.32236,-8.51715 -7.975,-2.39297 -19.9,-5.73034 -26.5,-7.41639 -18.89332,-4.8265 -30.08056,-11.51489 -34.9229,-20.87893 l -1.58562,-3.06626 4.00859,-1.20101 z m 9.74993,-18.80288 c 1.2375,-0.0434 2.25,-0.48682 2.25,-0.98533 0,-0.49851 0.9,-0.67103 2,-0.38337 1.1,0.28766 2,0.0705 2,-0.48251 0,-0.55303 0.5625,-0.98463 1.25,-0.95909 4.44595,0.16511 6.26687,-0.40152 4.25,-1.32251 -2,-0.91329 -2,-0.91329 0,-0.81456 3.23523,0.15971 4.085,-0.10808 2.84616,-0.89689 -0.63461,-0.40408 1.16539,-0.81046 4,-0.90306 l 5.15384,-0.16838 -4.28169,1.32223 c -2.35493,0.72723 -4.82993,1.77527 -5.5,2.32897 -1.66003,1.37176 -13.62727,4.40381 -15.06276,3.81635 -0.63555,-0.2601 -0.14305,-0.50843 1.09445,-0.55185 z m 15.5,-17.56136 c 0.6875,-0.23081 3.95,-0.5978 7.25,-0.81553 3.3,-0.21774 11.87705,-0.98457 19.0601,-1.70406 12.86725,-1.28885 25.75743,0.45761 27.79133,3.76537 0.62116,1.0102 -21.17063,0.76676 -22.104,-0.24693 -0.41109,-0.44646 0.26507,-0.56243 1.50257,-0.25771 1.2375,0.30472 2.25,0.14616 2.25,-0.35235 0,-0.49851 1.2375,-0.93801 2.75,-0.97667 2.27619,-0.0582 2.42148,-0.19912 0.84324,-0.81807 -1.84613,-0.72401 -5.6371,-0.63632 -16.09324,0.37226 -10.85111,1.04668 -24.5,2.01781 -24.5,1.7432 0,-0.15943 0.5625,-0.47871 1.25,-0.70951 z m 10.36757,7.95147 c 2.13534,-0.44177 4.49009,-0.69794 5.23278,-0.56926 0.7427,0.12868 1.05364,-0.24613 0.69098,-0.83292 -0.76993,-1.24577 0.41724,-1.38012 2.19856,-0.2488 0.82931,0.52669 0.0862,1.20465 -2.24417,2.04731 -1.91623,0.69292 -3.89825,1.00387 -4.40448,0.691 -0.50623,-0.31287 -1.09532,-0.0441 -1.30909,0.59717 -0.27658,0.82972 -0.91624,0.87078 -2.21785,0.14236 -1.56966,-0.87842 -1.27837,-1.1376 2.05327,-1.82686 z m 11.07806,-3.25408 c 1.7576,0.0475 4.35496,-0.67334 5.77193,-1.60177 1.64329,-1.07672 3.12301,-1.38209 4.08594,-0.84321 1.10224,0.61685 0.0172,1.31529 -4.02031,2.58802 -3.88979,1.22614 -6.04949,1.45064 -7.28158,0.75692 -1.42326,-0.80137 -1.15257,-0.97007 1.44402,-0.89996 z"
         id="path3979"
         inkscape:connector-curvature="0" />
      <path
         style="fill:#506c32"
         d="m 412.27637,530.45376 c 1.56205,-1.22554 1.62126,-1.20176 0.52101,0.20933 -1.76054,2.25791 -0.28309,3.24005 1.90086,1.26361 1.7273,-1.56318 1.73151,-1.71911 0.0811,-3.00464 -1.61111,-1.25496 -1.59181,-1.30586 0.25931,-0.68387 1.99066,0.66888 1.99084,0.66073 0.0371,-1.74754 l -1.96288,-2.41957 2.3955,2.2104 c 2.4164,2.22968 3.62644,6.68588 1.61523,5.94841 -0.59673,-0.21881 -1.80795,0.2298 -2.69159,0.99691 -1.3729,1.19184 -1.77474,1.19216 -2.76233,0.002 -0.89792,-1.08193 -0.76261,-1.70097 0.60662,-2.77523 z m 4.26233,5.61732 c 1.44158,-0.89095 3,0.3345 3,2.35902 0,1.87246 1.82011,4.14098 3.32244,4.14098 0.50735,0 0.3126,-0.7875 -0.43276,-1.75 -1.1444,-1.47777 -1.01406,-1.45925 0.83786,0.11907 1.2062,1.02799 2.09844,2.35697 1.98277,2.95329 -0.11567,0.59633 0.46469,1.1492 1.28969,1.22862 3.72011,0.3581 4.08243,0.50662 3.50708,1.43757 -0.36433,0.58949 0.11644,0.72701 1.19098,0.34067 0.99107,-0.35634 1.46197,-0.27371 1.04645,0.1836 -0.41551,0.45732 2.66968,3.11652 6.856,5.90933 21.95372,14.64599 33.96168,20.63779 48.38477,24.14333 6.49152,1.57777 7.08096,1.91291 5.45519,3.10171 -4.11214,3.00687 -20.05247,0.27416 -28.68089,-4.91688 -19.58221,-11.78105 -47.84141,-34.19085 -46.28697,-36.70599 0.30801,-0.49837 0.0331,-1.23175 -0.61081,-1.62973 -0.78054,-0.4824 -0.90114,-0.28727 -0.3618,0.58541 0.53532,0.86617 0.41844,1.06763 -0.34549,0.59549 -1.41515,-0.87461 -1.4463,-1.29712 -0.15451,-2.09549 z m 3.75945,-2.5 c 0.4177,0 1.32152,0.9 2.00848,2 1.35098,2.16326 4.8551,2.88577 3.63745,0.75 -0.39196,-0.6875 0.19894,-0.35 1.31311,0.75 1.11416,1.1 1.81324,2.36744 1.55349,2.81653 -0.5676,0.98139 2.69448,3.6069 4.53704,3.65167 0.73806,0.0179 0.9978,-0.47176 0.59549,-1.12271 -0.44563,-0.72104 -0.27393,-0.88282 0.45729,-0.4309 0.64395,0.39798 0.86466,1.21898 0.49047,1.82445 -0.41427,0.6703 -0.12527,0.88783 0.73895,0.5562 1.83511,-0.7042 4.43597,1.82027 2.62948,2.55224 -0.67138,0.27205 -0.23476,0.53015 0.97028,0.57357 1.20504,0.0434 2.51207,0.59848 2.90451,1.23346 0.47214,0.76393 0.27068,0.88081 -0.59549,0.34549 -0.88503,-0.54698 -1.06818,-0.41934 -0.56548,0.39405 0.53544,0.86636 1.10574,0.90246 2.03772,0.12898 0.95923,-0.79608 1.45992,-0.64219 1.93452,0.59457 0.35217,0.91776 0.92273,1.38624 1.2679,1.04107 0.34517,-0.34517 1.26795,0.15292 2.05062,1.10687 0.78267,0.95395 1.08341,1.08346 0.66831,0.28779 -0.43495,-0.83372 0.69879,-0.44131 2.67585,0.92616 4.43918,3.07047 4.83557,3.48525 2.53912,2.65695 -1.51714,-0.54722 -1.66728,-0.41212 -0.75868,0.68268 0.62302,0.75069 0.79917,1.73314 0.39144,2.18321 -0.40772,0.45008 -0.15911,0.48243 0.55248,0.0719 0.7116,-0.41053 1.94596,-0.20518 2.74304,0.45634 0.79708,0.66151 2.91487,1.32592 4.7062,1.47646 1.79133,0.15054 3.62102,0.32304 4.06598,0.38333 0.44496,0.0603 0.48793,0.62916 0.0955,1.26414 -0.41088,0.66482 -0.27728,0.88489 0.31498,0.51886 1.85639,-1.14732 26.71693,9.7377 29.27222,12.81664 1.57247,1.89471 2.35658,2.00151 -9.99171,-1.36093 -11.18518,-3.04571 -26.31539,-9.80975 -25.36886,-11.34127 0.31326,-0.50686 -0.0381,-0.81111 -0.78079,-0.67611 -1.68171,0.3057 -6.32324,-2.3523 -13.68195,-7.83505 -3.11762,-2.32285 -6.02412,-4.23535 -6.45889,-4.25 -1.70243,-0.0574 -6.59595,-4.40138 -6.01573,-5.34019 0.33838,-0.54751 0.16076,-0.7146 -0.39471,-0.3713 -0.55546,0.3433 -2.9774,-1.04967 -5.38207,-3.09549 -7.38767,-6.28518 -9.07218,-8.21966 -7.15756,-8.21966 z m 15.24055,48.5 c 5.51777,2.79607 6.41561,3.8934 2.35085,2.87321 -1.85059,-0.46447 -2.43782,-0.32294 -1.94807,0.46949 0.45358,0.7339 0.14418,0.92068 -0.87637,0.52906 -1.30139,-0.49939 -1.35423,-0.88016 -0.30193,-2.17577 1.07298,-1.32108 1.01698,-1.47373 -0.35262,-0.96137 -1.59792,0.59778 -3.87186,-0.84196 -3.87186,-2.45147 0,-0.44926 2.25,0.32332 5,1.71685 z m 7.25,3.51101 c 4.31841,0.038 8.79534,1.35366 7.57707,2.22667 -0.91779,0.6577 -0.71026,0.72096 0.67293,0.20513 2.00262,-0.74682 14.28984,-1.46498 37.25,-2.17715 13.68716,-0.42454 14.50744,0.10422 10.55125,6.80151 -5.09711,8.62872 -45.94237,8.00393 -54.26808,-0.83011 -1.86876,-1.98287 -2.03076,-2.45011 -0.66821,-1.92725 0.98924,0.3796 2.32431,0.69708 2.96683,0.7055 0.72039,0.009 0.63028,0.35589 -0.23508,0.90376 -1.04277,0.66019 -0.78585,0.88633 1,0.88022 7.22625,-0.0247 27.54729,1.58317 28.40329,2.24741 1.2222,0.94841 6.66084,0.0226 6.01415,-1.02381 -0.2544,-0.41163 1.89434,-0.99166 4.77499,-1.28897 5.51486,-0.56919 12.95644,-3.52755 12.1511,-4.83062 -0.26076,-0.42192 -1.66003,-0.15186 -3.10949,0.60013 -9.71169,5.03849 -56.26853,4.15473 -51.5974,-0.97944 0.42166,-0.46346 -0.0208,-0.56007 -0.98335,-0.2147 -0.9625,0.34537 -1.75,0.19206 -1.75,-0.34067 0,-0.53274 0.5625,-0.96367 1.25,-0.95761 z m 73.71837,-16.53056 c 0.43002,0.26577 0.55453,-1.53361 0.27669,-3.99862 -0.40933,-3.63157 -0.20535,-4.48183 1.0752,-4.48183 0.8692,0 2.03904,-0.7875 2.59964,-1.75 1.84158,-3.16179 0.68411,4.19285 -1.69183,10.75 -0.29893,0.825 -0.44244,2.10766 -0.31891,2.85035 0.34503,2.07441 -1.59745,0.44964 -2.19519,-1.83615 -0.2901,-1.10933 -0.17562,-1.79951 0.2544,-1.53375 z m 2.39209,-17.31759 1.20831,-3.33714 1.34849,2.51968 c 1.55873,2.91251 0.85806,5.6546 -1.44489,5.6546 -0.87472,0 -1.31229,0.45 -0.97237,1 0.33992,0.55 0.14148,1 -0.44098,1 -1.35096,0 -1.23683,-2.5887 0.30144,-6.83714 z m 2.78708,15.83714 c 1.17703,-1.925 2.24292,-4.4 2.36864,-5.5 0.39844,-3.48626 0.46495,-3.62969 1.41182,-3.0445 0.51041,0.31545 1.2178,-0.33953 1.572,-1.4555 0.3542,-1.11597 1.00539,-1.80569 1.44709,-1.5327 0.44171,0.27299 1.13243,-1.40797 1.53494,-3.73548 0.40251,-2.3275 0.96892,-3.6012 1.2587,-2.83043 0.38182,1.01559 0.89322,0.74029 1.85763,-1 2.88233,-5.2012 0.71733,5.44425 -2.56222,12.59861 -1.00848,2.2 -3.11667,5.07651 -4.68487,6.39224 -1.5682,1.31573 -3.63877,3.07297 -4.60127,3.90499 -2.36541,2.04473 -2.19826,0.44811 0.39754,-3.79723 z m 14.74832,12.5 c 2.29274,-4.95208 5.38673,-7.82878 15.60414,-14.50829 14.48045,-9.46643 36.05563,-33.4529 47.59716,-52.91674 l 4.40284,-7.42504 0.3045,4.11364 c 1.65869,22.40831 -45.24558,76.23643 -66.43023,76.23643 -3.90164,0 -3.94689,-0.16833 -1.47841,-5.5 z m 9.65436,-1.61111 c 3.08318,-1.86389 7.03318,-4.63282 8.77778,-6.15318 1.7446,-1.52035 -0.95796,-0.17531 -6.00569,2.98898 -5.04773,3.16429 -8.99773,5.93322 -8.77777,6.15318 0.21995,0.21995 2.92251,-1.12508 6.00568,-2.98898 z m -7.61881,61.01351 c 6.97473,-2.08967 24.53297,2.3866 23.39782,5.96501 -0.41237,1.29994 -0.3174,1.35131 0.46608,0.25214 1.05748,-1.48358 3.45085,-0.44858 26.20469,11.33205 9.18099,4.7534 10.00094,5.37772 6.52722,4.96996 -2.18503,-0.2565 -4.36096,-1.15999 -4.83541,-2.00777 -1.18724,-2.12149 -4.9153,-3.40607 -6.40478,-2.20691 -0.81088,0.65283 -2.21232,0.47801 -4.22768,-0.52738 -1.65808,-0.82717 -3.92475,-1.26595 -5.03703,-0.97509 -1.49906,0.39202 -2.02232,0.0434 -2.02232,-1.34723 0,-1.03185 -0.825,-2.39131 -1.83333,-3.02102 -1.44043,-0.89956 -1.83334,-0.85339 -1.83334,0.21546 0,0.74822 0.44453,1.08567 0.98785,0.74988 0.54331,-0.33578 0.6789,-0.11064 0.3013,0.50032 -0.37759,0.61096 -1.34453,0.85833 -2.14876,0.54972 -0.80423,-0.30861 -1.18346,-1.01217 -0.84275,-1.56346 0.3889,-0.62925 -0.21819,-0.73648 -1.63097,-0.28808 -1.52105,0.48276 -2.03098,0.35914 -1.57329,-0.38141 0.43446,-0.70297 0.0796,-0.86636 -0.99017,-0.45586 -1.35542,0.52012 -1.55394,0.19059 -1.06117,-1.76146 0.33339,-1.3207 0.34782,-1.83877 0.0321,-1.15127 -0.73161,1.59293 -5.63052,1.62692 -7.20744,0.05 -0.66,-0.66 -1.2,-0.87344 -1.2,-0.47432 0,0.39912 -1.4625,-0.0545 -3.25,-1.00808 -1.7875,-0.95357 -3.475,-1.75952 -3.75,-1.791 -0.275,-0.0315 -0.95,-0.33967 -1.5,-0.68487 -1.5015,-0.94242 -8.5,-2.75248 -8.5,-2.19841 0,0.26516 2.925,1.80837 6.5,3.42935 3.575,1.62098 6.5,3.37864 6.5,3.9059 0,0.52726 0.675,0.69964 1.5,0.38306 0.825,-0.31659 1.5,-0.15246 1.5,0.36471 0,0.51718 0.62574,0.94033 1.39052,0.94033 3.15681,0 7.47076,2.53125 6.8906,4.04313 -0.47141,1.22848 -0.21499,1.32518 1.32646,0.50022 1.50798,-0.80705 3.91174,-0.0972 11.40163,3.36681 5.2199,2.4142 10.27826,4.39704 11.24076,4.40631 0.9625,0.009 1.75,0.46686 1.75,1.01686 0,0.55 1.16652,1 2.59227,1 1.42575,0 3.73644,0.9 5.13486,2 1.39842,1.1 3.40846,2 4.46675,2 1.05828,0 1.64604,0.45 1.30612,1 -0.59298,0.95946 0.68554,1.39923 3.17459,1.09196 0.64603,-0.0797 1.47359,0.33878 1.83903,0.93008 0.46682,0.75533 1.08409,0.7268 2.07541,-0.0959 1.1222,-0.93137 1.41097,-0.81679 1.41097,0.55982 0,1.36187 0.55082,1.59261 2.58379,1.08237 1.55081,-0.38923 2.3469,-0.26521 1.99127,0.31022 -0.69749,1.12856 4.90475,2.56098 6.40054,1.63653 0.56342,-0.34821 1.0244,-0.099 1.0244,0.55371 0,1.69881 -5.10773,0.69678 -21,-4.11975 -7.425,-2.25032 -18.675,-5.43249 -25,-7.07149 -23.80258,-6.16794 -33.09141,-11.56526 -38.86711,-22.58387 -1.06933,-2.04001 -0.85838,-2.29564 2.79852,-3.39128 z m 0.61491,-148.13114 c 5.32017,-12.36836 14.69565,-29.73975 15.71183,-29.11172 0.62781,0.38801 0.75272,0.16706 0.31027,-0.54884 -0.86314,-1.39658 1.24266,-4.34549 2.53343,-3.54775 0.48138,0.29751 0.66338,-0.0449 0.40444,-0.76101 -0.25894,-0.71607 0.4112,-2.42694 1.48922,-3.80194 3.43613,-4.38277 2.16383,-0.28645 -3.34407,10.76666 -6.14167,12.32494 -11.19758,25.04554 -10.8241,27.23334 0.22141,1.29706 0.12405,1.30352 -0.71966,0.0478 -0.53664,-0.79874 -0.87169,-1.69874 -0.74454,-2 0.12714,-0.30126 0.73308,-1.67275 1.34653,-3.04775 0.61344,-1.375 2.14465,-5.2 3.40268,-8.5 1.25803,-3.3 2.6474,-6.4275 3.08749,-6.95 0.44009,-0.5225 0.78519,-1.4225 0.76689,-2 -0.0537,-1.69582 -3.96455,3.51092 -3.98897,5.31078 -0.0122,0.90157 -0.90222,2.76422 -1.97776,4.13922 -1.07554,1.375 -1.96553,3.20149 -1.97776,4.05887 -0.0122,0.85738 -0.68293,2.43238 -1.49044,3.5 -0.8075,1.06762 -1.4825,2.69113 -1.5,3.6078 -0.0175,0.91666 -0.50119,1.82313 -1.0749,2.01436 -0.5737,0.19124 -1.18404,1.66968 -1.35631,3.28544 -0.17226,1.61575 -0.82787,3.10929 -1.4569,3.31897 -1.60774,0.53591 -1.40161,-0.49488 1.40263,-7.01418 z m 63.79942,108.22874 c 2.42483,0 9.55191,2.35659 9.14046,3.02233 -0.26893,0.43513 0.29916,0.58657 1.26242,0.33653 0.96326,-0.25005 2.62033,0.18294 3.68238,0.96219 1.73044,1.26966 1.47078,1.33874 -2.5,0.66512 -3.75604,-0.63719 -13.8608,-4.98617 -11.58526,-4.98617 z m 32.47399,79.63462 c 3.12415,0.074 6.80527,0.63317 8.18027,1.24252 1.99561,0.88437 1.08772,0.98428 -4.5,0.49519 -8.80674,-0.77084 -11.23357,-1.91672 -3.68027,-1.73771 z"
         id="path3977"
         inkscape:connector-curvature="0" />
      <path
         style="fill:#475832"
         d="m 431.58396,550.04311 c 0.82198,-0.50801 1.01432,-0.37745 0.55023,0.37346 -0.67363,1.08996 -0.29377,1.3151 2.62274,1.55451 0.67003,0.055 2.30164,1.10407 3.62581,2.33126 1.32416,1.2272 2.91346,1.92832 3.53177,1.55805 0.6183,-0.37028 0.44919,0.1628 -0.37581,1.18461 -1.40258,1.73717 -1.32883,1.81521 1.13558,1.20162 1.76927,-0.44051 3.04213,-0.16634 3.87244,0.83413 0.68028,0.81968 1.96927,1.52586 2.86442,1.56928 1.26781,0.0615 1.31462,0.20265 0.21178,0.63859 -0.96667,0.38212 -0.33223,1.13682 2,2.37914 1.87868,1.00072 2.79818,1.83835 2.04334,1.8614 -1.10629,0.0338 -1.13102,0.33282 -0.12756,1.54192 1.64484,1.98192 3.09819,1.91945 2.32331,-0.0999 -0.34361,-0.89542 0.52498,-0.46095 1.97267,0.98674 1.9633,1.9633 3.26341,2.45795 5.39531,2.05274 1.89651,-0.36048 5.54433,0.61287 11.23184,2.997 4.63273,1.94196 11.10988,4.05943 14.39367,4.70548 5.46272,1.07472 5.80946,1.294 4.07686,2.57819 -5.18858,3.84572 -35.59573,-4.34826 -32.81751,-8.84352 0.34351,-0.5558 0.0169,-0.87869 -0.7258,-0.71754 -2.01026,0.43619 -7.96183,-3.42635 -7.427,-4.82009 0.25748,-0.67097 -0.28846,-1.1525 -1.23023,-1.08509 -3.54009,0.25339 -21.29625,-13.45426 -19.14786,-14.78203 z m 17.01376,43.52797 c 0.58246,0 0.80684,-0.40803 0.49862,-0.90674 -0.30822,-0.49871 0.34022,-0.67122 1.44098,-0.38337 1.10076,0.28786 2.00138,0.81291 2.00138,1.16679 0,0.35387 3.03536,0.63889 6.74524,0.63336 5.33147,-0.008 6.74624,0.30435 6.75,1.48996 0.003,1.05329 1.49379,1.67657 5.00476,2.0929 4.53889,0.53821 4.29499,0.60738 -2.64466,0.75 -5.24999,0.10789 -9.71378,-0.48198 -14.25,-1.88308 -6.11686,-1.88931 -8.12287,-2.95982 -5.54632,-2.95982 z m 6.44098,-4.05497 c 2.56432,-0.0732 2.70955,-0.2068 1,-0.92019 -1.27191,-0.53076 0.18426,-0.70005 4,-0.46502 4.49652,0.27695 5.24826,0.15747 3,-0.47682 -2.61026,-0.73642 -2.28548,-0.85975 2.5,-0.94937 3.178,-0.0595 4.95797,0.24092 4.21613,0.71163 -0.70776,0.44909 -0.9963,1.56404 -0.64301,2.48469 0.56316,1.46759 -0.25105,1.66819 -6.71613,1.65474 -7.23317,-0.0151 -13.86597,-1.85394 -7.35699,-2.03966 z m 11.12756,-24.06345 c 2.70587,-0.36728 10.32961,1.02366 12.63705,2.30562 2.26151,1.25644 2.73446,1.42145 4.98539,1.73933 0.6875,0.0971 -0.39453,0.85933 -2.40452,1.69387 -3.41204,1.41667 -3.99052,1.3728 -8.71852,-0.66113 -4.83665,-2.08067 -8.3511,-4.82635 -6.4994,-5.07769 z m 18.1118,5.82791 c 2.86626,-0.54792 6.26064,0.696 6.26064,2.29431 0,0.51339 0.6029,0.70207 1.33979,0.41931 0.73688,-0.28277 1.97085,0.24626 2.74215,1.17563 1.2708,1.53121 1.16855,1.61456 -1.08978,0.88833 -1.37069,-0.44079 -3.16716,-0.77119 -3.99216,-0.73424 -5.54181,0.24825 -9.9573,-3.14551 -5.26064,-4.04334 z m 1.21915,24.92379 c 2.22282,-0.8894 4.04149,-2.01225 4.04149,-2.49522 0,-0.48298 2.03729,-1.44855 4.52732,-2.14571 2.49003,-0.69716 4.95134,-1.99315 5.46959,-2.87996 0.85699,-1.46646 0.94502,-1.46094 0.97268,0.0609 0.0495,2.72365 -5.01146,8.04904 -7.12427,7.49653 -1.01644,-0.2658 -1.63079,-0.1317 -1.36522,0.29801 0.43044,0.69646 -9.55388,2.20099 -10.27159,1.54783 -0.16032,-0.14591 1.52718,-0.99297 3.75,-1.88236 z m 38.91292,-30.63328 c 1.75526,0 4.18981,-2.58827 3.33095,-3.54128 -0.38631,-0.42865 -0.22042,-0.50545 0.36863,-0.17065 1.08323,0.61567 3.70191,-5.77829 4.95954,-12.10958 0.36287,-1.82682 0.89266,-3.08861 1.1773,-2.80397 0.77148,0.77148 -1.66026,10.15133 -3.75666,14.49037 -2.38576,4.93796 -4.63028,6.85602 -6.19357,5.29273 -0.87683,-0.87683 -0.84922,-1.15762 0.11381,-1.15762 z m 11.59338,15.63726 c 2.13719,-5.99509 4.32006,-7.94439 21.71005,-19.38705 9.62788,-6.33517 32.26445,-32.88808 41.9223,-49.17524 l 4.40284,-7.42504 0.3045,4.11364 c 0.9056,12.23434 -32.77786,64.46247 -38.33852,59.44607 -0.43265,-0.3903 -0.4825,-0.17881 -0.11079,0.46997 0.80841,1.411 -9.03927,9.2397 -16.05534,12.76367 -4.10112,2.05988 -15.39114,4.60232 -15.25596,3.43555 0.0241,-0.20836 0.66356,-2.11706 1.42092,-4.24157 z m 7.66031,-1.24611 c 14.7208,-8.52653 28.44894,-20.91495 39.21844,-35.39115 4.8042,-6.45774 3.82464,-5.54115 -5.34352,5 -11.28512,12.97514 -20.70054,20.93317 -34.80868,29.42073 -3.46975,2.08743 -6.11345,3.99052 -5.87488,4.22908 0.23857,0.23857 3.30246,-1.22783 6.80864,-3.25866 z m -4.97476,59.56836 c 6.74689,-1.81675 15.45947,0.34857 29.34964,7.2942 17.02587,8.51361 25.0782,12.68151 24.5,12.68123 -2.07646,-9.8e-4 -10.82545,-3.79208 -10.24029,-4.43732 0.40716,-0.44895 -0.0143,-0.54633 -0.9366,-0.21639 -0.92229,0.32994 -2.18048,-0.007 -2.79599,-0.74856 -1.20127,-1.44743 -7.61258,-4.77939 -9.94516,-5.16848 -0.77992,-0.1301 -2.57992,-1.09123 -4,-2.13584 -2.88094,-2.11922 -7.54683,-3.62002 -10.58196,-3.40373 -2,0.14253 -2,0.14253 0,-0.69741 1.66152,-0.69779 1.36017,-0.91549 -1.78057,-1.28634 -4.71253,-0.55645 -5.26741,-0.0507 -2.53984,2.31489 2.50432,2.17199 -0.90309,1.84613 -8.58558,-0.82105 -6.08531,-2.11267 -5.42051,-0.78072 1.3048,2.61421 3.35565,1.69393 6.10119,3.52339 6.10119,4.06548 0,0.54208 0.66088,0.9856 1.46862,0.9856 0.89459,0 1.24363,0.58629 0.89301,1.5 -0.32972,0.85922 0.004,1.55059 0.78138,1.61842 1.8406,0.16063 2.06297,0.12803 4.35699,-0.63866 1.61584,-0.54003 1.71188,-0.46117 0.5,0.41059 -1.24745,0.89735 -1.12117,1.0816 0.75,1.09434 1.37238,0.009 2.25,0.62831 2.25,1.58688 0,1.05258 0.74641,1.47375 2.26026,1.27537 1.24314,-0.16291 3.36827,0.47989 4.7225,1.42843 1.35424,0.94855 3.14962,1.73152 3.98975,1.73994 1.35224,0.0136 1.35539,0.13325 0.0275,1.04326 -1.15842,0.79386 -0.8167,0.96956 1.5006,0.77154 1.65033,-0.14103 3.45033,0.016 4,0.34902 0.54967,0.333 4.02209,1.5347 7.71649,2.67046 3.69439,1.13575 8.05339,2.75604 9.68665,3.60063 1.63326,0.8446 3.67307,1.26567 4.53291,0.93571 0.85983,-0.32995 1.56334,-0.12082 1.56334,0.46474 0,0.9981 8.44618,3.901 17.5,6.01462 2.2,0.5136 3.03848,0.97901 1.8633,1.03426 -1.17519,0.0553 -5.90019,-1.01989 -10.5,-2.3892 -4.59982,-1.36931 -14.8883,-4.31988 -22.8633,-6.55683 -32.8823,-9.2233 -39.59583,-12.12288 -45.6968,-19.73647 -5.80402,-7.24301 -5.89584,-7.98038 -1.15284,-9.25754 z m 8.39801,-164.58712 c 8.12526,-15.91391 9.20914,-17.64029 10.55348,-16.80944 0.48138,0.29751 0.66338,-0.0449 0.40444,-0.76101 -0.25894,-0.71607 0.4112,-2.42694 1.48922,-3.80194 3.48548,-4.44571 2.13288,-0.13837 -3.39394,10.80795 -2.96913,5.88063 -6.40443,13.50455 -7.63399,16.94205 -1.22956,3.4375 -2.43059,6.25 -2.66896,6.25 -0.90881,0 4.26693,-14.35371 6.04852,-16.77417 0.51583,-0.70079 0.62427,-1.58776 0.24099,-1.97104 -0.85275,-0.85274 -2.38262,1.38032 -3.25094,4.74521 -0.35482,1.375 -0.96869,2.725 -1.36414,3 -0.39545,0.275 -2.32496,3.875 -4.28779,8 -1.96283,4.125 -3.59499,6.97269 -3.62702,6.32821 -0.032,-0.64449 3.33853,-7.8246 7.49013,-15.95582 z"
         id="path3975"
         inkscape:connector-curvature="0" />
      <path
         style="fill:#29560e"
         d="m 456.21163,589.22544 c 2.10489,-0.34779 5.09113,-0.6373 6.63609,-0.64335 1.59412,-0.006 2.54478,-0.43855 2.19806,-0.99956 -0.82857,-1.34066 2.77817,0.0291 3.72761,1.41561 1.51126,2.20706 0.58456,2.57256 -6.48469,2.55763 -8.44334,-0.0178 -11.94535,-1.36072 -6.07707,-2.33033 z m -2.53663,5.64749 c 2.85461,-2.36912 11.60493,-1.43584 12.12665,1.29338 0.40801,2.13433 0.1098,2.39613 -2.65162,2.32792 -5.60105,-0.13835 -11.12697,-2.25032 -9.47503,-3.6213 z m 7.6906,-24.20921 c 2.99497,-1.60286 3.93034,-1.43257 13.13396,2.3911 4.61198,1.91606 11.05958,4.00985 14.32801,4.65287 5.651,1.11177 5.82652,1.23351 3.57687,2.48083 -2.79455,1.54945 -8.98342,1.75908 -13.29474,0.45032 -1.68905,-0.51273 -5.04303,-1.5044 -7.45329,-2.20372 -2.41026,-0.69931 -5.06102,-1.9502 -5.89057,-2.77975 -0.82955,-0.82955 -2.17883,-1.60669 -2.9984,-1.72698 -2.81072,-0.41253 -3.5433,-2.11859 -1.40184,-3.26467 z m 7.03042,-5.09264 c 3.53335,0 11.14741,2.69666 12.64268,4.47764 0.55,0.65509 2.2559,1.5038 3.7909,1.88603 1.73484,0.432 2.52415,1.12657 2.08595,1.83559 -0.46565,0.75344 -0.14009,0.92387 0.95911,0.50206 0.91522,-0.3512 1.66404,-0.20267 1.66404,0.33006 0,1.24685 -0.97815,1.2208 -4.85078,-0.12921 -1.73207,-0.6038 -3.14922,-1.53412 -3.14922,-2.06738 0,-0.53326 -0.87617,-0.69148 -1.94704,-0.3516 -2.13911,0.67893 -11.29949,-2.87039 -13.14392,-5.09279 -0.94311,-1.13638 -0.58718,-1.3904 1.94828,-1.3904 z m 20.14268,31 c 0.55,0 0.94671,-0.3375 0.88158,-0.75 -0.43536,-2.7573 2.69069,-4.59971 8.01934,-4.7264 0.77051,-0.0183 1.75138,-0.93112 2.17972,-2.02845 0.43355,-1.11069 0.80995,-1.37204 0.84907,-0.58954 0.12853,2.57028 -4.87192,8.07291 -7.21954,7.94458 -1.21559,-0.0665 -2.99767,0.21322 -3.96017,0.62149 -0.9625,0.40826 -1.75,0.46915 -1.75,0.13531 0,-0.33385 0.45,-0.60699 1,-0.60699 z m 49.83829,-19.08396 c 1.75138,-2.76164 5.16468,-5.94735 9.03008,-8.42796 3.41792,-2.19345 8.61582,-5.88054 11.55089,-8.19354 2.93507,-2.313 5.65395,-3.888 6.04195,-3.5 0.388,0.388 0.55546,0.21261 0.37212,-0.38976 -0.18333,-0.60238 3.89634,-5.55002 9.06594,-10.99477 10.6588,-11.2261 14.29873,-15.93778 23.55919,-30.49601 l 6.54154,-10.28385 0,4.04739 c 0,11.31105 -15.52183,37.6493 -32.4548,55.071 -6.18939,6.36803 -9.89851,9.25018 -8.0452,6.25146 1.00599,-1.62773 -0.14174,-1.13977 -1.62756,0.69196 -1.18376,1.45936 -1.16623,1.57044 0.12756,0.80804 1.26164,-0.74346 1.2961,-0.63215 0.21684,0.70045 -0.70573,0.87141 -2.63266,2.14336 -4.28206,2.82657 -1.6494,0.6832 -2.76007,1.48102 -2.46815,1.77294 0.98633,0.98633 -9.37532,6.20157 -14.50852,7.30244 -7.34808,1.57589 -7.07235,0.6311 1.21452,-4.16147 10.11218,-5.84821 20.18811,-13.59048 27.46494,-21.10385 7.48483,-7.72813 19.37372,-22.60028 19.33202,-24.18297 -0.0167,-0.63476 -0.53765,-0.25411 -1.15762,0.84589 -2.2907,4.06438 -14.62663,18.32836 -22.31197,25.79924 -6.50796,6.32635 -28.92408,21.61001 -30.04734,20.48675 -0.23654,-0.23653 0.837,-2.42801 2.38563,-4.86995 z m -2.18137,62.79599 c 2.11128,-1.30484 9.09449,-1.92328 9.74951,-0.86343 0.36169,0.58523 1.43071,0.81626 2.3756,0.51339 1.42438,-0.45655 1.46711,-0.37326 0.25005,0.48738 -1.24307,0.87902 -1.10346,1.35413 0.9114,3.10161 l 2.37933,2.06358 -3.41141,-0.66823 c -5.89424,-1.15456 -13.33304,-3.96771 -12.25448,-4.6343 z m -0.18518,2.28797 c 1.36701,0 8.74592,4.21766 10.56975,6.04149 1.07718,1.07718 2.61939,1.95851 3.42713,1.95851 0.83315,0 1.24098,0.5932 0.94252,1.37096 -0.65769,1.71393 1.79167,2.74695 3.67954,1.55183 0.77513,-0.49069 1.85932,-0.89216 2.40932,-0.89216 0.55,0 0.325,0.43621 -0.5,0.96937 -1.21296,0.78387 -1.06944,0.9723 0.75,0.98469 1.37238,0.009 2.25,0.62831 2.25,1.58688 0,1.05258 0.74641,1.47375 2.26026,1.27537 1.24314,-0.16291 3.36827,0.47989 4.7225,1.42843 1.35424,0.94855 3.14962,1.73152 3.98975,1.73994 1.35118,0.0136 1.35436,0.1272 0.0275,0.98469 -1.15964,0.74942 -0.8456,0.97285 1.38398,0.98469 3.71571,0.0197 10.61601,2.08253 10.61601,3.1736 0,0.46294 1.15156,0.84171 2.55902,0.84171 1.40746,0 2.31547,0.39407 2.0178,0.8757 -0.76693,1.24092 -25.86404,-5.42611 -33.2002,-8.81961 -7.37602,-3.41194 -21.47609,-16.05609 -17.90488,-16.05609 z"
         id="path3973"
         inkscape:connector-curvature="0" />
      <path
         style="fill:#173707"
         d="m 539.28179,578.21415 c 1.11716,0.29214 2.3808,-0.0345 2.8081,-0.72589 0.54716,-0.88534 0.28483,-1.06823 -0.88715,-0.6185 -2.56449,0.98408 -1.94908,-1.54545 0.87637,-3.60214 1.36266,-0.99191 2.99999,-1.48059 3.63851,-1.08596 0.76913,0.47535 0.95204,0.17307 0.54195,-0.89561 -0.45559,-1.18725 -0.19315,-1.44969 0.9941,-0.9941 1.02087,0.39174 1.36551,0.21837 0.9387,-0.47223 -0.39595,-0.64066 1.70405,-2.53833 5.08596,-4.59593 3.1682,-1.92759 7.07678,-4.8825 8.68573,-6.56647 2.02006,-2.11424 3.62587,-2.93473 5.18896,-2.65129 1.63947,0.2973 2.11367,0.0198 1.71985,-1.0065 -0.29906,-0.77933 -1.05909,-1.1172 -1.68895,-0.75081 -0.62987,0.36638 -0.29758,-0.30059 0.73843,-1.48216 1.036,-1.18158 2.386,-1.86178 3,-1.51157 0.61399,0.35021 0.76621,0.25195 0.33826,-0.21834 -1.10249,-1.21159 11.23877,-13.41789 12.91565,-12.77441 1.54885,0.59435 -5.96686,10.79211 -7.98261,10.83128 -0.63522,0.0123 -1.02272,0.79984 -0.86111,1.75 0.16161,0.95016 -0.13608,1.72756 -0.66152,1.72756 -1.051,0 -0.93111,-2.53454 0.17207,-3.63772 0.38258,-0.38259 0.69561,-1.16061 0.69561,-1.72895 0,-2.27416 -2.3169,1.4186 -2.55266,4.06853 -0.13693,1.53898 -0.29359,2.96574 -0.34815,3.17058 -0.0545,0.20485 -0.78506,-0.19678 -1.62336,-0.8925 -0.83829,-0.69572 -1.81329,-0.97582 -2.16666,-0.62244 -0.35338,0.35337 -0.17894,0.6425 0.38763,0.6425 1.48175,0 1.04941,4.47538 -0.4468,4.625 -0.6875,0.0687 -1.71973,0.18125 -2.29384,0.25 -0.57411,0.0687 -0.91161,0.90475 -0.75,1.85778 0.20278,1.19582 -0.41358,1.77377 -1.98901,1.86504 -2.16568,0.12547 -2.19622,0.0365 -0.59501,-1.73278 2.50377,-2.76663 0.10148,-2.2642 -2.52095,0.52725 -1.5865,1.68875 -1.87084,2.51783 -0.96687,2.81915 0.91287,0.30429 0.6628,1.08995 -0.87089,2.73618 -1.24743,1.33896 -2.79182,2.06359 -3.67542,1.72453 -0.83818,-0.32164 -1.78993,-0.15446 -2.115,0.37152 -0.32508,0.52598 0.13707,0.95633 1.02699,0.95633 0.88992,0 1.36063,0.41649 1.04602,0.92554 -0.31461,0.50904 -1.91616,0.75542 -3.55902,0.5475 -1.64285,-0.20791 -2.987,0.0506 -2.987,0.57447 0,0.52387 0.5625,0.9625 1.25,0.97473 1.60908,0.0286 -2.77663,3.52969 -7.05836,5.63462 -2.37965,1.16985 -3.61314,1.32164 -4.39405,0.54073 -0.78092,-0.78092 -0.5155,-0.93658 0.9455,-0.55452 z m 33.22137,-20.37718 c 3.80023,-3.97875 8.17281,-8.92875 9.71684,-11 1.54402,-2.07124 3.03488,-3.99089 3.31301,-4.26589 1.48995,-1.47319 5.00569,-7.06354 5.00569,-7.95951 0,-0.57227 0.34767,-1.04049 0.7726,-1.04049 0.42492,0 1.62079,-1.575 2.65747,-3.5 1.03668,-1.925 2.52031,-3.5 3.29695,-3.5 2.02269,0 1.17455,-4.26118 -0.90778,-4.56084 -1.0661,-0.15341 -1.48823,0.25986 -1.15429,1.13009 0.58811,1.5326 -3.24562,6.93075 -4.92219,6.93075 -0.59185,0 -1.28447,0.62514 -1.53916,1.3892 -0.31509,0.94528 -0.0392,1.12724 0.86333,0.56943 0.72952,-0.45087 0.30726,0.6115 -0.93836,2.36081 -2.32572,3.26617 -3.57796,3.88048 -4.58587,2.24966 -0.54012,-0.87394 1.15113,-2.51996 2.62397,-2.55379 0.36666,-0.008 1.04166,-0.42496 1.5,-0.92564 0.48416,-0.52889 0.30957,-0.60891 -0.41667,-0.19098 -2.09449,1.20533 -1.40312,-0.75351 1.56034,-4.42085 1.54568,-1.91281 3.83238,-5.16534 5.08156,-7.22784 1.24917,-2.0625 2.71107,-3.75 3.24868,-3.75 0.5376,0 0.72848,-0.40285 0.42418,-0.89522 -0.3043,-0.49236 0.0389,-1.12246 0.76275,-1.40022 0.72381,-0.27775 1.83893,0.33231 2.47804,1.35569 1.22553,1.96239 0.63994,4.93975 -0.97156,4.93975 -0.52361,0 -0.73218,0.35571 -0.46349,0.79047 0.77707,1.25732 -2.50091,7.24697 -3.59576,6.57031 -0.59906,-0.37023 -0.73358,0.19353 -0.3412,1.42983 0.3563,1.12259 0.18466,2.32732 -0.38141,2.67717 -0.62679,0.38738 -0.80131,-0.0685 -0.44634,-1.16584 0.47019,-1.45357 0.38406,-1.52118 -0.44548,-0.34969 -0.56559,0.79874 -0.81037,1.80494 -0.54397,2.236 0.7433,1.20267 -4.67694,9.89233 -5.75487,9.22614 -0.52152,-0.32232 -2.27152,0.91508 -3.88887,2.74978 -2.89876,3.2883 -3.92403,5.54188 -1.9726,4.33583 0.55,-0.33992 1,-0.16803 1,0.38197 0,0.55 -0.45,1.27811 -1,1.61803 -0.55,0.33992 -1,0.11492 -1,-0.5 0,-0.61492 -0.45,-0.83992 -1,-0.5 -1.4946,0.92371 -1.24982,3.7618 0.25,2.89869 0.72624,-0.41793 0.90083,-0.33791 0.41667,0.19098 -1.12722,1.23136 -3.00526,1.2043 -3.90136,-0.0562 -0.45771,-0.64385 -0.74046,-0.51219 -0.75,0.34924 -0.008,0.76049 -0.97617,2.21606 -2.15055,3.23459 -1.69749,1.47223 -1.89254,2.14431 -0.95144,3.27827 0.82874,0.99857 0.86187,1.62534 0.11046,2.08974 -0.59033,0.36485 -0.94968,0.12366 -0.79856,-0.53597 0.15113,-0.65963 -0.35123,-1.42675 -1.11635,-1.70471 -1.05249,-0.38235 -1.23417,0.12001 -0.74633,2.06372 0.35464,1.413 0.1983,2.84504 -0.34742,3.18231 -0.5598,0.34598 -0.74557,-0.0295 -0.42627,-0.86159 0.59221,-1.54328 -1.09907,-1.69115 -3.33885,-0.29192 -2.19469,1.37106 -1.34623,0.32115 5.71446,-7.07125 z m 29.61335,-48.76589 2.38929,-4 0.0164,4.25 c 0.009,2.3375 -0.41943,4.25 -0.95217,4.25 -0.53274,0 -0.68126,0.74882 -0.33006,1.66404 0.44554,1.16107 0.26432,1.43276 -0.59956,0.89885 -0.68096,-0.42085 -0.97733,-1.44478 -0.65859,-2.27538 0.40306,-1.05038 0.11935,-1.33361 -0.93183,-0.93024 -0.83124,0.31898 -1.46892,0.48158 -1.41708,0.36135 0.0518,-0.12024 1.16944,-2.01862 2.48355,-4.21862 z"
         id="path3971"
         inkscape:connector-curvature="0" />
    </g>
  </g>
</svg>
