<?xml version="1.0" encoding="UTF-8" standalone="no"?>
<!-- Created with Inkscape (http://www.inkscape.org/) -->

<svg
   xmlns:dc="http://purl.org/dc/elements/1.1/"
   xmlns:cc="http://creativecommons.org/ns#"
   xmlns:rdf="http://www.w3.org/1999/02/22-rdf-syntax-ns#"
   xmlns:svg="http://www.w3.org/2000/svg"
   xmlns="http://www.w3.org/2000/svg"
   xmlns:sodipodi="http://sodipodi.sourceforge.net/DTD/sodipodi-0.dtd"
   xmlns:inkscape="http://www.inkscape.org/namespaces/inkscape"
   width="72.861809"
   height="81.538223"
   id="svg2"
   version="1.1"
   inkscape:version="0.48.1 r9760"
   sodipodi:docname="leaf_03.svg">
  <defs
     id="defs4">
    <inkscape:path-effect
       effect="bend_path"
       id="path-effect7277"
       is_visible="true"
       bendpath="m 528.22082,546.44952 c 26.63195,11.89747 69.61212,4.35937 94.7276,-3.65666"
       prop_scale="1"
       scale_y_rel="false"
       vertical="false"
       bendpath-nodetypes="cc" />
  </defs>
  <sodipodi:namedview
     id="base"
     pagecolor="#ffffff"
     bordercolor="#666666"
     borderopacity="1.0"
     inkscape:pageopacity="0.0"
     inkscape:pageshadow="2"
     inkscape:zoom="8.7511459"
     inkscape:cx="18.686272"
     inkscape:cy="39.675546"
     inkscape:document-units="px"
     inkscape:current-layer="layer1"
     showgrid="false"
     inkscape:window-width="1749"
     inkscape:window-height="960"
     inkscape:window-x="0"
     inkscape:window-y="0"
     inkscape:window-maximized="0"
     fit-margin-top="0"
     fit-margin-left="0"
     fit-margin-right="0"
     fit-margin-bottom="0" />
  <metadata
     id="metadata7">
    <rdf:RDF>
      <cc:Work
         rdf:about="">
        <dc:format>image/svg+xml</dc:format>
        <dc:type
           rdf:resource="http://purl.org/dc/dcmitype/StillImage" />
        <dc:title></dc:title>
      </cc:Work>
    </rdf:RDF>
  </metadata>
  <g
     inkscape:label="Layer 1"
     inkscape:groupmode="layer"
     id="layer1"
     transform="translate(-222.23211,-429.56872)">
    <g
       id="g3969"
       transform="translate(-310.44084,-75.018121)"
       inkscape:path-effect="#path-effect7277">
      <path
         style="fill:#cdd2b2"
         d="m 511.2583,584.41936 c 2.5565,0.038 3.29762,0.0214 3.84446,0.0761 0.54685,0.0547 0.88551,0.16556 2.46329,0.24574 1.57778,0.0802 3.3916,-0.12092 5.01465,-0.52214 1.62305,-0.40122 3.05699,-0.99902 3.95932,-1.64249 2.20296,-1.57096 5.30644,-2.94961 9.05371,-4.39303 3.74728,-1.44342 8.13698,-2.96471 12.9306,-4.78672 0,0 0,0 0,0 1.61192,-0.59723 3.28132,-1.21555 5.00295,-1.86147 4.0425,-1.51668 8.06451,-3.51975 11.93712,-5.93447 3.87261,-2.41472 7.59626,-5.24001 11.10773,-8.35997 6.88126,-6.11867 13.04402,-13.36076 17.9665,-21.01723 4.92247,-7.65646 8.60838,-15.71347 10.95292,-23.42089 0.93165,-3.06271 1.6037,-5.39873 2.15499,-7.05272 0.5513,-1.65398 0.98054,-2.62641 1.37833,-2.96457 0.79557,-0.67631 1.47609,1.18249 2.46223,5.21584 0.59422,2.43038 0.70855,5.97972 0.29621,10.18866 -0.41234,4.20894 -1.35972,9.07744 -2.85399,14.11091 -1.49428,5.03348 -3.53974,10.22992 -6.0182,15.07515 -2.47847,4.84523 -5.38972,9.33654 -8.45446,12.97736 -5.05666,6.00715 -10.6006,11.24605 -16.3606,15.63352 0,0 0,0 0,0 -4.83753,3.67631 -9.95865,6.73286 -15.23306,9.08942 -5.2744,2.35656 -10.70031,4.01307 -16.05323,4.96784 -3.63247,0.70274 -7.31329,0.99204 -10.92889,0.88405 -3.6156,-0.10798 -7.165,-0.61245 -10.52044,-1.45581 -1.35135,-0.23819 -2.08442,-0.29841 -2.61839,-0.31958 -0.53397,-0.0212 -0.87037,-0.007 -1.45015,-0.14144 -0.57977,-0.13456 -1.40279,-0.41324 -2.9219,-1.07388 -1.51911,-0.66065 -3.73544,-1.68875 -7.1117,-3.51815 z"
         id="path3993"
         inkscape:connector-curvature="0"
         sodipodi:nodetypes="csssssscc"
         inkscape:original-d="m 528.22082,588.03601 c 2.13396,-1.9279 1.33664,-1.08634 2.78318,-2.03415 1.44654,-0.94781 3.22733,-3.15271 3.95729,-4.89977 2.08145,-4.9816 7.1916,-10.16292 15.22422,-15.43626 16.07543,-10.55335 35.99551,-32.35972 48.35319,-52.93188 6.5072,-10.8327 7.36564,-11.19903 6.82583,-2.91287 -0.65054,9.98603 -13.55356,34.67643 -24.59602,47.06538 -17.29969,19.40918 -33.87138,30.35314 -45.42423,31.17203 -2.71984,0.58684 -0.16888,1.43751 -7.12346,-0.0225 z" />
      <path
         style="fill:#b7c7aa"
         d="m 515.61098,585.18771 c 2.3198,0.003 4.07873,-0.12458 5.45349,-0.29148 1.37475,-0.1669 2.36376,-0.37572 3.10499,-0.58881 1.48246,-0.4262 1.97941,-0.8652 2.39639,-1.25244 1.60735,-1.49271 4.50783,-2.80484 8.29786,-4.23938 3.79003,-1.43454 8.4628,-3.0153 13.62024,-5.02678 0,0 0,0 0,0 2.10202,-0.79936 4.30502,-1.64743 6.59232,-2.55677 2.92764,-1.16391 6.53264,-3.021 10.26936,-5.41011 3.73673,-2.38911 7.602,-5.30957 11.23627,-8.4609 4.84345,-4.20294 9.32965,-8.80496 12.84467,-13.00539 3.51503,-4.20044 6.07603,-7.98729 7.32471,-10.51042 0.37023,-0.7481 1.18893,-2.3715 2.15989,-4.39267 0.97096,-2.02117 2.08918,-4.44075 3.11141,-6.77056 1.02224,-2.32981 2.09707,-5.05495 2.98789,-7.5669 0.89081,-2.51195 1.60132,-4.80976 1.98957,-6.28133 0.72356,-2.74248 1.41422,-4.28896 2.07128,-4.85273 0.65706,-0.56377 1.2793,-0.1447 1.79199,1.05512 1.02538,2.39963 1.64384,7.93138 0.6661,14.99495 -0.68109,4.92052 -1.91815,9.99571 -3.71927,15.06709 -1.80111,5.07137 -4.16716,10.13789 -7.05397,15.02479 -2.88681,4.88691 -6.29473,9.59289 -10.11821,13.94469 -3.82348,4.35181 -8.06228,8.34819 -12.54859,11.83691 -4.70564,3.65038 -9.8092,6.72279 -15.10785,9.0194 -5.29866,2.29661 -10.79136,3.81523 -16.10492,4.47125 -4.5846,0.63431 -9.16694,0.47408 -13.35217,-0.42704 -2.33894,-0.50359 -3.47861,-0.92595 -4.03124,-1.17589 -0.55264,-0.24994 -0.52804,-0.34358 -0.60069,-0.32062 -0.0727,0.023 -0.23837,0.16537 -1.19393,0.35942 -0.95557,0.19404 -2.68205,0.46677 -6.06868,0.50824 -1.71475,-0.45638 -4.00763,-1.24593 -5.48233,-1.94569 -1.4747,-0.69976 -2.10595,-1.2599 -0.53658,-1.20595 z"
         id="path3991"
         inkscape:connector-curvature="0"
         sodipodi:nodetypes="cssssssscc"
         inkscape:original-d="m 530.21282,587.11286 c 4.06153,-3.33349 4.52049,-4.57957 4.83124,-5.55867 1.44172,-4.54244 7.03435,-10.16508 16.19826,-16.28517 9.26602,-6.18829 30.00293,-26.25339 35.19568,-34.05546 0.88039,-1.32277 3.8892,-5.72096 6.68625,-9.77376 2.79705,-4.0528 6.32731,-9.50622 7.84502,-12.11872 5.65693,-9.73751 6.4792,-0.97504 1.12764,12.01654 -13.00933,31.58175 -44.88786,64.23346 -62.71244,64.23346 -5.1327,0 0.28396,-1.84932 -5.95727,2.49899 -1.72112,0.19143 -4.60614,0.0733 -3.21438,-0.95721 z" />
      <path
         style="fill:#a2ab92"
         d="m 518.67938,585.37908 c 1.96532,0.004 3.31544,-0.076 4.26667,-0.16891 0.95123,-0.0929 1.50123,-0.2024 1.82425,-0.31353 0.64606,-0.22225 0.38295,-0.45481 0.46705,-0.7389 0.43075,-1.45511 3.38899,-2.80438 7.65359,-4.37587 2.1323,-0.78574 4.58747,-1.6357 7.22452,-2.5886 2.63705,-0.95291 5.4555,-2.00988 8.34424,-3.16905 0,0 0,0 10e-6,0 1.96239,-0.76818 3.97546,-1.56515 6.01603,-2.38558 3.88488,-1.56198 7.74443,-3.56344 11.46149,-5.92864 3.71707,-2.36519 7.29219,-5.09309 10.66721,-8.07171 4.12454,-3.64307 7.99351,-7.65476 11.47489,-11.87185 3.48138,-4.21709 6.57529,-8.6384 9.21029,-13.08477 2.635,-4.44638 4.81181,-8.91675 6.5132,-13.23345 1.7014,-4.31671 2.92866,-8.47905 3.70379,-12.32445 0.52807,-2.6197 1.09246,-3.81193 1.66778,-3.94284 0.57532,-0.1309 1.15871,0.80005 1.64343,2.44038 0.96944,3.28067 1.53878,9.41283 0.50426,15.55773 -0.77504,4.60368 -2.07573,9.35825 -3.90846,14.12607 -1.83272,4.76783 -4.19822,9.54805 -7.06017,14.18859 -2.86196,4.64054 -6.22071,9.14031 -9.98906,13.3475 -3.76835,4.20718 -7.94621,8.12069 -12.39354,11.60549 -4.58422,3.58366 -9.56812,6.69389 -14.81209,9.14919 -5.24397,2.4553 -10.74837,4.25328 -16.23101,5.30276 -4.51875,0.93167 -9.14881,1.21427 -13.61481,0.85169 -4.46599,-0.36259 -8.76362,-1.36776 -12.56109,-2.88464 -1.20859,0.28937 -2.70262,-0.11949 -3.39912,-0.58688 -0.69651,-0.46738 -0.57732,-0.95694 1.32665,-0.89973 0,0 0,0 0,0 z"
         id="path3989"
         inkscape:connector-curvature="0"
         sodipodi:nodetypes="csssscc"
         inkscape:original-d="m 531.6134,586.21996 c 3.57499,-2.646 2.92528,-2.63423 2.92529,-3.22744 4e-5,-3.55397 6.83441,-10.79841 16.30466,-17.28294 18.04014,-12.35257 40.96653,-38.34129 51.06731,-57.8885 4.88631,-9.45607 4.63287,3.34695 -0.2882,14.55916 -14.25699,32.48324 -50.6176,66.64428 -68.82335,64.5645 -1.02746,1.32147 -2.93494,0.45599 -1.18571,-0.72478 z" />
      <path
         style="fill:#8b976e"
         d="m 526.32205,583.28685 c 2.85969,-1.63278 6.01203,-3.04108 9.65533,-4.46579 3.64331,-1.42471 7.78059,-2.87168 12.47042,-4.68123 2.42066,-0.91013 5.01209,-1.88983 7.77984,-2.99013 3.19199,-1.26895 6.63279,-3.07004 10.09412,-5.32794 3.46132,-2.25791 6.94221,-4.97214 10.29703,-8.00692 3.94753,-3.57405 7.76274,-7.58558 11.23312,-11.81662 3.47037,-4.23104 6.59584,-8.67992 9.2536,-13.09832 2.65776,-4.4184 4.84916,-8.80463 6.53143,-12.90594 1.68227,-4.10131 2.85806,-7.91666 3.53462,-11.20973 0.71081,-3.45973 1.37402,-5.15709 2.01442,-5.52999 0.64041,-0.3729 1.25294,0.57935 1.72754,2.43787 0.9492,3.71704 1.33639,11.08184 -0.2719,18.69886 -2.05356,9.72585 -5.95493,19.42176 -11.53089,28.25177 -5.57595,8.83 -12.82795,16.77395 -21.04001,23.03245 -4.57627,3.47965 -9.55645,6.4225 -14.81101,8.66066 -5.25456,2.23816 -10.78367,3.76961 -16.3259,4.50394 -4.77173,0.70254 -9.69695,0.65396 -14.47614,-0.15182 -3.18969,-0.5378 -6.15138,-1.20603 -8.29693,-1.74995 -2.14555,-0.54393 -3.46709,-0.94296 -3.39041,-0.93203 0.15344,0.0219 2.75784,-1.12395 5.55172,-2.71914 0,0 0,0 0,0 z"
         id="path3987"
         inkscape:connector-curvature="0"
         sodipodi:nodetypes="ssssscs"
         inkscape:original-d="m 534.95431,581.8458 c 3.03643,-5.98365 7.8672,-10.71092 17.08439,-16.71836 14.6341,-9.53801 40.43606,-38.86182 49.10387,-55.80636 6.39504,-12.50152 5.56087,2.18363 -0.90638,15.95633 -14.78974,31.49637 -42.06652,58.24458 -61.44048,60.24985 -3.44135,0.35619 -6.19593,0.62427 -6.12128,0.59572 0.0747,-0.0285 1.1006,-1.95328 2.27988,-4.27718 z" />
      <path
         style="fill:#708855"
         d="m 527.96412,582.9544 c 2.75585,-1.66776 5.37066,-2.99178 8.5901,-4.2818 3.21943,-1.29001 7.0532,-2.54586 11.8784,-4.38543 2.1371,-0.79356 4.48296,-1.68287 7.05433,-2.73346 3.65272,-1.4924 7.32041,-3.4093 10.87818,-5.68211 3.55777,-2.2728 7.00596,-4.90063 10.27628,-7.77852 7.00068,-6.16597 13.28359,-13.47103 18.21534,-21.01363 4.93175,-7.5426 8.52119,-15.30434 10.65802,-22.33903 0.95552,-3.14569 1.667,-5.59233 2.25043,-7.38135 0.58343,-1.78901 1.03786,-2.92081 1.43509,-3.43919 0.79446,-1.03677 1.37724,0.37758 1.99145,3.91233 0.77779,4.47607 0.7153,9.71862 -0.27274,15.40367 -0.98805,5.68504 -2.90838,11.81089 -5.76972,17.97461 -2.86134,6.16372 -6.66775,12.36108 -11.27003,18.15522 -4.60227,5.79414 -10.00115,11.17981 -15.85324,15.75936 0,0 -1e-5,0 -1e-5,0 -4.66757,3.64386 -9.74038,6.75723 -15.02064,9.12015 -5.28026,2.36292 -10.76748,3.9728 -16.08492,4.72441 -5.54601,0.86584 -11.10159,0.56759 -15.94017,-0.78857 -2.58595,-0.7248 -5.21255,-1.55953 -7.87137,-2.51163 1.67582,-0.86311 3.293,-1.76962 4.85522,-2.71503 z"
         id="path3985"
         inkscape:connector-curvature="0"
         sodipodi:nodetypes="ssssscs"
         inkscape:original-d="m 535.74484,581.07108 c 2.89959,-5.74473 6.17826,-8.963 15.79386,-15.5029 15.56548,-10.58661 35.74927,-32.68746 46.53851,-50.95872 6.5817,-11.14592 7.99068,-12.15086 7.06408,-5.03838 -3.75995,28.86114 -46.63139,77.24068 -67.1685,75.79828 l -4.2469,-0.29828 z" />
      <path
         style="fill:#65774c"
         d="m 527.95724,582.95247 c 2.67109,-1.61669 5.54734,-2.99028 8.89532,-4.3446 3.34797,-1.35432 7.17112,-2.69306 11.58398,-4.35868 2.19952,-0.80842 4.56445,-1.67607 7.10455,-2.65053 3.51742,-1.34938 7.13694,-3.17677 10.69899,-5.42084 3.56206,-2.24407 7.06645,-4.90413 10.41851,-7.87338 6.76743,-6.00002 13.01167,-13.2543 18.03692,-20.94427 5.02526,-7.68996 8.83538,-15.79835 11.25248,-23.4235 0.95547,-3.01422 1.64333,-5.32697 2.19165,-6.99252 0.54833,-1.66556 0.95589,-2.68436 1.30371,-3.11362 0.69563,-0.85852 1.16435,0.63918 1.74819,4.05019 0.75754,4.42585 0.67742,9.61564 -0.32294,15.24965 -1.00036,5.63401 -2.92759,11.71056 -5.78995,17.83204 -2.86236,6.12148 -6.66385,12.28373 -11.25795,18.05557 -4.59411,5.77185 -9.98159,11.14811 -15.82485,15.7361 0,0 -10e-6,10e-6 -10e-6,10e-6 -4.65212,3.64404 -9.70814,6.77096 -14.97717,9.16307 -5.26902,2.39211 -10.75073,4.04681 -16.07831,4.85909 -6.08891,1.01796 -12.21297,0.65262 -17.4261,-0.94303 -2.11411,-0.6471 -4.25286,-1.36774 -6.41149,-2.16574 1.67555,-0.86312 3.29249,-1.76962 4.85447,-2.71501 z"
         id="path3983"
         inkscape:connector-curvature="0"
         sodipodi:nodetypes="ssssscs"
         inkscape:original-d="m 535.74102,581.07108 c 2.87383,-5.69539 7.1932,-9.91222 15.83677,-15.46082 14.42726,-9.26133 34.79145,-31.60092 47.09406,-51.66234 6.50969,-10.61514 7.36489,-11.18887 6.45511,-4.33062 -3.82697,28.8491 -47.55788,77.61438 -67.94522,75.76719 l -3.45908,-0.31341 z" />
      <path
         style="fill:#5e892d"
         d="m 528.18641,583.01655 c 2.56992,-1.70962 5.12483,-3.04946 8.3275,-4.33359 3.20266,-1.28414 7.06326,-2.51211 11.9075,-4.28696 1.99891,-0.71246 4.17816,-1.50131 6.55001,-2.41709 3.77658,-1.45815 7.5473,-3.35608 11.19445,-5.62974 3.64714,-2.27365 7.17099,-4.92219 10.50884,-7.84643 5.86796,-5.14552 11.24471,-11.1346 15.75588,-17.52299 4.51117,-6.38839 8.15764,-13.16929 10.80232,-19.85518 2.02282,-5.1138 3.28183,-8.90599 4.18362,-11.60709 0.90178,-2.7011 1.4383,-4.31408 1.83124,-5.09441 0.78588,-1.56066 0.99322,0.20739 1.65305,3.24845 0.90187,4.15656 0.93717,9.17543 0.0248,14.71654 -0.91234,5.54111 -2.78022,11.60283 -5.61813,17.75999 -2.83792,6.15715 -6.65071,12.40527 -11.28986,18.28029 -4.63914,5.87502 -10.10571,11.37119 -16.04303,16.06472 0,10e-6 0,10e-6 -1e-5,10e-6 -4.65471,3.67081 -9.71295,6.83086 -14.97955,9.25789 -5.26661,2.42703 -10.74123,4.11839 -16.04878,4.96767 -3.14531,0.54953 -6.29073,0.73687 -9.3107,0.5658 -3.01997,-0.17108 -5.91326,-0.69979 -8.53832,-1.54402 -1.80473,-0.5804 -3.62627,-1.21443 -5.46151,-1.90434 1.56905,-0.90334 3.08488,-1.84444 4.55065,-2.81952 z"
         id="path3981"
         inkscape:connector-curvature="0"
         sodipodi:nodetypes="ssssscs"
         inkscape:original-d="m 535.86826,581.07108 c 2.62872,-5.63899 5.97222,-8.9214 15.3303,-15.05021 14.06595,-9.21209 31.34091,-27.47197 43.33564,-45.80639 11.70625,-17.89345 10.93228,-17.0823 10.38488,-10.88376 -2.42381,27.4461 -47.85299,78.29498 -67.9601,76.06773 l -2.9554,-0.32737 z" />
      <path
         style="fill:#596c46"
         d="m 528.18641,583.01655 c 2.56992,-1.70962 5.12483,-3.04946 8.3275,-4.33359 3.20266,-1.28414 7.06326,-2.51211 11.9075,-4.28696 1.99891,-0.71246 4.17816,-1.50131 6.55001,-2.41709 3.77658,-1.45815 7.5473,-3.35608 11.19445,-5.62974 3.64714,-2.27365 7.17099,-4.92219 10.50884,-7.84643 5.86796,-5.14552 11.24471,-11.1346 15.75588,-17.52299 4.51117,-6.38839 8.15764,-13.16929 10.80232,-19.85518 2.02282,-5.1138 3.28183,-8.90599 4.18362,-11.60709 0.90178,-2.7011 1.4383,-4.31408 1.83124,-5.09441 0.78588,-1.56066 0.99322,0.20739 1.65305,3.24845 0.90187,4.15656 0.93717,9.17543 0.0248,14.71654 -0.91234,5.54111 -2.78022,11.60283 -5.61813,17.75999 -2.83792,6.15715 -6.65071,12.40527 -11.28986,18.28029 -4.63914,5.87502 -10.10571,11.37119 -16.04303,16.06472 0,10e-6 0,10e-6 -1e-5,10e-6 -4.65471,3.67081 -9.71295,6.83086 -14.97955,9.25789 -5.26661,2.42703 -10.74123,4.11839 -16.04878,4.96767 -3.14531,0.54953 -6.29073,0.73687 -9.3107,0.5658 -3.01997,-0.17108 -5.91326,-0.69979 -8.53832,-1.54402 -1.80473,-0.5804 -3.62627,-1.21443 -5.46151,-1.90434 1.56905,-0.90334 3.08488,-1.84444 4.55065,-2.81952 z m 17.95194,0.72973 c 0.44634,-0.11708 0.90053,-0.24293 1.35885,-0.37671 2.4384,-0.67994 5.01793,-1.55526 7.26499,-2.4454 2.24705,-0.89014 4.16599,-1.7908 5.36862,-2.46038 1.31583,-0.73259 0.96243,-0.77836 -0.6742,-0.27783 -1.63663,0.50053 -4.56808,1.53909 -8.62514,2.80519 -1.08525,0.33868 -2.1528,0.66102 -3.18867,0.96472 0,0 0,0 0,0 -3.34966,1.02425 -6.43838,1.77327 -8.65696,2.28625 -2.21857,0.51298 -3.54828,0.81358 -3.39993,0.9409 0.17124,0.14697 1.51334,0.13759 3.46331,-0.0846 1.94997,-0.22218 4.49489,-0.6716 7.08913,-1.35214 z"
         id="path3979"
         inkscape:connector-curvature="0"
         sodipodi:nodetypes="ssssscssssss"
         inkscape:original-d="m 535.86826,581.07108 c 2.62872,-5.63899 5.97222,-8.9214 15.3303,-15.05021 14.06595,-9.21209 31.34091,-27.47197 43.33564,-45.80639 11.70625,-17.89345 10.93228,-17.0823 10.38488,-10.88376 -2.42381,27.4461 -47.85299,78.29498 -67.9601,76.06773 l -2.9554,-0.32737 z m 10.22066,-2.61111 c 3.08318,-1.86389 7.03318,-4.63282 8.77778,-6.15318 1.7446,-1.52035 -0.95796,-0.17531 -6.00569,2.98898 -5.04773,3.16429 -8.99773,5.93322 -8.77777,6.15318 0.21995,0.21995 2.92251,-1.12508 6.00568,-2.98898 z" />
      <path
         style="fill:#506c32"
         d="m 529.45432,582.32673 c 2.14687,-1.49603 4.3539,-2.65318 7.33106,-3.79892 2.97717,-1.14574 6.73915,-2.27616 11.62699,-4.04402 2.32211,-0.81668 4.91519,-1.75474 7.79478,-2.8994 3.35886,-1.33517 6.8497,-3.14055 10.30561,-5.3541 3.4559,-2.21354 6.87657,-4.83464 10.15968,-7.75547 3.55007,-3.16128 6.97531,-6.6677 10.14576,-10.39583 3.17046,-3.72813 6.08595,-7.67725 8.66176,-11.70663 5.15162,-8.05874 8.90807,-16.43059 11.09784,-23.96143 0.81378,-2.79868 1.56171,-5.59886 2.2443,-8.39783 0.50207,1.28031 1.00643,2.5598 1.51307,3.83847 1.32457,3.34295 1.68661,7.83633 1.02069,13.08043 -0.66592,5.2441 -2.37208,11.23752 -5.15345,17.47364 -2.78137,6.23611 -6.64577,12.70963 -11.44584,18.85663 -4.80006,6.147 -10.53813,11.95987 -16.80741,16.91751 0,0 0,0 0,0 -4.64618,3.66542 -9.69548,6.84395 -14.95529,9.30626 -5.25982,2.46231 -10.73004,4.20562 -16.0357,5.11726 -5.61898,1.04789 -11.25127,0.9285 -16.13371,-0.25226 -3.60261,-0.87125 -5.48149,-1.51611 -5.64185,-2.30284 -0.16036,-0.78672 1.41185,-1.72859 4.27171,-3.72147 z m 16.68403,1.41955 c 0.44634,-0.11708 0.90053,-0.24293 1.35885,-0.37671 2.4384,-0.67994 5.01793,-1.55526 7.26499,-2.4454 2.24705,-0.89014 4.16599,-1.7908 5.36862,-2.46038 1.31583,-0.73259 0.96243,-0.77836 -0.6742,-0.27783 -1.63663,0.50053 -4.56808,1.53909 -8.62514,2.80519 -1.08525,0.33868 -2.1528,0.66102 -3.18867,0.96472 0,0 0,0 0,0 -3.34966,1.02425 -6.43838,1.77327 -8.65696,2.28625 -2.21857,0.51298 -3.54828,0.81358 -3.39993,0.9409 0.17124,0.14697 1.51334,0.13759 3.46331,-0.0846 1.94997,-0.22218 4.49489,-0.6716 7.08913,-1.35214 z"
         id="path3977"
         inkscape:connector-curvature="0"
         sodipodi:nodetypes="ssscssssssss"
         inkscape:original-d="m 536.43456,580.07108 c 2.29274,-4.95208 5.38673,-7.82878 15.60414,-14.50829 14.48045,-9.46643 36.05563,-33.4529 47.59716,-52.91674 l 4.40284,-7.42504 0.3045,4.11364 c 1.65869,22.40831 -45.24558,76.23643 -66.43023,76.23643 -3.90164,0 -3.94689,-0.16833 -1.47841,-5.5 z m 9.65436,-1.61111 c 3.08318,-1.86389 7.03318,-4.63282 8.77778,-6.15318 1.7446,-1.52035 -0.95796,-0.17531 -6.00569,2.98898 -5.04773,3.16429 -8.99773,5.93322 -8.77777,6.15318 0.21995,0.21995 2.92251,-1.12508 6.00568,-2.98898 z" />
      <path
         style="fill:#475832"
         d="m 528.39441,583.21655 c 1.99031,-1.74415 3.78884,-2.97691 6.76984,-4.16155 1.4905,-0.59232 3.27027,-1.17913 5.4506,-1.87956 2.18034,-0.70044 4.76298,-1.51547 7.78955,-2.6143 0,0 10e-6,0 10e-6,0 4.30431,-1.51959 9.59843,-3.51551 15.87718,-6.55036 3.42729,-1.65659 7.87961,-4.8081 12.43384,-9.0071 0,0 0,0 10e-6,0 3.25931,-3.0083 6.61235,-6.54121 9.79681,-10.38806 3.18446,-3.84686 6.19923,-8.00665 8.86658,-12.23088 2.66735,-4.22424 4.98789,-8.51132 6.87202,-12.59539 1.88413,-4.08406 3.33407,-7.9638 4.32695,-11.37842 0.81378,-2.79868 1.56171,-5.59886 2.2443,-8.39783 0.50207,1.28031 1.00643,2.5598 1.51307,3.83847 1.06067,2.67693 0.93231,8.04702 -0.40521,14.68148 -0.66877,3.31723 -1.64338,6.94764 -2.90858,10.6978 -1.26519,3.75016 -2.82194,7.61953 -4.61385,11.41108 -1.79191,3.79155 -3.8192,7.50462 -5.97533,10.94777 -2.15614,3.44314 -4.44052,6.61591 -6.69956,9.34096 -4.51808,5.4501 -8.93318,9.09645 -11.74571,9.71377 0,0 0,0 0,10e-6 -0.74212,0.16474 -1.37594,0.12149 -1.87549,-0.15042 -0.63259,-0.34433 -0.68835,-0.12854 -0.12131,0.48036 0.61661,0.66214 -2.33363,3.24566 -7.0289,5.97189 -2.34763,1.36311 -5.13882,2.7526 -8.0947,3.95623 -2.95588,1.20362 -6.07778,2.219 -8.98636,2.90072 -1.27301,0.29838 -2.97326,0.5697 -4.91921,0.77293 -2.10878,0.25113 -4.53838,0.39209 -7.03384,0.37913 -2.49546,-0.013 -5.05609,-0.1814 -7.36297,-0.4601 -2.30688,-0.27869 -4.35687,-0.66431 -5.79624,-1.03369 -1.43937,-0.36939 -2.26313,-0.71348 -2.14406,-0.92486 0.10456,-0.18578 1.85897,-1.6449 3.77056,-3.32008 z m 13.56648,1.54612 c 1.90465,-0.36952 3.74826,-0.8193 5.53074,-1.33899 0,0 0,0 0,0 5.95685,-1.65891 11.42824,-3.90002 16.41011,-6.57189 4.98187,-2.67187 9.47565,-5.77334 13.5204,-9.15487 7.10338,-5.95024 13.02122,-12.73704 17.61643,-19.93699 1.17973,-1.84843 1.96611,-3.17388 2.36764,-3.92069 0.40153,-0.7468 0.41902,-0.91486 0.0185,-0.46102 -0.40048,0.45384 -1.21802,1.53008 -2.542,3.25503 -1.32398,1.72494 -3.15335,4.09974 -5.6477,7.12169 -3.82754,4.63713 -7.76255,8.6586 -11.9507,12.24683 -3.961,3.3874 -8.20985,6.38294 -13.03251,9.0262 -4.82266,2.64326 -10.21368,4.94192 -16.59569,6.79846 0,0 0,0 0,0 -2.21352,0.6717 -4.57478,1.26318 -7.11479,1.74391 -3.06655,0.58039 -5.93189,1.00336 -7.9933,1.31176 -2.0614,0.30839 -3.30254,0.52389 -3.114,0.69628 0.18854,0.1724 1.78244,0.27992 4.10191,0.18738 2.31947,-0.0925 5.34752,-0.40604 8.42493,-1.00309 z"
         id="path3975"
         inkscape:connector-curvature="0"
         sodipodi:nodetypes="ssscsssscssssscs"
         inkscape:original-d="m 536.00351,581.20834 c 2.13719,-5.99509 4.32006,-7.94439 21.71005,-19.38705 9.62788,-6.33517 32.26445,-32.88808 41.9223,-49.17524 l 4.40284,-7.42504 0.3045,4.11364 c 0.9056,12.23434 -32.77786,64.46247 -38.33852,59.44607 -0.43265,-0.3903 -0.4825,-0.17881 -0.11079,0.46997 0.80841,1.411 -9.03927,9.2397 -16.05534,12.76367 -4.10112,2.05988 -15.39114,4.60232 -15.25596,3.43555 0.0241,-0.20836 0.66356,-2.11706 1.42092,-4.24157 z m 7.66031,-1.24611 c 14.7208,-8.52653 28.44894,-20.91495 39.21844,-35.39115 4.8042,-6.45774 3.82464,-5.54115 -5.34352,5 -11.28512,12.97514 -20.70054,20.93317 -34.80868,29.42073 -3.46975,2.08743 -6.11345,3.99052 -5.87488,4.22908 0.23857,0.23857 3.30246,-1.22783 6.80864,-3.25866 z" />
      <path
         style="fill:#29560e"
         d="m 533.44568,580.66083 c 1.72087,-0.95689 4.04215,-1.90986 6.62846,-2.88358 2.58631,-0.97372 5.43642,-1.97075 8.30119,-2.93376 0.26273,-0.0857 0.52597,-0.17065 0.78958,-0.25492 2.66104,-0.8506 5.92368,-2.1011 8.96395,-3.48083 3.04026,-1.37973 5.86367,-2.88174 7.8531,-4.07192 3.97884,-2.38034 7.44209,-4.19098 7.98019,-3.83747 0.5381,0.3535 0.74765,0.16248 0.46527,-0.4221 -0.12418,-0.25708 0.79061,-1.42297 2.33664,-3.17444 1.96378,-2.22809 4.94257,-5.41268 8.13769,-8.88637 2.93974,-3.19604 5.25358,-5.97859 7.23016,-8.58874 1.97658,-2.61015 3.61347,-5.04983 5.11528,-7.59612 1.50181,-2.54629 2.86866,-5.20002 4.23832,-8.25464 1.36967,-3.05461 2.7447,-6.51079 4.17597,-10.66796 1.34804,-3.91546 2.55948,-7.83901 3.63576,-11.76227 l 1.20481,3.86409 c 0.84176,2.69969 1.01628,6.59719 0.43696,11.28356 -0.57933,4.68636 -1.92252,10.16193 -4.11249,15.95384 -2.18998,5.79191 -5.23341,11.89768 -9.08385,17.79584 -3.85044,5.89816 -8.51074,11.58404 -13.73283,16.54273 -2.25199,2.1384 -4.31433,3.9087 -6.03073,5.26252 -2.06777,1.62706 -3.657,2.65293 -4.48934,3.00221 -0.83233,0.34927 -0.90019,0.0264 -0.0326,-1.0842 0.66797,-0.85504 0.59733,-1.13697 0.11541,-0.96026 -0.48192,0.17671 -1.38038,0.80933 -2.40628,1.77338 -1.63467,1.53613 -1.6099,1.64813 0.22112,0.79906 1.78552,-0.82798 1.84351,-0.7223 0.34666,0.68506 -0.9788,0.9203 -3.7537,2.30416 -6.21663,3.01603 -2.46293,0.71186 -4.17993,1.47785 -3.73524,1.77456 0.5325,0.35529 -1.10403,1.23786 -3.9084,2.18338 -2.80437,0.94552 -6.80751,1.92266 -10.87976,2.51712 -3.34032,0.53624 -6.79736,0.73123 -9.50345,0.57687 -3.32567,-0.18969 -5.88844,-0.55693 -7.52722,-0.90785 -1.63878,-0.35093 -2.35313,-0.68125 -2.09871,-0.94259 0.25442,-0.26134 1.47785,-0.4541 3.59244,-0.70566 2.11459,-0.25157 5.11972,-0.56795 8.81786,-1.20538 2.49907,-0.43075 4.90961,-0.99887 7.2202,-1.68104 1e-5,0 1e-5,0 1e-5,0 6.1598,-1.73818 11.8151,-4.07768 16.83065,-6.76509 5.01555,-2.68741 9.39683,-5.71726 13.10533,-8.81564 1.24563,-1.04275 2.42197,-2.09245 3.5248,-3.14131 2.27787,-2.1664 4.79727,-4.85209 7.21231,-7.71164 2.41504,-2.85954 4.72485,-5.89205 6.68191,-8.71425 3.91411,-5.64442 6.42281,-10.43094 6.23041,-11.19912 -0.15431,-0.61618 -0.66933,-0.11402 -1.16168,1.11404 -0.86002,2.14518 -3.90311,7.07445 -8.12826,12.48929 -2.11257,2.70741 -4.51623,5.53455 -7.01041,8.20997 -2.49418,2.67543 -5.07831,5.19854 -7.48108,7.32924 -0.55659,0.49259 -1.10451,0.96422 -1.63997,1.41208 -2.30559,1.92843 -6.30182,4.62694 -11.26341,7.24297 -2.48079,1.30801 -5.2016,2.59429 -8.03822,3.76878 -2.83662,1.17449 -5.78973,2.23623 -8.69218,3.12811 -4.66727,1.49262 -9.34364,2.38795 -12.98735,2.73989 -3.64372,0.35194 -6.21031,0.21139 -6.60185,-0.15657 -0.36971,-0.34743 2.18679,-1.88918 5.36947,-3.6589 0,0 0,0 0,0 z"
         id="path3973"
         inkscape:connector-curvature="0"
         sodipodi:nodetypes="sssscsscssssssssssscsscs"
         inkscape:original-d="m 538.37699,577.48712 c 1.75138,-2.76164 5.16468,-5.94735 9.03008,-8.42796 3.41792,-2.19345 8.61582,-5.88054 11.55089,-8.19354 2.93507,-2.313 5.65395,-3.888 6.04195,-3.5 0.388,0.388 0.55546,0.21261 0.37212,-0.38976 -0.18333,-0.60238 3.89634,-5.55002 9.06594,-10.99477 10.6588,-11.2261 14.29873,-15.93778 23.55919,-30.49601 l 6.54154,-10.28385 0,4.04739 c 0,11.31105 -15.52183,37.6493 -32.4548,55.071 -6.18939,6.36803 -9.89851,9.25018 -8.0452,6.25146 1.00599,-1.62773 -0.14174,-1.13977 -1.62756,0.69196 -1.18376,1.45936 -1.16623,1.57044 0.12756,0.80804 1.26164,-0.74346 1.2961,-0.63215 0.21684,0.70045 -0.70573,0.87141 -2.63266,2.14336 -4.28206,2.82657 -1.6494,0.6832 -2.76007,1.48102 -2.46815,1.77294 0.98633,0.98633 -9.37532,6.20157 -14.50852,7.30244 -7.34808,1.57589 -7.07235,0.6311 1.21452,-4.16147 10.11218,-5.84821 20.18811,-13.59048 27.46494,-21.10385 7.48483,-7.72813 19.37372,-22.60028 19.33202,-24.18297 -0.0167,-0.63476 -0.53765,-0.25411 -1.15762,0.84589 -2.2907,4.06438 -14.62663,18.32836 -22.31197,25.79924 -6.50796,6.32635 -28.92408,21.61001 -30.04734,20.48675 -0.23654,-0.23653 0.837,-2.42801 2.38563,-4.86995 z" />
      <path
         style="fill:#173707"
         d="m 534.84011,581.71875 c 1.85182,0.69913 4.04782,0.75694 4.87132,0.19216 1.0545,-0.72322 0.6597,-0.95609 -1.37231,-0.86822 -2.22318,0.0961 -2.98749,-0.48176 -2.52232,-1.16819 0.46517,-0.68643 2.13083,-1.49962 4.56577,-2.13783 2.34865,-0.6156 4.94309,-0.79083 5.88458,-0.29293 1.13407,0.59973 1.44406,0.31974 0.93448,-0.80487 -0.50513,-1.11478 -0.21155,-1.40216 1.09369,-1.01857 0.1578,0.048 0.33057,0.10585 0.51882,0.17317 1.50255,0.53734 2.03616,0.40122 1.45663,-0.34167 -0.26882,-0.34458 0.43318,-0.91535 1.82031,-1.62536 1.38713,-0.71 3.45367,-1.56494 5.9085,-2.50662 2.29971,-0.88218 4.80212,-2.07433 6.96245,-3.28648 2.16032,-1.21215 3.98393,-2.43873 5.02739,-3.32578 2.62017,-2.22738 4.63914,-3.19037 6.70246,-3.07433 0.0817,0.005 0.16107,0.008 0.23827,0.0117 1.96236,0.0854 2.48681,-0.26656 1.90743,-1.20561 -0.42149,-0.68315 -1.30896,-0.94938 -2.05827,-0.64987 -0.0637,0.0255 -0.12637,0.055 -0.18774,0.0888 -0.60914,0.33471 -0.51669,-0.0106 0.1313,-0.78302 0,0 0,0 0,0 0.18723,-0.22352 0.42065,-0.48303 0.69617,-0.77281 1.22644,-1.28998 2.86696,-2.13268 3.68201,-1.86486 0.81503,0.26782 0.99784,0.14856 0.40622,-0.26195 -0.38104,-0.2644 0.23681,-1.32143 1.37508,-2.7638 1.13828,-1.44237 2.78939,-3.27466 4.50004,-5.08846 1.71065,-1.8138 3.4805,-3.60946 4.94097,-4.94147 1.46047,-1.33201 2.61838,-2.19818 3.14139,-2.13126 0.96615,0.12362 -0.2811,3.11096 -2.19614,6.0998 -1.91504,2.98883 -4.52514,5.95652 -5.78316,6.14709 -0.79288,0.12006 -1.17793,0.96321 -0.85098,1.87882 0.32695,0.91562 0.0506,1.73672 -0.61843,1.82127 -1.33812,0.16913 -1.48183,-2.36616 -0.24107,-3.6365 0.43029,-0.44056 0.71847,-1.26351 0.64422,-1.82702 -0.14857,-1.1274 -0.8143,-0.68177 -1.45071,0.37514 -0.63641,1.05692 -1.25233,2.72558 -1.24888,4.05909 0.004,1.54889 -0.0352,2.98948 -0.0822,3.20101 -0.0469,0.21152 -1.03482,-0.0799 -2.18197,-0.66014 -1.14714,-0.58025 -2.4165,-0.74232 -2.83714,-0.34938 -0.42065,0.39294 -0.17174,0.66184 0.55586,0.59417 1.9029,-0.17697 1.79263,4.33261 -0.15807,4.65887 -0.54468,0.0911 -1.25574,0.21064 -1.89854,0.31755 -0.41675,0.07 -0.80537,0.13461 -1.10158,0.18452 -0.75501,0.12717 -1.14705,0.99226 -0.86355,1.92765 0.35573,1.17369 -0.4285,1.82206 -2.56822,2.03442 -1.47069,0.14596 -2.2243,0.18314 -2.34101,-0.0399 -0.1167,-0.22304 0.40498,-0.70764 1.44088,-1.64747 1.61981,-1.4696 1.60456,-2.04243 0.79036,-1.8671 -0.81419,0.17533 -2.44614,1.08495 -4.19084,2.53611 -2.11101,1.75581 -2.51896,2.58211 -1.25392,2.85487 1.2775,0.27545 0.98015,1.08043 -1.16864,2.75944 -1.74773,1.36562 -3.99731,2.07871 -5.27444,1.71625 -1.21149,-0.34383 -2.59904,-0.22315 -3.09502,0.28403 -0.49599,0.50718 0.16845,0.96854 1.47651,1.00593 1.30806,0.0374 1.99113,0.46144 1.51887,0.96159 -0.47226,0.50015 -2.85628,0.69552 -5.30525,0.35821 -2.44895,-0.3373 -4.49895,-0.25318 -4.54302,0.26869 -0.0441,0.52186 0.7794,1.03084 1.82531,1.11615 0.80694,0.0658 0.60104,0.44002 -0.2912,0.96741 -0.89225,0.52739 -2.47772,1.20218 -4.45252,1.83238 -2.03825,0.67562 -4.52181,1.27926 -7.06059,1.61084 -2.0706,0.27043 -3.67878,0.29812 -4.90411,0.1359 -1.22532,-0.16223 -2.06979,-0.51576 -2.66034,-1.05448 -0.59056,-0.53872 -0.75851,-0.82211 -0.47749,-0.84613 0.28102,-0.024 1.01146,0.21195 2.22235,0.6691 0,0 0,0 0,0 z m 49.00547,-18.93778 c 2.25996,-2.25758 4.5941,-4.81769 6.5274,-7.11971 1.9333,-2.30202 3.47201,-4.34248 4.24563,-5.52728 1.54724,-2.3696 2.97844,-4.59926 3.26039,-4.93388 0.75518,-0.89626 1.90297,-2.92754 2.80075,-4.84973 0.89778,-1.92218 1.55225,-3.73245 1.45429,-4.1697 -0.12515,-0.55856 0.16966,-1.10435 0.6546,-1.21533 0.48493,-0.11098 1.49392,-1.96361 2.19346,-4.1177 0.69954,-2.15408 1.92741,-4.09673 2.77581,-4.32213 1.1048,-0.29351 1.14126,-1.41121 0.61437,-2.41084 -0.52689,-0.99963 -1.60578,-1.88719 -2.75548,-1.74312 -1.17724,0.14753 -1.52934,0.65921 -0.95649,1.41218 0.50443,0.66304 0.0593,2.56646 -0.78218,4.35719 -0.8415,1.79072 -2.08472,3.46317 -3.02572,3.67256 -0.66437,0.14783 -1.31063,0.92671 -1.43991,1.73563 -0.15994,1.00078 0.19362,1.11438 1.09875,0.34567 0.73163,-0.62134 0.49374,0.52344 -0.57457,2.5393 -1.99465,3.76384 -3.40439,4.64864 -4.87761,3.26162 -0.78947,-0.74329 0.87226,-2.72073 2.55992,-3.09359 0.42023,-0.0924 1.113,-0.65975 1.53418,-1.25976 0.4449,-0.63382 0.22985,-0.66898 -0.51514,-0.0878 -1.07428,0.83813 -1.5165,0.73072 -1.35171,-0.11575 0.16478,-0.84648 0.93274,-2.4327 2.19641,-4.58332 0.65911,-1.12172 1.43696,-2.61939 2.1444,-4.12979 0.70743,-1.5104 1.34469,-3.0332 1.76254,-4.19962 0.8357,-2.33283 1.92607,-4.36503 2.48572,-4.51507 0.55963,-0.15005 0.65104,-0.59311 0.20711,-0.98313 -0.44392,-0.39 -0.25225,-1.09314 0.41676,-1.56555 0.66897,-0.47239 1.97331,-0.20813 2.91814,0.58301 1.81175,1.51706 2.0614,4.55272 0.35432,5.03906 -0.55466,0.15803 -0.68045,0.56226 -0.27623,0.90005 0.58452,0.48844 0.41647,2.42089 -0.10183,4.19227 -0.51831,1.77138 -1.3914,3.37763 -2.08268,3.20758 -0.75647,-0.18608 -0.76741,0.39804 -0.0208,1.48262 0.6779,0.98483 0.79098,2.20105 0.23697,2.70366 -0.61343,0.55653 -0.92167,0.16282 -0.79091,-1.00226 0.1732,-1.54329 0.0623,-1.58314 -0.58645,-0.21333 -0.44232,0.93396 -0.48302,1.97943 -0.0767,2.32334 0.5669,0.47977 -0.1668,3.21322 -1.29567,5.77601 -1.12888,2.5628 -2.659,4.94629 -3.37432,4.75663 -0.69216,-0.18354 -2.53292,1.46049 -4.17077,3.63338 -1.46776,1.94722 -2.45623,3.51961 -2.78588,4.41108 -0.32965,0.89147 0.006,1.10376 1.12109,0.2967 0.6285,-0.45493 1.21855,-0.38733 1.31647,0.15398 0.0979,0.54131 -0.33717,1.36043 -0.97213,1.81648 -0.63496,0.45604 -1.24243,0.32984 -1.34469,-0.27661 -0.10225,-0.60645 -0.70294,-0.733 -1.3401,-0.2851 -0.86572,0.60857 -1.11757,1.598 -0.92816,2.29429 0.18942,0.69628 0.82589,1.09785 1.71171,0.51527 0.85786,-0.56418 1.09265,-0.52383 0.56227,0.10071 -1.23483,1.45405 -3.66719,1.79888 -4.99171,0.71432 -0.67654,-0.55398 -1.01773,-0.37449 -0.91219,0.4806 0.0937,0.75482 -0.9544,2.37063 -2.35986,3.57237 -2.0315,1.73704 -2.23492,2.42873 -0.85407,3.40661 1.21599,0.86112 1.34436,1.47636 0.39461,2.05758 -0.74616,0.45663 -1.256,0.27104 -1.12944,-0.40743 0.12658,-0.67848 -0.62957,-1.3621 -1.67388,-1.52912 -1.43655,-0.22975 -1.63086,0.29121 -0.77786,2.15725 0.62009,1.35653 0.56251,2.80322 -0.1451,3.21371 -0.72586,0.42109 -1.01457,0.071 -0.6638,-0.79967 0.59663,-1.48087 -1.26974,-1.52682 -3.83629,-0.26588 0,0 0,0 0,0 -0.23357,0.11484 -0.47335,0.24033 -0.71816,0.37637 -0.95494,0.53065 -1.48518,0.75614 -1.42774,0.5352 0.0575,-0.22093 0.70626,-0.88677 2.04357,-2.17037 1.36775,-1.31629 3.47153,-3.28168 6.3246,-6.13175 0,0 0,-10e-6 0,-10e-6 z m 24.21804,-54.51806 c 0.40691,-1.51064 0.79464,-3.02134 1.16327,-4.53165 0.4267,1.35096 0.85353,2.70188 1.28049,4.05276 0.70446,2.22895 0.84207,4.18923 0.30428,4.35304 -0.5378,0.16381 -0.47373,0.92608 0.15008,1.6936 0.79139,0.9737 0.6857,1.29172 -0.35331,1.04496 -0.819,-0.19451 -1.40822,-1.08994 -1.32059,-1.98179 0.1108,-1.12783 -0.25475,-1.31199 -1.20409,-0.61781 -0.7507,0.54895 -1.35499,0.88604 -1.33493,0.75554 0.02,-0.1305 0.64334,-2.27607 1.31475,-4.76863 10e-6,-10e-6 3e-5,-10e-6 5e-5,-2e-5 z"
         id="path3971"
         inkscape:connector-curvature="0"
         inkscape:original-d="m 539.28179,578.21415 c 1.11716,0.29214 2.3808,-0.0345 2.8081,-0.72589 0.54716,-0.88534 0.28483,-1.06823 -0.88715,-0.6185 -2.56449,0.98408 -1.94908,-1.54545 0.87637,-3.60214 1.36266,-0.99191 2.99999,-1.48059 3.63851,-1.08596 0.76913,0.47535 0.95204,0.17307 0.54195,-0.89561 -0.45559,-1.18725 -0.19315,-1.44969 0.9941,-0.9941 1.02087,0.39174 1.36551,0.21837 0.9387,-0.47223 -0.39595,-0.64066 1.70405,-2.53833 5.08596,-4.59593 3.1682,-1.92759 7.07678,-4.8825 8.68573,-6.56647 2.02006,-2.11424 3.62587,-2.93473 5.18896,-2.65129 1.63947,0.2973 2.11367,0.0198 1.71985,-1.0065 -0.29906,-0.77933 -1.05909,-1.1172 -1.68895,-0.75081 -0.62987,0.36638 -0.29758,-0.30059 0.73843,-1.48216 1.036,-1.18158 2.386,-1.86178 3,-1.51157 0.61399,0.35021 0.76621,0.25195 0.33826,-0.21834 -1.10249,-1.21159 11.23877,-13.41789 12.91565,-12.77441 1.54885,0.59435 -5.96686,10.79211 -7.98261,10.83128 -0.63522,0.0123 -1.02272,0.79984 -0.86111,1.75 0.16161,0.95016 -0.13608,1.72756 -0.66152,1.72756 -1.051,0 -0.93111,-2.53454 0.17207,-3.63772 0.38258,-0.38259 0.69561,-1.16061 0.69561,-1.72895 0,-2.27416 -2.3169,1.4186 -2.55266,4.06853 -0.13693,1.53898 -0.29359,2.96574 -0.34815,3.17058 -0.0545,0.20485 -0.78506,-0.19678 -1.62336,-0.8925 -0.83829,-0.69572 -1.81329,-0.97582 -2.16666,-0.62244 -0.35338,0.35337 -0.17894,0.6425 0.38763,0.6425 1.48175,0 1.04941,4.47538 -0.4468,4.625 -0.6875,0.0687 -1.71973,0.18125 -2.29384,0.25 -0.57411,0.0687 -0.91161,0.90475 -0.75,1.85778 0.20278,1.19582 -0.41358,1.77377 -1.98901,1.86504 -2.16568,0.12547 -2.19622,0.0365 -0.59501,-1.73278 2.50377,-2.76663 0.10148,-2.2642 -2.52095,0.52725 -1.5865,1.68875 -1.87084,2.51783 -0.96687,2.81915 0.91287,0.30429 0.6628,1.08995 -0.87089,2.73618 -1.24743,1.33896 -2.79182,2.06359 -3.67542,1.72453 -0.83818,-0.32164 -1.78993,-0.15446 -2.115,0.37152 -0.32508,0.52598 0.13707,0.95633 1.02699,0.95633 0.88992,0 1.36063,0.41649 1.04602,0.92554 -0.31461,0.50904 -1.91616,0.75542 -3.55902,0.5475 -1.64285,-0.20791 -2.987,0.0506 -2.987,0.57447 0,0.52387 0.5625,0.9625 1.25,0.97473 1.60908,0.0286 -2.77663,3.52969 -7.05836,5.63462 -2.37965,1.16985 -3.61314,1.32164 -4.39405,0.54073 -0.78092,-0.78092 -0.5155,-0.93658 0.9455,-0.55452 z m 33.22137,-20.37718 c 3.80023,-3.97875 8.17281,-8.92875 9.71684,-11 1.54402,-2.07124 3.03488,-3.99089 3.31301,-4.26589 1.48995,-1.47319 5.00569,-7.06354 5.00569,-7.95951 0,-0.57227 0.34767,-1.04049 0.7726,-1.04049 0.42492,0 1.62079,-1.575 2.65747,-3.5 1.03668,-1.925 2.52031,-3.5 3.29695,-3.5 2.02269,0 1.17455,-4.26118 -0.90778,-4.56084 -1.0661,-0.15341 -1.48823,0.25986 -1.15429,1.13009 0.58811,1.5326 -3.24562,6.93075 -4.92219,6.93075 -0.59185,0 -1.28447,0.62514 -1.53916,1.3892 -0.31509,0.94528 -0.0392,1.12724 0.86333,0.56943 0.72952,-0.45087 0.30726,0.6115 -0.93836,2.36081 -2.32572,3.26617 -3.57796,3.88048 -4.58587,2.24966 -0.54012,-0.87394 1.15113,-2.51996 2.62397,-2.55379 0.36666,-0.008 1.04166,-0.42496 1.5,-0.92564 0.48416,-0.52889 0.30957,-0.60891 -0.41667,-0.19098 -2.09449,1.20533 -1.40312,-0.75351 1.56034,-4.42085 1.54568,-1.91281 3.83238,-5.16534 5.08156,-7.22784 1.24917,-2.0625 2.71107,-3.75 3.24868,-3.75 0.5376,0 0.72848,-0.40285 0.42418,-0.89522 -0.3043,-0.49236 0.0389,-1.12246 0.76275,-1.40022 0.72381,-0.27775 1.83893,0.33231 2.47804,1.35569 1.22553,1.96239 0.63994,4.93975 -0.97156,4.93975 -0.52361,0 -0.73218,0.35571 -0.46349,0.79047 0.77707,1.25732 -2.50091,7.24697 -3.59576,6.57031 -0.59906,-0.37023 -0.73358,0.19353 -0.3412,1.42983 0.3563,1.12259 0.18466,2.32732 -0.38141,2.67717 -0.62679,0.38738 -0.80131,-0.0685 -0.44634,-1.16584 0.47019,-1.45357 0.38406,-1.52118 -0.44548,-0.34969 -0.56559,0.79874 -0.81037,1.80494 -0.54397,2.236 0.7433,1.20267 -4.67694,9.89233 -5.75487,9.22614 -0.52152,-0.32232 -2.27152,0.91508 -3.88887,2.74978 -2.89876,3.2883 -3.92403,5.54188 -1.9726,4.33583 0.55,-0.33992 1,-0.16803 1,0.38197 0,0.55 -0.45,1.27811 -1,1.61803 -0.55,0.33992 -1,0.11492 -1,-0.5 0,-0.61492 -0.45,-0.83992 -1,-0.5 -1.4946,0.92371 -1.24982,3.7618 0.25,2.89869 0.72624,-0.41793 0.90083,-0.33791 0.41667,0.19098 -1.12722,1.23136 -3.00526,1.2043 -3.90136,-0.0562 -0.45771,-0.64385 -0.74046,-0.51219 -0.75,0.34924 -0.008,0.76049 -0.97617,2.21606 -2.15055,3.23459 -1.69749,1.47223 -1.89254,2.14431 -0.95144,3.27827 0.82874,0.99857 0.86187,1.62534 0.11046,2.08974 -0.59033,0.36485 -0.94968,0.12366 -0.79856,-0.53597 0.15113,-0.65963 -0.35123,-1.42675 -1.11635,-1.70471 -1.05249,-0.38235 -1.23417,0.12001 -0.74633,2.06372 0.35464,1.413 0.1983,2.84504 -0.34742,3.18231 -0.5598,0.34598 -0.74557,-0.0295 -0.42627,-0.86159 0.59221,-1.54328 -1.09907,-1.69115 -3.33885,-0.29192 -2.19469,1.37106 -1.34623,0.32115 5.71446,-7.07125 z m 29.61335,-48.76589 2.38929,-4 0.0164,4.25 c 0.009,2.3375 -0.41943,4.25 -0.95217,4.25 -0.53274,0 -0.68126,0.74882 -0.33006,1.66404 0.44554,1.16107 0.26432,1.43276 -0.59956,0.89885 -0.68096,-0.42085 -0.97733,-1.44478 -0.65859,-2.27538 0.40306,-1.05038 0.11935,-1.33361 -0.93183,-0.93024 -0.83124,0.31898 -1.46892,0.48158 -1.41708,0.36135 0.0518,-0.12024 1.16944,-2.01862 2.48355,-4.21862 z" />
    </g>
  </g>
</svg>
