<?xml version="1.0" encoding="UTF-8" standalone="no"?>
<!-- Created with Inkscape (http://www.inkscape.org/) -->

<svg
   xmlns:dc="http://purl.org/dc/elements/1.1/"
   xmlns:cc="http://creativecommons.org/ns#"
   xmlns:rdf="http://www.w3.org/1999/02/22-rdf-syntax-ns#"
   xmlns:svg="http://www.w3.org/2000/svg"
   xmlns="http://www.w3.org/2000/svg"
   xmlns:sodipodi="http://sodipodi.sourceforge.net/DTD/sodipodi-0.dtd"
   xmlns:inkscape="http://www.inkscape.org/namespaces/inkscape"
   width="72.861809"
   height="81.538223"
   id="svg2"
   version="1.1"
   inkscape:version="0.48.1 r9760"
   sodipodi:docname="leaf_03.svg">
  <defs
     id="defs4" />
  <sodipodi:namedview
     id="base"
     pagecolor="#ffffff"
     bordercolor="#666666"
     borderopacity="1.0"
     inkscape:pageopacity="0.0"
     inkscape:pageshadow="2"
     inkscape:zoom="0.8825"
     inkscape:cx="37.626697"
     inkscape:cy="9.6033791"
     inkscape:document-units="px"
     inkscape:current-layer="layer1"
     showgrid="false"
     inkscape:window-width="1749"
     inkscape:window-height="960"
     inkscape:window-x="0"
     inkscape:window-y="0"
     inkscape:window-maximized="0"
     fit-margin-top="0"
     fit-margin-left="0"
     fit-margin-right="0"
     fit-margin-bottom="0" />
  <metadata
     id="metadata7">
    <rdf:RDF>
      <cc:Work
         rdf:about="">
        <dc:format>image/svg+xml</dc:format>
        <dc:type
           rdf:resource="http://purl.org/dc/dcmitype/StillImage" />
        <dc:title></dc:title>
      </cc:Work>
    </rdf:RDF>
  </metadata>
  <g
     inkscape:label="Layer 1"
     inkscape:groupmode="layer"
     id="layer1"
     transform="translate(-222.23211,-429.56872)">
    <g
       id="g3969"
       transform="translate(-310.44084,-75.018121)">
      <path
         style="fill:#cdd2b2"
         d="m 528.22082,588.03601 c 2.13396,-1.9279 1.33664,-1.08634 2.78318,-2.03415 1.44654,-0.94781 3.22733,-3.15271 3.95729,-4.89977 2.08145,-4.9816 7.1916,-10.16292 15.22422,-15.43626 16.07543,-10.55335 35.99551,-32.35972 48.35319,-52.93188 6.5072,-10.8327 7.36564,-11.19903 6.82583,-2.91287 -0.65054,9.98603 -13.55356,34.67643 -24.59602,47.06538 -17.29969,19.40918 -33.87138,30.35314 -45.42423,31.17203 -2.71984,0.58684 -0.16888,1.43751 -7.12346,-0.0225 z"
         id="path3993"
         inkscape:connector-curvature="0"
         sodipodi:nodetypes="csssssscc" />
      <path
         style="fill:#b7c7aa"
         d="m 530.21282,587.11286 c 4.06153,-3.33349 4.52049,-4.57957 4.83124,-5.55867 1.44172,-4.54244 7.03435,-10.16508 16.19826,-16.28517 9.26602,-6.18829 30.00293,-26.25339 35.19568,-34.05546 0.88039,-1.32277 3.8892,-5.72096 6.68625,-9.77376 2.79705,-4.0528 6.32731,-9.50622 7.84502,-12.11872 5.65693,-9.73751 6.4792,-0.97504 1.12764,12.01654 -13.00933,31.58175 -44.88786,64.23346 -62.71244,64.23346 -5.1327,0 0.28396,-1.84932 -5.95727,2.49899 -1.72112,0.19143 -4.60614,0.0733 -3.21438,-0.95721 z"
         id="path3991"
         inkscape:connector-curvature="0"
         sodipodi:nodetypes="cssssssscc" />
      <path
         style="fill:#a2ab92"
         d="m 531.6134,586.21996 c 3.57499,-2.646 2.92528,-2.63423 2.92529,-3.22744 4e-5,-3.55397 6.83441,-10.79841 16.30466,-17.28294 18.04014,-12.35257 40.96653,-38.34129 51.06731,-57.8885 4.88631,-9.45607 4.63287,3.34695 -0.2882,14.55916 -14.25699,32.48324 -50.6176,66.64428 -68.82335,64.5645 -1.02746,1.32147 -2.93494,0.45599 -1.18571,-0.72478 z"
         id="path3989"
         inkscape:connector-curvature="0"
         sodipodi:nodetypes="csssscc" />
      <path
         style="fill:#8b976e"
         d="m 534.95431,581.8458 c 3.03643,-5.98365 7.8672,-10.71092 17.08439,-16.71836 14.6341,-9.53801 40.43606,-38.86182 49.10387,-55.80636 6.39504,-12.50152 5.56087,2.18363 -0.90638,15.95633 -14.78974,31.49637 -42.06652,58.24458 -61.44048,60.24985 -3.44135,0.35619 -6.19593,0.62427 -6.12128,0.59572 0.0747,-0.0285 1.1006,-1.95328 2.27988,-4.27718 z"
         id="path3987"
         inkscape:connector-curvature="0"
         sodipodi:nodetypes="ssssscs" />
      <path
         style="fill:#708855"
         d="m 535.74484,581.07108 c 2.89959,-5.74473 6.17826,-8.963 15.79386,-15.5029 15.56548,-10.58661 35.74927,-32.68746 46.53851,-50.95872 6.5817,-11.14592 7.99068,-12.15086 7.06408,-5.03838 -3.75995,28.86114 -46.63139,77.24068 -67.1685,75.79828 l -4.2469,-0.29828 z"
         id="path3985"
         inkscape:connector-curvature="0"
         sodipodi:nodetypes="ssssscs" />
      <path
         style="fill:#65774c"
         d="m 535.74102,581.07108 c 2.87383,-5.69539 7.1932,-9.91222 15.83677,-15.46082 14.42726,-9.26133 34.79145,-31.60092 47.09406,-51.66234 6.50969,-10.61514 7.36489,-11.18887 6.45511,-4.33062 -3.82697,28.8491 -47.55788,77.61438 -67.94522,75.76719 l -3.45908,-0.31341 z"
         id="path3983"
         inkscape:connector-curvature="0"
         sodipodi:nodetypes="ssssscs" />
      <path
         style="fill:#5e892d"
         d="m 535.86826,581.07108 c 2.62872,-5.63899 5.97222,-8.9214 15.3303,-15.05021 14.06595,-9.21209 31.34091,-27.47197 43.33564,-45.80639 11.70625,-17.89345 10.93228,-17.0823 10.38488,-10.88376 -2.42381,27.4461 -47.85299,78.29498 -67.9601,76.06773 l -2.9554,-0.32737 z"
         id="path3981"
         inkscape:connector-curvature="0"
         sodipodi:nodetypes="ssssscs" />
      <path
         style="fill:#596c46"
         d="m 535.86826,581.07108 c 2.62872,-5.63899 5.97222,-8.9214 15.3303,-15.05021 14.06595,-9.21209 31.34091,-27.47197 43.33564,-45.80639 11.70625,-17.89345 10.93228,-17.0823 10.38488,-10.88376 -2.42381,27.4461 -47.85299,78.29498 -67.9601,76.06773 l -2.9554,-0.32737 z m 10.22066,-2.61111 c 3.08318,-1.86389 7.03318,-4.63282 8.77778,-6.15318 1.7446,-1.52035 -0.95796,-0.17531 -6.00569,2.98898 -5.04773,3.16429 -8.99773,5.93322 -8.77777,6.15318 0.21995,0.21995 2.92251,-1.12508 6.00568,-2.98898 z"
         id="path3979"
         inkscape:connector-curvature="0"
         sodipodi:nodetypes="ssssscssssss" />
      <path
         style="fill:#506c32"
         d="m 536.43456,580.07108 c 2.29274,-4.95208 5.38673,-7.82878 15.60414,-14.50829 14.48045,-9.46643 36.05563,-33.4529 47.59716,-52.91674 l 4.40284,-7.42504 0.3045,4.11364 c 1.65869,22.40831 -45.24558,76.23643 -66.43023,76.23643 -3.90164,0 -3.94689,-0.16833 -1.47841,-5.5 z m 9.65436,-1.61111 c 3.08318,-1.86389 7.03318,-4.63282 8.77778,-6.15318 1.7446,-1.52035 -0.95796,-0.17531 -6.00569,2.98898 -5.04773,3.16429 -8.99773,5.93322 -8.77777,6.15318 0.21995,0.21995 2.92251,-1.12508 6.00568,-2.98898 z"
         id="path3977"
         inkscape:connector-curvature="0"
         sodipodi:nodetypes="ssscssssssss" />
      <path
         style="fill:#475832"
         d="m 536.00351,581.20834 c 2.13719,-5.99509 4.32006,-7.94439 21.71005,-19.38705 9.62788,-6.33517 32.26445,-32.88808 41.9223,-49.17524 l 4.40284,-7.42504 0.3045,4.11364 c 0.9056,12.23434 -32.77786,64.46247 -38.33852,59.44607 -0.43265,-0.3903 -0.4825,-0.17881 -0.11079,0.46997 0.80841,1.411 -9.03927,9.2397 -16.05534,12.76367 -4.10112,2.05988 -15.39114,4.60232 -15.25596,3.43555 0.0241,-0.20836 0.66356,-2.11706 1.42092,-4.24157 z m 7.66031,-1.24611 c 14.7208,-8.52653 28.44894,-20.91495 39.21844,-35.39115 4.8042,-6.45774 3.82464,-5.54115 -5.34352,5 -11.28512,12.97514 -20.70054,20.93317 -34.80868,29.42073 -3.46975,2.08743 -6.11345,3.99052 -5.87488,4.22908 0.23857,0.23857 3.30246,-1.22783 6.80864,-3.25866 z"
         id="path3975"
         inkscape:connector-curvature="0"
         sodipodi:nodetypes="ssscsssscssssscs" />
      <path
         style="fill:#29560e"
         d="m 538.37699,577.48712 c 1.75138,-2.76164 5.16468,-5.94735 9.03008,-8.42796 3.41792,-2.19345 8.61582,-5.88054 11.55089,-8.19354 2.93507,-2.313 5.65395,-3.888 6.04195,-3.5 0.388,0.388 0.55546,0.21261 0.37212,-0.38976 -0.18333,-0.60238 3.89634,-5.55002 9.06594,-10.99477 10.6588,-11.2261 14.29873,-15.93778 23.55919,-30.49601 l 6.54154,-10.28385 0,4.04739 c 0,11.31105 -15.52183,37.6493 -32.4548,55.071 -6.18939,6.36803 -9.89851,9.25018 -8.0452,6.25146 1.00599,-1.62773 -0.14174,-1.13977 -1.62756,0.69196 -1.18376,1.45936 -1.16623,1.57044 0.12756,0.80804 1.26164,-0.74346 1.2961,-0.63215 0.21684,0.70045 -0.70573,0.87141 -2.63266,2.14336 -4.28206,2.82657 -1.6494,0.6832 -2.76007,1.48102 -2.46815,1.77294 0.98633,0.98633 -9.37532,6.20157 -14.50852,7.30244 -7.34808,1.57589 -7.07235,0.6311 1.21452,-4.16147 10.11218,-5.84821 20.18811,-13.59048 27.46494,-21.10385 7.48483,-7.72813 19.37372,-22.60028 19.33202,-24.18297 -0.0167,-0.63476 -0.53765,-0.25411 -1.15762,0.84589 -2.2907,4.06438 -14.62663,18.32836 -22.31197,25.79924 -6.50796,6.32635 -28.92408,21.61001 -30.04734,20.48675 -0.23654,-0.23653 0.837,-2.42801 2.38563,-4.86995 z"
         id="path3973"
         inkscape:connector-curvature="0"
         sodipodi:nodetypes="sssscsscssssssssssscsscs" />
      <path
         style="fill:#173707"
         d="m 539.28179,578.21415 c 1.11716,0.29214 2.3808,-0.0345 2.8081,-0.72589 0.54716,-0.88534 0.28483,-1.06823 -0.88715,-0.6185 -2.56449,0.98408 -1.94908,-1.54545 0.87637,-3.60214 1.36266,-0.99191 2.99999,-1.48059 3.63851,-1.08596 0.76913,0.47535 0.95204,0.17307 0.54195,-0.89561 -0.45559,-1.18725 -0.19315,-1.44969 0.9941,-0.9941 1.02087,0.39174 1.36551,0.21837 0.9387,-0.47223 -0.39595,-0.64066 1.70405,-2.53833 5.08596,-4.59593 3.1682,-1.92759 7.07678,-4.8825 8.68573,-6.56647 2.02006,-2.11424 3.62587,-2.93473 5.18896,-2.65129 1.63947,0.2973 2.11367,0.0198 1.71985,-1.0065 -0.29906,-0.77933 -1.05909,-1.1172 -1.68895,-0.75081 -0.62987,0.36638 -0.29758,-0.30059 0.73843,-1.48216 1.036,-1.18158 2.386,-1.86178 3,-1.51157 0.61399,0.35021 0.76621,0.25195 0.33826,-0.21834 -1.10249,-1.21159 11.23877,-13.41789 12.91565,-12.77441 1.54885,0.59435 -5.96686,10.79211 -7.98261,10.83128 -0.63522,0.0123 -1.02272,0.79984 -0.86111,1.75 0.16161,0.95016 -0.13608,1.72756 -0.66152,1.72756 -1.051,0 -0.93111,-2.53454 0.17207,-3.63772 0.38258,-0.38259 0.69561,-1.16061 0.69561,-1.72895 0,-2.27416 -2.3169,1.4186 -2.55266,4.06853 -0.13693,1.53898 -0.29359,2.96574 -0.34815,3.17058 -0.0545,0.20485 -0.78506,-0.19678 -1.62336,-0.8925 -0.83829,-0.69572 -1.81329,-0.97582 -2.16666,-0.62244 -0.35338,0.35337 -0.17894,0.6425 0.38763,0.6425 1.48175,0 1.04941,4.47538 -0.4468,4.625 -0.6875,0.0687 -1.71973,0.18125 -2.29384,0.25 -0.57411,0.0687 -0.91161,0.90475 -0.75,1.85778 0.20278,1.19582 -0.41358,1.77377 -1.98901,1.86504 -2.16568,0.12547 -2.19622,0.0365 -0.59501,-1.73278 2.50377,-2.76663 0.10148,-2.2642 -2.52095,0.52725 -1.5865,1.68875 -1.87084,2.51783 -0.96687,2.81915 0.91287,0.30429 0.6628,1.08995 -0.87089,2.73618 -1.24743,1.33896 -2.79182,2.06359 -3.67542,1.72453 -0.83818,-0.32164 -1.78993,-0.15446 -2.115,0.37152 -0.32508,0.52598 0.13707,0.95633 1.02699,0.95633 0.88992,0 1.36063,0.41649 1.04602,0.92554 -0.31461,0.50904 -1.91616,0.75542 -3.55902,0.5475 -1.64285,-0.20791 -2.987,0.0506 -2.987,0.57447 0,0.52387 0.5625,0.9625 1.25,0.97473 1.60908,0.0286 -2.77663,3.52969 -7.05836,5.63462 -2.37965,1.16985 -3.61314,1.32164 -4.39405,0.54073 -0.78092,-0.78092 -0.5155,-0.93658 0.9455,-0.55452 z m 33.22137,-20.37718 c 3.80023,-3.97875 8.17281,-8.92875 9.71684,-11 1.54402,-2.07124 3.03488,-3.99089 3.31301,-4.26589 1.48995,-1.47319 5.00569,-7.06354 5.00569,-7.95951 0,-0.57227 0.34767,-1.04049 0.7726,-1.04049 0.42492,0 1.62079,-1.575 2.65747,-3.5 1.03668,-1.925 2.52031,-3.5 3.29695,-3.5 2.02269,0 1.17455,-4.26118 -0.90778,-4.56084 -1.0661,-0.15341 -1.48823,0.25986 -1.15429,1.13009 0.58811,1.5326 -3.24562,6.93075 -4.92219,6.93075 -0.59185,0 -1.28447,0.62514 -1.53916,1.3892 -0.31509,0.94528 -0.0392,1.12724 0.86333,0.56943 0.72952,-0.45087 0.30726,0.6115 -0.93836,2.36081 -2.32572,3.26617 -3.57796,3.88048 -4.58587,2.24966 -0.54012,-0.87394 1.15113,-2.51996 2.62397,-2.55379 0.36666,-0.008 1.04166,-0.42496 1.5,-0.92564 0.48416,-0.52889 0.30957,-0.60891 -0.41667,-0.19098 -2.09449,1.20533 -1.40312,-0.75351 1.56034,-4.42085 1.54568,-1.91281 3.83238,-5.16534 5.08156,-7.22784 1.24917,-2.0625 2.71107,-3.75 3.24868,-3.75 0.5376,0 0.72848,-0.40285 0.42418,-0.89522 -0.3043,-0.49236 0.0389,-1.12246 0.76275,-1.40022 0.72381,-0.27775 1.83893,0.33231 2.47804,1.35569 1.22553,1.96239 0.63994,4.93975 -0.97156,4.93975 -0.52361,0 -0.73218,0.35571 -0.46349,0.79047 0.77707,1.25732 -2.50091,7.24697 -3.59576,6.57031 -0.59906,-0.37023 -0.73358,0.19353 -0.3412,1.42983 0.3563,1.12259 0.18466,2.32732 -0.38141,2.67717 -0.62679,0.38738 -0.80131,-0.0685 -0.44634,-1.16584 0.47019,-1.45357 0.38406,-1.52118 -0.44548,-0.34969 -0.56559,0.79874 -0.81037,1.80494 -0.54397,2.236 0.7433,1.20267 -4.67694,9.89233 -5.75487,9.22614 -0.52152,-0.32232 -2.27152,0.91508 -3.88887,2.74978 -2.89876,3.2883 -3.92403,5.54188 -1.9726,4.33583 0.55,-0.33992 1,-0.16803 1,0.38197 0,0.55 -0.45,1.27811 -1,1.61803 -0.55,0.33992 -1,0.11492 -1,-0.5 0,-0.61492 -0.45,-0.83992 -1,-0.5 -1.4946,0.92371 -1.24982,3.7618 0.25,2.89869 0.72624,-0.41793 0.90083,-0.33791 0.41667,0.19098 -1.12722,1.23136 -3.00526,1.2043 -3.90136,-0.0562 -0.45771,-0.64385 -0.74046,-0.51219 -0.75,0.34924 -0.008,0.76049 -0.97617,2.21606 -2.15055,3.23459 -1.69749,1.47223 -1.89254,2.14431 -0.95144,3.27827 0.82874,0.99857 0.86187,1.62534 0.11046,2.08974 -0.59033,0.36485 -0.94968,0.12366 -0.79856,-0.53597 0.15113,-0.65963 -0.35123,-1.42675 -1.11635,-1.70471 -1.05249,-0.38235 -1.23417,0.12001 -0.74633,2.06372 0.35464,1.413 0.1983,2.84504 -0.34742,3.18231 -0.5598,0.34598 -0.74557,-0.0295 -0.42627,-0.86159 0.59221,-1.54328 -1.09907,-1.69115 -3.33885,-0.29192 -2.19469,1.37106 -1.34623,0.32115 5.71446,-7.07125 z m 29.61335,-48.76589 2.38929,-4 0.0164,4.25 c 0.009,2.3375 -0.41943,4.25 -0.95217,4.25 -0.53274,0 -0.68126,0.74882 -0.33006,1.66404 0.44554,1.16107 0.26432,1.43276 -0.59956,0.89885 -0.68096,-0.42085 -0.97733,-1.44478 -0.65859,-2.27538 0.40306,-1.05038 0.11935,-1.33361 -0.93183,-0.93024 -0.83124,0.31898 -1.46892,0.48158 -1.41708,0.36135 0.0518,-0.12024 1.16944,-2.01862 2.48355,-4.21862 z"
         id="path3971"
         inkscape:connector-curvature="0" />
    </g>
  </g>
</svg>
