<?xml version="1.0" encoding="UTF-8" standalone="no"?>
<!-- Created with Inkscape (http://www.inkscape.org/) -->

<svg
   xmlns:dc="http://purl.org/dc/elements/1.1/"
   xmlns:cc="http://creativecommons.org/ns#"
   xmlns:rdf="http://www.w3.org/1999/02/22-rdf-syntax-ns#"
   xmlns:svg="http://www.w3.org/2000/svg"
   xmlns="http://www.w3.org/2000/svg"
   xmlns:sodipodi="http://sodipodi.sourceforge.net/DTD/sodipodi-0.dtd"
   xmlns:inkscape="http://www.inkscape.org/namespaces/inkscape"
   width="47.694469"
   height="129.62367"
   id="svg3320"
   version="1.1"
   inkscape:version="0.48.1 r9760"
   sodipodi:docname="leaf_02.svg">
  <defs
     id="defs3322" />
  <sodipodi:namedview
     id="base"
     pagecolor="#ffffff"
     bordercolor="#666666"
     borderopacity="1.0"
     inkscape:pageopacity="0.0"
     inkscape:pageshadow="2"
     inkscape:zoom="2.3970696"
     inkscape:cx="70.565072"
     inkscape:cy="97.267417"
     inkscape:document-units="px"
     inkscape:current-layer="layer1"
     showgrid="false"
     inkscape:window-width="794"
     inkscape:window-height="742"
     inkscape:window-x="443"
     inkscape:window-y="265"
     inkscape:window-maximized="0"
     fit-margin-top="0"
     fit-margin-left="0"
     fit-margin-right="0"
     fit-margin-bottom="0" />
  <metadata
     id="metadata3325">
    <rdf:RDF>
      <cc:Work
         rdf:about="">
        <dc:format>image/svg+xml</dc:format>
        <dc:type
           rdf:resource="http://purl.org/dc/dcmitype/StillImage" />
        <dc:title />
      </cc:Work>
    </rdf:RDF>
  </metadata>
  <g
     inkscape:label="Layer 1"
     inkscape:groupmode="layer"
     id="layer1"
     transform="translate(-309.38495,-330.41928)">
    <g
       id="layer1-3"
       inkscape:label="Layer 1"
       transform="translate(104.51719,-43.672243)">
      <g
         transform="translate(-310.44084,-75.018121)"
         id="g3969">
        <path
           sodipodi:nodetypes="cssssccc"
           inkscape:connector-curvature="0"
           id="path3993"
           d="m 515.84366,571.98091 c -4.8019,-12.38378 23.81911,-92.59883 41.74395,-116.99426 7.46407,-10.15848 7.24692,-7.48481 -0.8658,10.66005 -9.2863,20.7697 -18.17255,48.63406 -18.15381,56.92438 0.0134,5.91845 -3.36363,28.0509 -5.21446,34.17489 -1.94813,6.4459 -3.80336,9.37243 -11.10013,15.48654 -4.08091,6.85169 -2.44789,6.65635 -4.55973,6.4164 -0.17591,-1.41592 0.59491,0.14653 -1.85002,-6.668 z"
           style="fill:#cdd2b2" />
        <path
           sodipodi:nodetypes="sssssssss"
           inkscape:connector-curvature="0"
           id="path3991"
           d="m 516.03113,559.07108 c 0.184,-0.55 1.75376,-5.725 3.48835,-11.5 15.10498,-50.28908 25.29332,-74.98243 38.1027,-92.34905 7.08545,-9.60626 6.96784,-8.04026 -0.67416,8.97655 -11.6857,26.02113 -16.87991,44.28789 -19.86843,69.8725 -2.74088,23.46443 -4.82987,29.21818 -13.05529,35.95829 -2.46708,2.02159 -4.98423,5.7013 -4.98423,6.48948 0,2.29175 -1.35552,0.22677 -2.25137,-2.65494 -0.78752,-2.53326 -1.61976,-12.21556 -0.75757,-14.79283 z"
           style="fill:#b7c7aa" />
        <path
           sodipodi:nodetypes="ssssscs"
           inkscape:connector-curvature="0"
           id="path3989"
           d="m 516.97197,556.57108 c 15.01806,-52.05447 25.63683,-78.8793 39.26653,-99.19403 8.57898,-12.78676 8.43614,-10.3327 -0.55537,9.54119 -8.81013,19.473 -15.93535,42.71191 -17.52348,57.15284 -3.67443,33.41191 -4.89171,37.31804 -14.40723,46.23117 -3.07159,2.87714 -5.66529,5.12714 -5.76376,5 -2.7026,-3.48934 -3.13195,-11.39944 -1.01669,-18.73117 z"
           style="fill:#a2ab92" />
        <path
           sodipodi:nodetypes="sssssscss"
           inkscape:connector-curvature="0"
           id="path3987"
           d="m 516.21642,560.07108 c 1.72155,-7.72496 14.49634,-47.86713 19.50153,-61.27957 5.20765,-13.95499 15.51383,-34.21917 21.71633,-42.69902 6.61701,-9.04655 6.43681,-7.2835 -0.86905,8.50231 -11.54517,24.94573 -16.51638,42.55948 -19.98045,70.79383 -2.84943,23.22461 -5.69285,30.16728 -14.80676,36.15321 -1.23163,0.80892 -2.25429,2.15892 -2.27259,3 -0.024,1.1036 -0.58068,0.87215 -2,-0.83154 -1.90787,-2.29013 -2.47675,-8.3096 -1.28901,-13.63922 z"
           style="fill:#8b976e" />
        <path
           sodipodi:nodetypes="ssssscssssss"
           inkscape:connector-curvature="0"
           id="path3985"
           d="m 517.44367,556.57108 c 13.45369,-48.86301 26.85087,-82.43219 40.21239,-100.7598 6.43736,-8.82994 6.18121,-7.49827 -1.98055,10.29636 -10.66408,23.25028 -15.87581,41.30367 -18.60958,64.46344 -3.20242,27.12997 -4.16316,30.01242 -12.76274,38.29113 -3.30856,3.18511 -6.12312,5.66011 -6.25458,5.5 -2.92082,-3.55779 -3.09702,-8.74003 -0.60494,-17.79113 z m 5.02766,6 c 1.11659,-1.92113 9.28205,-35.11865 8.76514,-35.63556 -0.21367,-0.21367 -1.39792,3.55442 -2.63167,8.37353 -1.23375,4.81912 -3.28809,12.58703 -4.56519,17.26203 -2.55322,9.34634 -3.05759,12.56243 -1.56828,10 z"
           style="fill:#708855" />
        <path
           sodipodi:nodetypes="csssssscscccsscccssssssscc"
           inkscape:connector-curvature="0"
           id="path3983"
           d="m 516.60641,560.09049 c 0.45785,-2.73932 1.7284,-7.46432 2.82342,-10.5 1.09503,-3.03567 2.8947,-8.89441 3.99927,-13.01941 8.63958,-32.26452 24.07975,-67.67658 36.62521,-84 3.66211,-4.76493 2.72696,-1.89447 -4.15307,12.74786 -10.45089,22.24196 -16.22251,42.10328 -18.81672,64.75214 -3.05564,26.67745 -4.88133,31.99382 -13.57264,39.52324 l -5.76993,4.99857 -1.10162,-3.16013 c -1.22375,-3.51045 -1.22585,-4.21109 -0.0339,-11.34227 z m 4.8454,6.98059 c 1.05134,-2.2 2.66645,-7.11508 3.58913,-10.92241 0.92267,-3.80732 2.35091,-7.95003 3.17387,-9.20602 0.82295,-1.25599 1.21067,-2.74575 0.86158,-3.31058 -0.34908,-0.56484 -0.32944,-2.65414 0.0437,-4.6429 0.43139,-2.2995 0.96011,-3.16004 1.45227,-2.36372 0.48824,0.79 0.73371,0.36511 0.665,-1.15108 -0.12205,-2.6936 3.50677,-19.02771 6.4028,-28.82037 1.04377,-3.5294 1.7192,-6.59564 1.50096,-6.81388 -0.68107,-0.68108 -10.89743,32.9235 -12.15824,39.99201 -0.36897,2.06857 -1.07718,4.01216 -1.5738,4.31909 -0.49663,0.30693 -0.6772,0.92334 -0.40128,1.36979 0.44052,0.71277 -2.06023,10.90746 -4.42766,18.05007 -1.781,5.37332 -1.17885,7.79095 0.87172,3.5 z"
           style="fill:#65774c" />
        <path
           sodipodi:nodetypes="sssssssssssssscsssscsssssssssssssssscscsccscssscss"
           inkscape:connector-curvature="0"
           id="path3981"
           d="m 516.55555,561.07108 c 4.28389,-25.16249 27.41958,-84.95982 40.11706,-103.68798 7.60572,-11.21807 7.24789,-9.08509 -1.62522,9.68798 -3.1195,6.6 -7.17715,16.54476 -9.01701,22.09946 -5.7281,17.29375 -7.45482,25.85867 -10.56416,52.40054 -1.85991,15.87661 -4.30825,21.62079 -11.93825,28.00898 -6.77326,5.67089 -8.93697,3.03034 -6.97242,-8.50898 z m 4.61291,0.38921 c -1.14845,5.67295 -1.63543,9.63187 -0.99769,8.11079 0.3459,-0.825 1.18819,-2.175 1.87176,-3 0.68356,-0.825 1.54524,-3.1875 1.91482,-5.25 0.36959,-2.0625 1.11571,-3.75 1.65805,-3.75 0.54234,0 1.28427,-0.7875 1.64873,-1.75 0.36446,-0.9625 1.25034,-2.34464 1.96862,-3.07143 0.71827,-0.72678 1.31284,-2.30178 1.32126,-3.5 0.0111,-1.58497 0.24706,-1.81292 0.86585,-0.83662 1.13855,1.79638 2.06982,-3.04098 1.50286,-7.80642 -0.33975,-2.85561 -0.22934,-3.15091 0.57408,-1.53553 1.0102,2.03112 0.93214,0.4844 -0.44157,-8.75 -0.26591,-1.7875 -0.005,-3.925 0.58088,-4.75 0.83443,-1.17596 0.94786,-0.95814 0.52508,1.00831 -0.2966,1.37957 -0.11265,3.17957 0.40877,4 0.6299,0.9911 0.79488,-0.6896 0.49162,-5.00831 -0.26953,-3.83845 -0.10463,-5.93294 0.40271,-5.11514 0.51217,0.82557 0.64134,-0.54747 0.31983,-3.39983 -0.42783,-3.79574 -0.26711,-4.61647 0.77758,-3.97082 0.93184,0.57592 1.14408,0.36357 0.72587,-0.72625 -0.7362,-1.9185 3.10249,-14.78796 4.41093,-14.78796 0.52703,0 0.67353,-0.46066 0.32556,-1.02369 -0.58156,-0.94099 1.95046,-9.14548 3.54174,-11.47631 0.90175,-1.32084 2.96978,-7.5 2.51009,-7.5 -1.26611,0 -9.5675,20.77863 -13.58355,34 -1.75418,5.775 -4.03637,13.16182 -5.07153,16.41516 -1.03516,3.25333 -1.88211,6.48927 -1.88211,7.19098 0,0.7017 -0.46804,1.56509 -1.04008,1.91863 -0.66972,0.41391 -0.84563,-0.36629 -0.49402,-2.19098 l 0.54606,-2.83379 -1.12786,2.86565 c -0.84267,2.14103 -0.83775,3.04496 0.0194,3.57473 0.85074,0.52579 0.80039,1.53415 -0.1948,3.901 -0.73816,1.75556 -1.67338,2.86065 -2.07827,2.45575 -0.4049,-0.40489 -0.43925,0.0376 -0.0763,0.98335 0.37907,0.98785 0.18881,1.71952 -0.44715,1.71952 -0.60885,0 -1.1001,0.7875 -1.09168,1.75 0.0132,1.51273 0.16161,1.54662 1.09434,0.25 0.89739,-1.24751 0.97897,-1.19167 0.48468,0.33179 -0.32688,1.00748 -0.59433,2.91998 -0.59433,4.25 0,1.63056 -0.57,2.4232 -1.75,2.43352 -1.38563,0.0121 -1.46272,0.19727 -0.37024,0.88922 0.94032,0.59556 1.17919,1.86466 0.75001,3.98468 z"
           style="fill:#5e892d" />
        <path
           sodipodi:nodetypes="sssssssscsscssssssssssssssssscscsccscsssscsscss"
           inkscape:connector-curvature="0"
           id="path3979"
           d="m 516.55555,561.07108 c 4.28389,-25.16249 27.41958,-84.95982 40.11706,-103.68798 7.60572,-11.21807 7.24789,-9.08509 -1.62522,9.68798 -3.1195,6.6 -7.17715,16.54476 -9.01701,22.09946 -5.73345,17.30992 -7.51985,26.18178 -10.55112,52.40054 -1.79369,15.51441 -4.62821,22.20851 -11.81362,27.89946 -4.51341,3.57469 -5.10027,3.20886 -2.27758,-1.41977 1.01303,-1.66117 2.14859,-4.65522 2.52346,-6.65345 0.37487,-1.99823 1.34434,-3.88746 2.15438,-4.1983 0.81004,-0.31085 1.4728,-1.06144 1.4728,-1.66798 0,-0.60655 0.675,-1.77782 1.5,-2.60282 0.825,-0.825 1.50689,-2.48035 1.51531,-3.67857 0.0125,-1.7732 0.19569,-1.89946 0.98469,-0.67857 1.17103,1.81204 1.18707,1.67078 1.44539,-12.73112 0.10093,-5.62711 0.55531,-10.57711 1.00974,-11 0.45442,-0.42288 0.55664,0.35986 0.22716,1.73943 -0.32949,1.37957 -0.18417,3.17957 0.32293,4 0.61865,1.0009 0.87704,-0.4824 0.78535,-4.50831 -0.23862,-10.47712 0.10431,-13.683 1.37937,-12.89497 0.76777,0.47451 0.96678,0.19364 0.57893,-0.81707 -0.7362,-1.9185 3.10249,-14.78796 4.41093,-14.78796 0.52703,0 0.67353,-0.46066 0.32556,-1.02369 -0.58156,-0.94099 1.95046,-9.14548 3.54174,-11.47631 0.90175,-1.32084 2.96978,-7.5 2.51009,-7.5 -1.26611,0 -9.5675,20.77863 -13.58355,34 -1.75418,5.775 -4.03637,13.16182 -5.07153,16.41516 -1.03516,3.25333 -1.88211,6.48927 -1.88211,7.19098 0,0.7017 -0.46804,1.56509 -1.04008,1.91863 -0.66972,0.41391 -0.84563,-0.36629 -0.49402,-2.19098 l 0.54606,-2.83379 -1.12786,2.86565 c -0.84267,2.14103 -0.83775,3.04496 0.0194,3.57473 0.85074,0.52579 0.80039,1.53415 -0.1948,3.901 -0.73816,1.75556 -1.67338,2.86065 -2.07827,2.45575 -0.4049,-0.40489 -0.43925,0.0376 -0.0763,0.98335 0.37907,0.98785 0.18881,1.71952 -0.44715,1.71952 -0.60885,0 -1.1001,0.7875 -1.09168,1.75 0.0132,1.51273 0.16161,1.54662 1.09434,0.25 0.89739,-1.24751 0.97897,-1.19167 0.48468,0.33179 -0.32688,1.00748 -0.59433,2.91998 -0.59433,4.25 0,1.48285 -0.5802,2.41821 -1.5,2.41821 -0.825,0 -1.49311,0.7875 -1.48469,1.75 0.0131,1.49555 0.15626,1.5319 0.98469,0.25 1.75182,-2.71075 0.59588,4.46529 -1.77193,11 -0.29893,0.825 -0.43493,2.175 -0.30221,3 0.16755,1.04162 -0.0841,1.18486 -0.82354,0.46875 -1.60099,-1.55052 -2.03828,-6.37217 -1.08546,-11.96875 z"
           style="fill:#596c46" />
        <path
           sodipodi:nodetypes="csssssscscssssssssssssssssscssscsssccsssccscsscsscc"
           inkscape:connector-curvature="0"
           id="path3977"
           d="m 516.50707,569.05153 c 0.43002,0.26577 0.55453,-1.53361 0.27669,-3.99862 -0.40933,-3.63157 -0.20535,-4.48183 1.0752,-4.48183 0.8692,0 2.03904,-0.7875 2.59964,-1.75 1.84158,-3.16179 0.68411,4.19285 -1.69183,10.75 -0.29893,0.825 -0.44244,2.10766 -0.31891,2.85035 0.34503,2.07441 -1.59745,0.44964 -2.19519,-1.83615 -0.2901,-1.10933 -0.17562,-1.79951 0.2544,-1.53375 z m 2.39209,-17.31759 1.20831,-3.33714 1.34849,2.51968 c 1.55873,2.91251 0.85806,5.6546 -1.44489,5.6546 -0.87472,0 -1.31229,0.45 -0.97237,1 0.33992,0.55 0.14148,1 -0.44098,1 -1.35096,0 -1.23683,-2.5887 0.30144,-6.83714 z m 2.78708,15.83714 c 1.17703,-1.925 2.24292,-4.4 2.36864,-5.5 0.39844,-3.48626 0.46495,-3.62969 1.41182,-3.0445 0.51041,0.31545 1.2178,-0.33953 1.572,-1.4555 0.3542,-1.11597 1.00539,-1.80569 1.44709,-1.5327 0.44171,0.27299 1.13243,-1.40797 1.53494,-3.73548 0.40251,-2.3275 0.96892,-3.6012 1.2587,-2.83043 0.38182,1.01559 0.89322,0.74029 1.85763,-1 2.88233,-5.2012 0.71733,5.44425 -2.56222,12.59861 -1.00848,2.2 -3.11667,5.07651 -4.68487,6.39224 -1.5682,1.31573 -3.63877,3.07297 -4.60127,3.90499 -2.36541,2.04473 -2.19826,0.44811 0.39754,-3.79723 z m 17.39878,-76.22874 c 5.32017,-12.36836 14.69565,-29.73975 15.71183,-29.11172 0.62781,0.38801 0.75272,0.16706 0.31027,-0.54884 -0.86314,-1.39658 1.24266,-4.34549 2.53343,-3.54775 0.48138,0.29751 0.66338,-0.0449 0.40444,-0.76101 -0.25894,-0.71607 0.4112,-2.42694 1.48922,-3.80194 3.43613,-4.38277 2.16383,-0.28645 -3.34407,10.76666 -6.14167,12.32494 -11.19758,25.04554 -10.8241,27.23334 0.22141,1.29706 0.12405,1.30352 -0.71966,0.0478 -0.53664,-0.79874 -0.87169,-1.69874 -0.74454,-2 0.12714,-0.30126 0.73308,-1.67275 1.34653,-3.04775 0.61344,-1.375 2.14465,-5.2 3.40268,-8.5 1.25803,-3.3 2.6474,-6.4275 3.08749,-6.95 0.44009,-0.5225 0.78519,-1.4225 0.76689,-2 -0.0537,-1.69582 -3.96455,3.51092 -3.98897,5.31078 -0.0122,0.90157 -0.90222,2.76422 -1.97776,4.13922 -1.07554,1.375 -1.96553,3.20149 -1.97776,4.05887 -0.0122,0.85738 -0.68293,2.43238 -1.49044,3.5 -0.8075,1.06762 -1.4825,2.69113 -1.5,3.6078 -0.0175,0.91666 -0.50119,1.82313 -1.0749,2.01436 -0.5737,0.19124 -1.18404,1.66968 -1.35631,3.28544 -0.17226,1.61575 -0.82787,3.10929 -1.4569,3.31897 -1.60774,0.53591 -1.40161,-0.49488 1.40263,-7.01418 z"
           style="fill:#506c32" />
        <path
           sodipodi:nodetypes="sssssssssscssssssssscs"
           inkscape:connector-curvature="0"
           id="path3975"
           d="m 524.41013,565.57108 c 1.75526,0 4.18981,-2.58827 3.33095,-3.54128 -0.38631,-0.42865 -0.22042,-0.50545 0.36863,-0.17065 1.08323,0.61567 3.70191,-5.77829 4.95954,-12.10958 0.36287,-1.82682 0.89266,-3.08861 1.1773,-2.80397 0.77148,0.77148 -1.66026,10.15133 -3.75666,14.49037 -2.38576,4.93796 -4.63028,6.85602 -6.19357,5.29273 -0.87683,-0.87683 -0.84922,-1.15762 0.11381,-1.15762 z m 22.67694,-90.62761 c 8.12526,-15.91391 9.20914,-17.64029 10.55348,-16.80944 0.48138,0.29751 0.66338,-0.0449 0.40444,-0.76101 -0.25894,-0.71607 0.4112,-2.42694 1.48922,-3.80194 3.48548,-4.44571 2.13288,-0.13837 -3.39394,10.80795 -2.96913,5.88063 -6.40443,13.50455 -7.63399,16.94205 -1.22956,3.4375 -2.43059,6.25 -2.66896,6.25 -0.90881,0 4.26693,-14.35371 6.04852,-16.77417 0.51583,-0.70079 0.62427,-1.58776 0.24099,-1.97104 -0.85275,-0.85274 -2.38262,1.38032 -3.25094,4.74521 -0.35482,1.375 -0.96869,2.725 -1.36414,3 -0.39545,0.275 -2.32496,3.875 -4.28779,8 -1.96283,4.125 -3.59499,6.97269 -3.62702,6.32821 -0.032,-0.64449 3.33853,-7.8246 7.49013,-15.95582 z"
           style="fill:#475832" />
      </g>
    </g>
  </g>
</svg>
